{"glyphs":{"0":{"ha":414,"x_min":83,"x_max":331,"o":"m 85 118 q 83 407 83 258 q 83 703 83 555 q 85 992 83 851 q 109 1077 85 1045 q 179 1116 133 1109 l 179 1088 q 113 992 115 1073 q 111 753 112 871 q 110 524 110 635 q 111 310 110 412 q 113 118 112 208 q 179 24 115 38 l 179 -5 q 109 34 133 3 q 85 118 85 65 m 235 -5 l 235 24 q 301 118 299 38 q 303 442 303 285 q 303 738 303 599 q 301 992 303 878 q 235 1088 299 1073 l 235 1116 q 305 1077 281 1109 q 329 992 329 1045 q 331 777 331 887 q 331 555 331 667 q 331 333 331 443 q 329 118 331 224 q 305 34 329 65 q 235 -5 281 3 z "},"1":{"ha":219,"x_min":69,"x_max":136,"o":"m 108 0 l 108 1054 l 74 1054 l 69 1072 l 111 1111 l 136 1111 l 136 0 l 108 0 z "},"2":{"ha":429,"x_min":83,"x_max":346,"o":"m 89 0 q 88 39 88 19 q 88 77 88 58 q 88 116 88 97 q 88 155 88 135 q 88 193 88 174 q 105 367 88 303 q 148 467 123 431 q 197 526 174 502 l 240 571 q 295 655 283 615 q 310 747 307 694 q 313 868 313 808 q 310 989 313 928 q 291 1059 307 1035 q 238 1088 275 1083 l 238 1117 q 312 1082 290 1112 q 338 990 335 1051 q 340 932 339 965 q 340 864 340 899 q 340 799 340 829 q 339 749 340 769 q 324 650 335 687 q 292 585 313 613 q 240 528 271 558 l 201 489 q 154 417 173 460 q 126 318 135 374 q 117 193 117 262 l 117 0 l 89 0 m 86 743 q 85 832 85 788 q 84 915 84 875 q 85 989 83 955 q 110 1081 87 1050 q 182 1117 133 1111 l 182 1088 q 130 1059 146 1083 q 113 989 114 1035 q 112 866 112 928 q 114 743 112 805 l 86 743 m 172 0 l 172 28 l 346 28 l 346 0 l 172 0 z "},"3":{"ha":410,"x_min":56,"x_max":326,"o":"m 65 122 q 64 201 64 160 q 64 288 63 241 q 65 393 64 335 l 93 393 l 93 122 q 161 23 93 34 l 161 -6 q 90 31 113 1 q 65 122 67 62 m 56 1083 l 56 1111 l 326 1111 l 326 1083 l 56 1083 m 217 23 q 282 122 282 33 q 285 303 285 213 q 282 483 285 393 q 253 567 280 542 q 167 592 226 592 l 126 592 l 124 617 l 281 1056 l 313 1056 l 156 619 l 167 619 q 275 588 242 619 q 310 483 308 556 q 312 369 311 422 q 313 272 313 317 q 312 190 313 227 q 310 122 311 153 q 285 31 307 61 q 217 -6 263 1 l 217 23 z "},"4":{"ha":453,"x_min":42,"x_max":369,"o":"m 42 374 l 42 394 l 149 906 l 176 906 l 72 401 l 172 401 l 172 374 l 42 374 m 228 0 l 229 1111 l 256 1111 l 256 0 l 228 0 m 311 374 l 311 401 l 369 401 l 369 374 l 311 374 z "},"5":{"ha":417,"x_min":83,"x_max":333,"o":"m 85 122 q 83 258 83 190 q 85 393 83 326 l 113 393 q 111 303 111 348 q 111 213 110 258 q 113 122 111 167 q 130 52 114 76 q 181 23 145 28 l 181 -6 q 109 31 132 1 q 85 122 87 62 m 94 519 l 94 1111 l 122 1111 l 122 519 l 94 519 m 178 617 l 178 645 q 198 651 187 649 q 219 653 208 653 q 303 623 277 653 q 331 524 328 592 q 333 382 333 448 q 332 253 333 317 q 329 122 331 190 q 305 31 327 61 q 236 -6 283 1 l 236 23 q 285 52 271 28 q 301 122 300 76 q 306 319 306 226 q 303 524 306 413 q 283 601 302 578 q 219 625 263 625 q 197 623 208 625 q 178 617 187 621 m 178 1083 l 178 1111 l 331 1111 l 331 1083 l 178 1083 z "},"6":{"ha":406,"x_min":83,"x_max":335,"o":"m 87 121 q 84 377 85 259 q 83 598 83 494 q 84 797 83 701 q 87 988 85 893 q 109 1078 88 1048 q 174 1115 129 1108 l 174 1086 q 130 1056 144 1080 q 115 988 116 1033 q 112 732 113 862 q 112 454 111 603 q 115 121 113 305 q 129 52 115 76 q 176 22 144 28 l 176 -7 q 109 30 129 -1 q 87 121 88 60 m 166 608 l 166 635 q 192 644 178 641 q 220 647 206 647 q 303 617 278 647 q 331 518 329 587 q 334 383 333 447 q 334 256 335 319 q 331 121 333 192 q 306 29 329 60 q 231 -7 283 -1 l 231 22 q 285 51 268 27 q 303 121 303 74 q 305 223 305 174 q 306 319 306 272 q 305 416 306 367 q 303 518 305 465 q 283 596 303 572 q 220 619 264 619 q 191 617 205 619 q 166 608 178 614 m 298 742 q 300 824 299 783 q 300 906 300 865 q 298 988 299 947 q 281 1057 297 1033 q 230 1087 265 1081 l 230 1115 q 301 1079 279 1109 q 326 988 324 1049 q 327 912 326 959 q 327 817 327 865 q 326 742 326 770 l 298 742 z "},"7":{"ha":342,"x_min":56,"x_max":300,"o":"m 56 1083 l 56 1111 l 300 1111 l 300 1083 l 56 1083 m 86 0 l 263 1042 l 292 1042 l 114 0 l 86 0 z "},"8":{"ha":403,"x_min":78,"x_max":324,"o":"m 82 122 q 79 210 80 163 q 79 319 78 258 q 82 461 80 380 q 99 537 84 510 q 144 575 113 564 l 144 590 q 99 629 113 603 q 82 706 84 656 q 79 812 80 764 q 79 903 78 860 q 82 989 80 946 q 106 1080 85 1049 q 174 1116 128 1110 l 174 1088 q 126 1058 142 1082 q 110 989 111 1034 q 108 916 108 951 q 107 847 107 881 q 108 778 107 813 q 110 706 108 744 q 126 632 111 657 q 174 600 142 606 l 174 567 q 126 535 142 560 q 110 461 111 510 q 107 292 107 371 q 110 122 107 213 q 126 53 111 77 q 174 23 142 29 l 174 -5 q 106 32 128 1 q 82 122 85 62 m 229 -5 l 229 23 q 278 53 263 29 q 293 122 293 76 q 296 237 295 183 q 296 346 297 292 q 293 461 295 401 q 229 567 290 555 l 229 600 q 293 706 291 612 q 295 848 294 782 q 293 989 297 913 q 277 1058 292 1035 q 229 1088 263 1082 l 229 1116 q 297 1080 275 1110 q 321 989 318 1049 q 324 903 323 946 q 324 812 324 860 q 321 706 323 764 q 304 630 319 656 q 258 592 290 603 l 258 576 q 304 536 290 563 q 321 461 319 509 q 324 261 324 340 q 321 122 324 183 q 297 32 318 62 q 229 -5 275 1 z "},"9":{"ha":405,"x_min":72,"x_max":323,"o":"m 74 576 q 73 667 74 613 q 72 782 72 722 q 73 897 72 842 q 74 988 74 951 q 100 1079 76 1049 q 174 1115 124 1110 l 174 1087 q 102 988 104 1076 q 101 899 101 953 q 101 782 101 844 q 101 665 101 720 q 102 576 101 610 q 123 499 103 522 q 185 475 142 475 q 214 478 201 475 q 240 486 228 481 l 240 459 q 213 450 227 453 q 185 447 199 447 q 123 460 147 447 q 88 502 99 474 q 74 576 76 531 m 80 121 q 79 197 79 149 q 79 291 78 244 q 80 367 79 338 l 108 367 q 107 244 107 306 q 108 121 107 183 q 125 52 109 76 q 174 22 140 28 l 174 -6 q 104 30 126 0 q 80 121 82 60 m 230 -7 l 230 22 q 276 51 262 28 q 291 121 290 75 q 294 333 293 225 q 294 552 294 442 q 293 771 294 662 q 291 988 292 881 q 276 1057 291 1033 q 230 1087 262 1081 l 230 1115 q 297 1078 276 1109 q 319 988 318 1048 q 322 701 322 848 q 322 407 323 553 q 319 121 321 260 q 297 30 318 60 q 230 -7 276 -1 z "}," ":{"ha":278,"x_min":0,"x_max":0,"o":""}," ":{"ha":278,"x_min":0,"x_max":0,"o":""},"A":{"ha":367,"x_min":42,"x_max":325,"o":"m 42 0 l 140 1111 l 228 1111 l 229 1083 l 163 1083 l 125 639 l 104 400 l 229 400 l 222 372 l 101 372 l 69 0 l 42 0 m 297 0 l 242 640 l 206 1056 l 231 1056 l 325 0 l 297 0 z "},"Á":{"ha":367,"x_min":42,"x_max":325,"o":"m 42 0 l 140 1111 l 228 1111 l 229 1083 l 163 1083 l 125 639 l 104 400 l 229 400 l 222 372 l 101 372 l 69 0 l 42 0 m 297 0 l 242 640 l 206 1056 l 231 1056 l 325 0 l 297 0 m 169 1167 l 246 1304 l 275 1304 l 199 1167 l 169 1167 z "},"Ă":{"ha":367,"x_min":42,"x_max":325,"o":"m 42 0 l 140 1111 l 228 1111 l 229 1083 l 163 1083 l 125 639 l 104 400 l 229 400 l 222 372 l 101 372 l 69 0 l 42 0 m 297 0 l 242 640 l 206 1056 l 231 1056 l 325 0 l 297 0 m 185 1164 q 101 1190 126 1164 q 74 1276 75 1216 l 101 1276 q 120 1209 103 1228 q 185 1190 138 1190 q 250 1209 232 1190 q 268 1276 267 1228 l 296 1276 q 269 1190 295 1216 q 185 1164 243 1164 z "},"Ắ":{"ha":367,"x_min":42,"x_max":325,"o":"m 42 0 l 140 1111 l 228 1111 l 229 1083 l 163 1083 l 125 639 l 104 400 l 229 400 l 222 372 l 101 372 l 69 0 l 42 0 m 297 0 l 242 640 l 206 1056 l 231 1056 l 325 0 l 297 0 m 185 1164 q 101 1190 126 1164 q 74 1276 75 1216 l 101 1276 q 120 1209 103 1228 q 185 1190 138 1190 q 250 1209 232 1190 q 268 1276 267 1228 l 296 1276 q 269 1190 295 1216 q 185 1164 243 1164 m 163 1274 l 239 1411 l 268 1411 l 192 1274 l 163 1274 z "},"Ặ":{"ha":367,"x_min":42,"x_max":325,"o":"m 42 0 l 140 1111 l 228 1111 l 229 1083 l 163 1083 l 125 639 l 104 400 l 229 400 l 222 372 l 101 372 l 69 0 l 42 0 m 297 0 l 242 640 l 206 1056 l 231 1056 l 325 0 l 297 0 m 164 -97 l 164 -56 l 206 -56 l 206 -97 l 164 -97 m 185 1164 q 101 1190 126 1164 q 74 1276 75 1216 l 101 1276 q 120 1209 103 1228 q 185 1190 138 1190 q 250 1209 232 1190 q 268 1276 267 1228 l 296 1276 q 269 1190 295 1216 q 185 1164 243 1164 z "},"Ằ":{"ha":367,"x_min":42,"x_max":325,"o":"m 42 0 l 140 1111 l 228 1111 l 229 1083 l 163 1083 l 125 639 l 104 400 l 229 400 l 222 372 l 101 372 l 69 0 l 42 0 m 297 0 l 242 640 l 206 1056 l 231 1056 l 325 0 l 297 0 m 185 1164 q 101 1190 126 1164 q 74 1276 75 1216 l 101 1276 q 120 1209 103 1228 q 185 1190 138 1190 q 250 1209 232 1190 q 268 1276 267 1228 l 296 1276 q 269 1190 295 1216 q 185 1164 243 1164 m 169 1274 l 93 1411 l 122 1411 l 199 1274 l 169 1274 z "},"Ẳ":{"ha":367,"x_min":42,"x_max":325,"o":"m 42 0 l 140 1111 l 228 1111 l 229 1083 l 163 1083 l 125 639 l 104 400 l 229 400 l 222 372 l 101 372 l 69 0 l 42 0 m 297 0 l 242 640 l 206 1056 l 231 1056 l 325 0 l 297 0 m 185 1164 q 101 1190 126 1164 q 74 1276 75 1216 l 101 1276 q 120 1209 103 1228 q 185 1190 138 1190 q 250 1209 232 1190 q 268 1276 267 1228 l 296 1276 q 269 1190 295 1216 q 185 1164 243 1164 m 174 1301 l 183 1346 q 180 1366 187 1360 q 157 1372 174 1372 l 129 1372 l 129 1394 l 157 1394 q 201 1383 188 1394 q 208 1346 214 1372 l 199 1301 l 174 1301 z "},"Ẵ":{"ha":367,"x_min":42,"x_max":325,"o":"m 42 0 l 140 1111 l 228 1111 l 229 1083 l 163 1083 l 125 639 l 104 400 l 229 400 l 222 372 l 101 372 l 69 0 l 42 0 m 297 0 l 242 640 l 206 1056 l 231 1056 l 325 0 l 297 0 m 185 1164 q 101 1190 126 1164 q 74 1276 75 1216 l 101 1276 q 120 1209 103 1228 q 185 1190 138 1190 q 250 1209 232 1190 q 268 1276 267 1228 l 296 1276 q 269 1190 295 1216 q 185 1164 243 1164 m 282 1399 l 308 1399 q 286 1343 310 1365 q 227 1325 262 1321 q 195 1338 206 1328 q 174 1358 184 1348 q 147 1374 165 1369 q 111 1370 132 1378 q 88 1329 91 1362 l 61 1329 q 95 1392 65 1376 q 156 1400 126 1408 q 182 1389 172 1397 q 200 1373 192 1381 q 215 1358 207 1365 q 233 1350 222 1351 q 270 1363 256 1347 q 282 1399 283 1378 z "},"Ǎ":{"ha":367,"x_min":42,"x_max":325,"o":"m 42 0 l 140 1111 l 228 1111 l 229 1083 l 163 1083 l 125 639 l 104 400 l 229 400 l 222 372 l 101 372 l 69 0 l 42 0 m 297 0 l 242 640 l 206 1056 l 231 1056 l 325 0 l 297 0 m 171 1167 l 94 1304 l 124 1304 l 186 1193 l 247 1304 l 276 1304 l 200 1167 l 171 1167 z "},"Â":{"ha":367,"x_min":42,"x_max":325,"o":"m 42 0 l 140 1111 l 228 1111 l 229 1083 l 163 1083 l 125 639 l 104 400 l 229 400 l 222 372 l 101 372 l 69 0 l 42 0 m 297 0 l 242 640 l 206 1056 l 231 1056 l 325 0 l 297 0 m 94 1167 l 171 1304 l 200 1304 l 276 1167 l 244 1167 l 186 1275 l 126 1167 l 94 1167 z "},"Ấ":{"ha":367,"x_min":42,"x_max":365,"o":"m 42 0 l 140 1111 l 228 1111 l 229 1083 l 163 1083 l 125 639 l 104 400 l 229 400 l 222 372 l 101 372 l 69 0 l 42 0 m 297 0 l 242 640 l 206 1056 l 231 1056 l 325 0 l 297 0 m 94 1167 l 171 1304 l 200 1304 l 276 1167 l 244 1167 l 186 1275 l 126 1167 l 94 1167 m 260 1274 l 336 1412 l 365 1412 l 289 1274 l 260 1274 z "},"Ậ":{"ha":367,"x_min":42,"x_max":325,"o":"m 42 0 l 140 1111 l 228 1111 l 229 1083 l 163 1083 l 125 639 l 104 400 l 229 400 l 222 372 l 101 372 l 69 0 l 42 0 m 297 0 l 242 640 l 206 1056 l 231 1056 l 325 0 l 297 0 m 164 -97 l 164 -56 l 206 -56 l 206 -97 l 164 -97 m 94 1167 l 171 1304 l 200 1304 l 276 1167 l 244 1167 l 186 1275 l 126 1167 l 94 1167 z "},"Ầ":{"ha":367,"x_min":42,"x_max":325,"o":"m 42 0 l 140 1111 l 228 1111 l 229 1083 l 163 1083 l 125 639 l 104 400 l 229 400 l 222 372 l 101 372 l 69 0 l 42 0 m 297 0 l 242 640 l 206 1056 l 231 1056 l 325 0 l 297 0 m 94 1167 l 171 1304 l 200 1304 l 276 1167 l 244 1167 l 186 1275 l 126 1167 l 94 1167 m 294 1274 l 218 1412 l 247 1412 l 324 1274 l 294 1274 z "},"Ẩ":{"ha":367,"x_min":42,"x_max":325,"o":"m 42 0 l 140 1111 l 228 1111 l 229 1083 l 163 1083 l 125 639 l 104 400 l 229 400 l 222 372 l 101 372 l 69 0 l 42 0 m 297 0 l 242 640 l 206 1056 l 231 1056 l 325 0 l 297 0 m 94 1167 l 171 1304 l 200 1304 l 276 1167 l 244 1167 l 186 1275 l 126 1167 l 94 1167 m 238 1329 l 247 1374 q 244 1394 251 1388 q 221 1400 238 1400 l 193 1400 l 193 1422 l 221 1422 q 265 1411 252 1422 q 272 1374 278 1400 l 263 1329 l 238 1329 z "},"Ẫ":{"ha":367,"x_min":42,"x_max":325,"o":"m 42 0 l 140 1111 l 228 1111 l 229 1083 l 163 1083 l 125 639 l 104 400 l 229 400 l 222 372 l 101 372 l 69 0 l 42 0 m 297 0 l 242 640 l 206 1056 l 231 1056 l 325 0 l 297 0 m 94 1167 l 171 1304 l 200 1304 l 276 1167 l 244 1167 l 186 1275 l 126 1167 l 94 1167 m 282 1411 l 308 1411 q 286 1355 310 1377 q 227 1338 262 1333 q 195 1350 206 1340 q 174 1371 184 1360 q 147 1386 165 1381 q 111 1382 132 1390 q 88 1342 91 1374 l 61 1342 q 95 1405 65 1389 q 156 1413 126 1420 q 182 1401 172 1409 q 200 1385 192 1394 q 215 1370 207 1377 q 233 1363 222 1364 q 270 1375 256 1360 q 282 1411 283 1390 z "},"Ȁ":{"ha":367,"x_min":11,"x_max":325,"o":"m 42 0 l 140 1111 l 228 1111 l 229 1083 l 163 1083 l 125 639 l 104 400 l 229 400 l 222 372 l 101 372 l 69 0 l 42 0 m 297 0 l 242 640 l 206 1056 l 231 1056 l 325 0 l 297 0 m 93 1167 l 11 1303 l 44 1303 l 126 1167 l 93 1167 m 204 1167 l 122 1303 l 156 1303 l 238 1167 l 204 1167 z "},"Ä":{"ha":367,"x_min":42,"x_max":325,"o":"m 42 0 l 140 1111 l 228 1111 l 229 1083 l 163 1083 l 125 639 l 104 400 l 229 400 l 222 372 l 101 372 l 69 0 l 42 0 m 297 0 l 242 640 l 206 1056 l 231 1056 l 325 0 l 297 0 m 206 1167 l 206 1208 l 247 1208 l 247 1167 l 206 1167 m 122 1167 l 122 1208 l 164 1208 l 164 1167 l 122 1167 z "},"Ạ":{"ha":367,"x_min":42,"x_max":325,"o":"m 42 0 l 140 1111 l 228 1111 l 229 1083 l 163 1083 l 125 639 l 104 400 l 229 400 l 222 372 l 101 372 l 69 0 l 42 0 m 297 0 l 242 640 l 206 1056 l 231 1056 l 325 0 l 297 0 m 164 -97 l 164 -56 l 206 -56 l 206 -97 l 164 -97 z "},"À":{"ha":367,"x_min":42,"x_max":325,"o":"m 42 0 l 140 1111 l 228 1111 l 229 1083 l 163 1083 l 125 639 l 104 400 l 229 400 l 222 372 l 101 372 l 69 0 l 42 0 m 297 0 l 242 640 l 206 1056 l 231 1056 l 325 0 l 297 0 m 169 1167 l 93 1304 l 122 1304 l 199 1167 l 169 1167 z "},"Ả":{"ha":367,"x_min":42,"x_max":325,"o":"m 42 0 l 140 1111 l 228 1111 l 229 1083 l 163 1083 l 125 639 l 104 400 l 229 400 l 222 372 l 101 372 l 69 0 l 42 0 m 297 0 l 242 640 l 206 1056 l 231 1056 l 325 0 l 297 0 m 174 1194 l 183 1239 q 180 1259 187 1253 q 157 1265 174 1265 l 129 1265 l 129 1288 l 157 1288 q 201 1276 188 1288 q 208 1239 214 1265 l 199 1194 l 174 1194 z "},"Ȃ":{"ha":367,"x_min":42,"x_max":325,"o":"m 42 0 l 140 1111 l 228 1111 l 229 1083 l 163 1083 l 125 639 l 104 400 l 229 400 l 222 372 l 101 372 l 69 0 l 42 0 m 297 0 l 242 640 l 206 1056 l 231 1056 l 325 0 l 297 0 m 185 1263 q 269 1236 243 1263 q 296 1150 295 1210 l 268 1150 q 250 1217 267 1198 q 185 1236 232 1236 q 120 1217 138 1236 q 101 1150 103 1198 l 74 1150 q 101 1236 75 1210 q 185 1263 126 1263 z "},"Ā":{"ha":367,"x_min":42,"x_max":325,"o":"m 42 0 l 140 1111 l 228 1111 l 229 1083 l 163 1083 l 125 639 l 104 400 l 229 400 l 222 372 l 101 372 l 69 0 l 42 0 m 297 0 l 242 640 l 206 1056 l 231 1056 l 325 0 l 297 0 m 83 1194 l 286 1194 l 286 1167 l 83 1167 l 83 1194 z "},"Ą":{"ha":367,"x_min":42,"x_max":379,"o":"m 42 0 l 140 1111 l 228 1111 l 229 1083 l 163 1083 l 125 639 l 104 400 l 229 400 l 222 372 l 101 372 l 69 0 l 42 0 m 297 0 l 242 640 l 206 1056 l 231 1056 l 325 0 l 297 0 m 379 -211 l 342 -211 q 286 -191 302 -211 q 276 -135 269 -171 l 293 -56 l 321 -56 l 304 -135 q 308 -173 299 -160 q 342 -186 317 -186 l 379 -186 l 379 -211 z "},"Å":{"ha":367,"x_min":42,"x_max":325,"o":"m 42 0 l 140 1111 l 228 1111 l 229 1083 l 163 1083 l 125 639 l 104 400 l 229 400 l 222 372 l 101 372 l 69 0 l 42 0 m 297 0 l 242 640 l 206 1056 l 231 1056 l 325 0 l 297 0 m 185 1164 q 140 1182 159 1164 q 121 1228 121 1201 q 140 1273 121 1254 q 185 1292 159 1292 q 230 1273 211 1292 q 249 1228 249 1254 q 230 1182 249 1201 q 185 1164 211 1164 m 185 1190 q 211 1201 201 1190 q 222 1228 222 1213 q 211 1255 222 1244 q 185 1265 201 1265 q 158 1255 169 1265 q 147 1228 147 1244 q 158 1201 147 1213 q 185 1190 169 1190 z "},"Ǻ":{"ha":367,"x_min":42,"x_max":325,"o":"m 42 0 l 140 1111 l 228 1111 l 229 1083 l 163 1083 l 125 639 l 104 400 l 229 400 l 222 372 l 101 372 l 69 0 l 42 0 m 297 0 l 242 640 l 206 1056 l 231 1056 l 325 0 l 297 0 m 185 1164 q 140 1182 159 1164 q 121 1228 121 1201 q 140 1273 121 1254 q 185 1292 159 1292 q 230 1273 211 1292 q 249 1228 249 1254 q 230 1182 249 1201 q 185 1164 211 1164 m 185 1190 q 211 1201 201 1190 q 222 1228 222 1213 q 211 1255 222 1244 q 185 1265 201 1265 q 158 1255 169 1265 q 147 1228 147 1244 q 158 1201 147 1213 q 185 1190 169 1190 m 169 1336 l 246 1474 l 275 1474 l 199 1336 l 169 1336 z "},"Ã":{"ha":367,"x_min":42,"x_max":325,"o":"m 42 0 l 140 1111 l 228 1111 l 229 1083 l 163 1083 l 125 639 l 104 400 l 229 400 l 222 372 l 101 372 l 69 0 l 42 0 m 297 0 l 242 640 l 206 1056 l 231 1056 l 325 0 l 297 0 m 282 1218 l 308 1218 q 286 1162 310 1184 q 227 1144 262 1140 q 195 1157 206 1147 q 174 1178 184 1167 q 147 1193 165 1188 q 111 1189 132 1197 q 88 1149 91 1181 l 61 1149 q 95 1211 65 1196 q 156 1219 126 1227 q 182 1208 172 1216 q 200 1192 192 1201 q 215 1177 207 1184 q 233 1169 222 1171 q 270 1182 256 1167 q 282 1218 283 1197 z "},"Æ":{"ha":503,"x_min":42,"x_max":468,"o":"m 42 0 l 196 1111 l 468 1111 l 468 1083 l 219 1083 l 157 640 l 124 400 l 207 400 l 199 372 l 121 372 l 69 0 l 42 0 m 331 0 l 331 28 l 468 28 l 468 0 l 331 0 m 247 0 l 247 1028 l 275 1028 l 275 0 l 247 0 m 331 542 l 331 569 l 454 569 l 454 542 l 331 542 z "},"Ǽ":{"ha":503,"x_min":42,"x_max":468,"o":"m 42 0 l 196 1111 l 468 1111 l 468 1083 l 219 1083 l 157 640 l 124 400 l 207 400 l 199 372 l 121 372 l 69 0 l 42 0 m 331 0 l 331 28 l 468 28 l 468 0 l 331 0 m 247 0 l 247 1028 l 275 1028 l 275 0 l 247 0 m 331 542 l 331 569 l 454 569 l 454 542 l 331 542 m 269 1167 l 346 1304 l 375 1304 l 299 1167 l 269 1167 z "},"B":{"ha":388,"x_min":83,"x_max":320,"o":"m 83 0 l 83 1111 l 111 1111 l 111 0 l 83 0 m 167 0 l 167 28 l 199 28 q 267 51 246 28 q 290 129 288 75 q 294 281 294 210 q 290 433 294 352 q 265 517 288 492 q 190 542 242 542 l 167 542 l 167 569 l 196 569 q 265 594 244 569 q 289 678 287 619 q 292 830 292 759 q 289 982 292 901 q 266 1060 287 1036 q 197 1083 244 1083 l 167 1083 l 167 1111 l 197 1111 q 287 1081 259 1111 q 317 982 315 1051 q 319 815 319 885 q 317 678 319 744 q 302 603 316 630 q 257 565 288 577 l 257 544 q 303 507 288 534 q 318 433 317 481 q 320 281 320 351 q 318 129 320 210 q 288 30 316 60 q 199 0 260 0 l 167 0 z "},"C":{"ha":381,"x_min":72,"x_max":323,"o":"m 169 -7 q 99 29 121 -1 q 76 121 78 59 q 73 347 74 241 q 72 555 72 453 q 73 762 72 656 q 76 988 74 868 q 99 1081 78 1051 q 169 1115 121 1110 l 169 1088 q 120 1060 134 1083 q 104 988 106 1038 q 101 762 102 868 q 100 555 100 656 q 101 347 100 453 q 104 121 102 241 q 120 49 106 72 q 169 21 134 26 l 169 -7 m 225 -6 l 225 22 q 277 50 262 27 q 293 121 292 74 q 294 211 294 166 q 293 301 294 256 q 292 392 292 347 l 319 392 q 322 256 322 319 q 321 121 323 194 q 297 31 319 61 q 225 -6 274 0 m 288 742 q 289 824 288 783 q 289 906 289 865 q 288 988 288 947 q 273 1058 287 1035 q 225 1086 259 1081 l 225 1115 q 292 1077 271 1108 q 315 988 314 1047 q 316 912 316 959 q 316 817 317 865 q 315 742 316 770 l 288 742 z "},"Ć":{"ha":381,"x_min":72,"x_max":323,"o":"m 169 -7 q 99 29 121 -1 q 76 121 78 59 q 73 347 74 241 q 72 555 72 453 q 73 762 72 656 q 76 988 74 868 q 99 1081 78 1051 q 169 1115 121 1110 l 169 1088 q 120 1060 134 1083 q 104 988 106 1038 q 101 762 102 868 q 100 555 100 656 q 101 347 100 453 q 104 121 102 241 q 120 49 106 72 q 169 21 134 26 l 169 -7 m 225 -6 l 225 22 q 277 50 262 27 q 293 121 292 74 q 294 211 294 166 q 293 301 294 256 q 292 392 292 347 l 319 392 q 322 256 322 319 q 321 121 323 194 q 297 31 319 61 q 225 -6 274 0 m 288 742 q 289 824 288 783 q 289 906 289 865 q 288 988 288 947 q 273 1058 287 1035 q 225 1086 259 1081 l 225 1115 q 292 1077 271 1108 q 315 988 314 1047 q 316 912 316 959 q 316 817 317 865 q 315 742 316 770 l 288 742 m 175 1167 l 251 1304 l 281 1304 l 204 1167 l 175 1167 z "},"Č":{"ha":381,"x_min":72,"x_max":323,"o":"m 169 -7 q 99 29 121 -1 q 76 121 78 59 q 73 347 74 241 q 72 555 72 453 q 73 762 72 656 q 76 988 74 868 q 99 1081 78 1051 q 169 1115 121 1110 l 169 1088 q 120 1060 134 1083 q 104 988 106 1038 q 101 762 102 868 q 100 555 100 656 q 101 347 100 453 q 104 121 102 241 q 120 49 106 72 q 169 21 134 26 l 169 -7 m 225 -6 l 225 22 q 277 50 262 27 q 293 121 292 74 q 294 211 294 166 q 293 301 294 256 q 292 392 292 347 l 319 392 q 322 256 322 319 q 321 121 323 194 q 297 31 319 61 q 225 -6 274 0 m 288 742 q 289 824 288 783 q 289 906 289 865 q 288 988 288 947 q 273 1058 287 1035 q 225 1086 259 1081 l 225 1115 q 292 1077 271 1108 q 315 988 314 1047 q 316 912 316 959 q 316 817 317 865 q 315 742 316 770 l 288 742 m 176 1167 l 100 1304 l 129 1304 l 192 1193 l 253 1304 l 282 1304 l 206 1167 l 176 1167 z "},"Ç":{"ha":381,"x_min":72,"x_max":323,"o":"m 169 -7 q 99 29 121 -1 q 76 121 78 59 q 73 347 74 241 q 72 555 72 453 q 73 762 72 656 q 76 988 74 868 q 99 1081 78 1051 q 169 1115 121 1110 l 169 1088 q 120 1060 134 1083 q 104 988 106 1038 q 101 762 102 868 q 100 555 100 656 q 101 347 100 453 q 104 121 102 241 q 120 49 106 72 q 169 21 134 26 l 169 -7 m 225 -6 l 225 22 q 277 50 262 27 q 293 121 292 74 q 294 211 294 166 q 293 301 294 256 q 292 392 292 347 l 319 392 q 322 256 322 319 q 321 121 323 194 q 297 31 319 61 q 225 -6 274 0 m 288 742 q 289 824 288 783 q 289 906 289 865 q 288 988 288 947 q 273 1058 287 1035 q 225 1086 259 1081 l 225 1115 q 292 1077 271 1108 q 315 988 314 1047 q 316 912 316 959 q 316 817 317 865 q 315 742 316 770 l 288 742 m 122 -183 l 122 -158 l 160 -158 q 194 -145 185 -158 q 197 -107 203 -133 l 181 -28 l 208 -28 l 225 -107 q 216 -163 233 -143 q 160 -183 199 -183 l 122 -183 z "},"Ḉ":{"ha":381,"x_min":72,"x_max":323,"o":"m 169 -7 q 99 29 121 -1 q 76 121 78 59 q 73 347 74 241 q 72 555 72 453 q 73 762 72 656 q 76 988 74 868 q 99 1081 78 1051 q 169 1115 121 1110 l 169 1088 q 120 1060 134 1083 q 104 988 106 1038 q 101 762 102 868 q 100 555 100 656 q 101 347 100 453 q 104 121 102 241 q 120 49 106 72 q 169 21 134 26 l 169 -7 m 225 -6 l 225 22 q 277 50 262 27 q 293 121 292 74 q 294 211 294 166 q 293 301 294 256 q 292 392 292 347 l 319 392 q 322 256 322 319 q 321 121 323 194 q 297 31 319 61 q 225 -6 274 0 m 288 742 q 289 824 288 783 q 289 906 289 865 q 288 988 288 947 q 273 1058 287 1035 q 225 1086 259 1081 l 225 1115 q 292 1077 271 1108 q 315 988 314 1047 q 316 912 316 959 q 316 817 317 865 q 315 742 316 770 l 288 742 m 122 -183 l 122 -158 l 160 -158 q 194 -145 185 -158 q 197 -107 203 -133 l 181 -28 l 208 -28 l 225 -107 q 216 -163 233 -143 q 160 -183 199 -183 l 122 -183 m 175 1167 l 251 1304 l 281 1304 l 204 1167 l 175 1167 z "},"Ĉ":{"ha":381,"x_min":72,"x_max":323,"o":"m 169 -7 q 99 29 121 -1 q 76 121 78 59 q 73 347 74 241 q 72 555 72 453 q 73 762 72 656 q 76 988 74 868 q 99 1081 78 1051 q 169 1115 121 1110 l 169 1088 q 120 1060 134 1083 q 104 988 106 1038 q 101 762 102 868 q 100 555 100 656 q 101 347 100 453 q 104 121 102 241 q 120 49 106 72 q 169 21 134 26 l 169 -7 m 225 -6 l 225 22 q 277 50 262 27 q 293 121 292 74 q 294 211 294 166 q 293 301 294 256 q 292 392 292 347 l 319 392 q 322 256 322 319 q 321 121 323 194 q 297 31 319 61 q 225 -6 274 0 m 288 742 q 289 824 288 783 q 289 906 289 865 q 288 988 288 947 q 273 1058 287 1035 q 225 1086 259 1081 l 225 1115 q 292 1077 271 1108 q 315 988 314 1047 q 316 912 316 959 q 316 817 317 865 q 315 742 316 770 l 288 742 m 100 1167 l 176 1304 l 206 1304 l 282 1167 l 250 1167 l 192 1275 l 132 1167 l 100 1167 z "},"Ċ":{"ha":381,"x_min":72,"x_max":323,"o":"m 169 -7 q 99 29 121 -1 q 76 121 78 59 q 73 347 74 241 q 72 555 72 453 q 73 762 72 656 q 76 988 74 868 q 99 1081 78 1051 q 169 1115 121 1110 l 169 1088 q 120 1060 134 1083 q 104 988 106 1038 q 101 762 102 868 q 100 555 100 656 q 101 347 100 453 q 104 121 102 241 q 120 49 106 72 q 169 21 134 26 l 169 -7 m 225 -6 l 225 22 q 277 50 262 27 q 293 121 292 74 q 294 211 294 166 q 293 301 294 256 q 292 392 292 347 l 319 392 q 322 256 322 319 q 321 121 323 194 q 297 31 319 61 q 225 -6 274 0 m 288 742 q 289 824 288 783 q 289 906 289 865 q 288 988 288 947 q 273 1058 287 1035 q 225 1086 259 1081 l 225 1115 q 292 1077 271 1108 q 315 988 314 1047 q 316 912 316 959 q 316 817 317 865 q 315 742 316 770 l 288 742 m 169 1167 l 169 1208 l 211 1208 l 211 1167 l 169 1167 z "},"D":{"ha":397,"x_min":83,"x_max":326,"o":"m 83 0 l 83 1111 l 111 1111 l 111 0 l 83 0 m 167 0 l 167 28 l 201 28 q 273 51 251 28 q 294 129 294 75 q 296 343 296 236 q 297 556 297 449 q 296 768 297 662 q 294 982 296 875 q 273 1060 294 1036 q 203 1083 252 1083 l 167 1083 l 167 1111 l 203 1111 q 293 1081 265 1111 q 322 982 322 1051 q 325 692 324 829 q 325 418 326 555 q 322 129 324 281 q 293 30 322 60 q 201 0 265 0 l 167 0 z "},"Ǆ":{"ha":724,"x_min":83,"x_max":696,"o":"m 83 0 l 83 1111 l 111 1111 l 111 0 l 83 0 m 167 0 l 167 28 l 201 28 q 273 51 251 28 q 294 129 294 75 q 296 343 296 236 q 297 556 297 449 q 296 768 297 662 q 294 982 296 875 q 273 1060 294 1036 q 203 1083 252 1083 l 167 1083 l 167 1111 l 203 1111 q 293 1081 265 1111 q 322 982 322 1051 q 325 692 324 829 q 325 418 326 555 q 322 129 324 281 q 293 30 322 60 q 201 0 265 0 l 167 0 m 419 0 l 419 28 l 668 28 l 668 0 l 419 0 m 435 1083 l 435 1111 l 696 1111 l 696 1083 l 435 1083 m 431 56 l 654 1056 l 685 1056 l 460 56 l 431 56 m 544 1167 l 468 1304 l 497 1304 l 560 1193 l 621 1304 l 650 1304 l 574 1167 l 544 1167 z "},"Ď":{"ha":397,"x_min":83,"x_max":326,"o":"m 83 0 l 83 1111 l 111 1111 l 111 0 l 83 0 m 167 0 l 167 28 l 201 28 q 273 51 251 28 q 294 129 294 75 q 296 343 296 236 q 297 556 297 449 q 296 768 297 662 q 294 982 296 875 q 273 1060 294 1036 q 203 1083 252 1083 l 167 1083 l 167 1111 l 203 1111 q 293 1081 265 1111 q 322 982 322 1051 q 325 692 324 829 q 325 418 326 555 q 322 129 324 281 q 293 30 322 60 q 201 0 265 0 l 167 0 m 176 1167 l 100 1304 l 129 1304 l 192 1193 l 253 1304 l 282 1304 l 206 1167 l 176 1167 z "},"Đ":{"ha":465,"x_min":83,"x_max":394,"o":"m 83 657 l 168 657 l 168 629 l 83 629 l 83 657 m 222 657 l 293 657 l 293 629 l 222 629 l 222 657 m 151 0 l 151 1111 l 179 1111 l 179 0 l 151 0 m 235 0 l 235 28 l 269 28 q 341 51 319 28 q 363 129 362 75 q 364 343 364 236 q 365 556 365 449 q 364 768 365 662 q 363 982 364 875 q 341 1060 362 1036 q 271 1083 320 1083 l 235 1083 l 235 1111 l 271 1111 q 361 1081 333 1111 q 390 982 390 1051 q 393 692 392 829 q 393 418 394 555 q 390 129 392 281 q 361 30 390 60 q 269 0 333 0 l 235 0 z "},"Ḍ":{"ha":397,"x_min":83,"x_max":326,"o":"m 83 0 l 83 1111 l 111 1111 l 111 0 l 83 0 m 167 0 l 167 28 l 201 28 q 273 51 251 28 q 294 129 294 75 q 296 343 296 236 q 297 556 297 449 q 296 768 297 662 q 294 982 296 875 q 273 1060 294 1036 q 203 1083 252 1083 l 167 1083 l 167 1111 l 203 1111 q 293 1081 265 1111 q 322 982 322 1051 q 325 692 324 829 q 325 418 326 555 q 322 129 324 281 q 293 30 322 60 q 201 0 265 0 l 167 0 m 181 -97 l 181 -56 l 222 -56 l 222 -97 l 181 -97 z "},"Ḏ":{"ha":397,"x_min":83,"x_max":326,"o":"m 83 0 l 83 1111 l 111 1111 l 111 0 l 83 0 m 167 0 l 167 28 l 201 28 q 273 51 251 28 q 294 129 294 75 q 296 343 296 236 q 297 556 297 449 q 296 768 297 662 q 294 982 296 875 q 273 1060 294 1036 q 203 1083 252 1083 l 167 1083 l 167 1111 l 203 1111 q 293 1081 265 1111 q 322 982 322 1051 q 325 692 324 829 q 325 418 326 555 q 322 129 324 281 q 293 30 322 60 q 201 0 265 0 l 167 0 m 100 -69 l 303 -69 l 303 -97 l 100 -97 l 100 -69 z "},"ǅ":{"ha":692,"x_min":83,"x_max":671,"o":"m 83 0 l 83 1111 l 111 1111 l 111 0 l 83 0 m 167 0 l 167 28 l 201 28 q 273 51 251 28 q 294 129 294 75 q 296 343 296 236 q 297 556 297 449 q 296 768 297 662 q 294 982 296 875 q 273 1060 294 1036 q 203 1083 252 1083 l 167 1083 l 167 1111 l 203 1111 q 293 1081 265 1111 q 322 982 322 1051 q 325 692 324 829 q 325 418 326 555 q 322 129 324 281 q 293 30 322 60 q 201 0 265 0 l 167 0 m 422 0 l 422 28 l 658 28 l 658 0 l 422 0 m 428 803 l 428 831 l 671 833 l 671 806 l 428 803 m 432 69 l 629 764 l 661 764 l 463 69 l 432 69 m 533 889 l 457 1026 l 486 1026 l 549 915 l 610 1026 l 639 1026 l 563 889 l 533 889 z "},"Ð":{"ha":465,"x_min":83,"x_max":394,"o":"m 83 657 l 168 657 l 168 629 l 83 629 l 83 657 m 222 657 l 293 657 l 293 629 l 222 629 l 222 657 m 151 0 l 151 1111 l 179 1111 l 179 0 l 151 0 m 235 0 l 235 28 l 269 28 q 341 51 319 28 q 363 129 362 75 q 364 343 364 236 q 365 556 365 449 q 364 768 365 662 q 363 982 364 875 q 341 1060 362 1036 q 271 1083 320 1083 l 235 1083 l 235 1111 l 271 1111 q 361 1081 333 1111 q 390 982 390 1051 q 393 692 392 829 q 393 418 394 555 q 390 129 392 281 q 361 30 390 60 q 269 0 333 0 l 235 0 z "},"E":{"ha":339,"x_min":83,"x_max":304,"o":"m 83 0 l 83 1111 l 111 1111 l 111 0 l 83 0 m 167 0 l 167 28 l 304 28 l 304 0 l 167 0 m 167 542 l 167 569 l 290 569 l 290 542 l 167 542 m 167 1083 l 167 1111 l 304 1111 l 304 1083 l 167 1083 z "},"É":{"ha":339,"x_min":83,"x_max":304,"o":"m 83 0 l 83 1111 l 111 1111 l 111 0 l 83 0 m 167 0 l 167 28 l 304 28 l 304 0 l 167 0 m 167 542 l 167 569 l 290 569 l 290 542 l 167 542 m 167 1083 l 167 1111 l 304 1111 l 304 1083 l 167 1083 m 172 1167 l 249 1304 l 278 1304 l 201 1167 l 172 1167 z "},"Ĕ":{"ha":339,"x_min":76,"x_max":304,"o":"m 83 0 l 83 1111 l 111 1111 l 111 0 l 83 0 m 167 0 l 167 28 l 304 28 l 304 0 l 167 0 m 167 542 l 167 569 l 290 569 l 290 542 l 167 542 m 167 1083 l 167 1111 l 304 1111 l 304 1083 l 167 1083 m 188 1164 q 103 1190 129 1164 q 76 1276 78 1216 l 104 1276 q 123 1209 106 1228 q 188 1190 141 1190 q 252 1209 235 1190 q 271 1276 270 1228 l 299 1276 q 272 1190 298 1216 q 188 1164 246 1164 z "},"Ě":{"ha":339,"x_min":83,"x_max":304,"o":"m 83 0 l 83 1111 l 111 1111 l 111 0 l 83 0 m 167 0 l 167 28 l 304 28 l 304 0 l 167 0 m 167 542 l 167 569 l 290 569 l 290 542 l 167 542 m 167 1083 l 167 1111 l 304 1111 l 304 1083 l 167 1083 m 174 1167 l 97 1304 l 126 1304 l 189 1193 l 250 1304 l 279 1304 l 203 1167 l 174 1167 z "},"Ḝ":{"ha":339,"x_min":76,"x_max":304,"o":"m 83 0 l 83 1111 l 111 1111 l 111 0 l 83 0 m 167 0 l 167 28 l 304 28 l 304 0 l 167 0 m 167 542 l 167 569 l 290 569 l 290 542 l 167 542 m 167 1083 l 167 1111 l 304 1111 l 304 1083 l 167 1083 m 188 1164 q 103 1190 129 1164 q 76 1276 78 1216 l 104 1276 q 123 1209 106 1228 q 188 1190 141 1190 q 252 1209 235 1190 q 271 1276 270 1228 l 299 1276 q 272 1190 298 1216 q 188 1164 246 1164 m 122 -183 l 122 -158 l 160 -158 q 194 -145 185 -158 q 197 -107 203 -133 l 181 -28 l 208 -28 l 225 -107 q 216 -163 233 -143 q 160 -183 199 -183 l 122 -183 z "},"Ê":{"ha":339,"x_min":83,"x_max":304,"o":"m 83 0 l 83 1111 l 111 1111 l 111 0 l 83 0 m 167 0 l 167 28 l 304 28 l 304 0 l 167 0 m 167 542 l 167 569 l 290 569 l 290 542 l 167 542 m 167 1083 l 167 1111 l 304 1111 l 304 1083 l 167 1083 m 97 1167 l 174 1304 l 203 1304 l 279 1167 l 247 1167 l 189 1275 l 129 1167 l 97 1167 z "},"Ế":{"ha":339,"x_min":83,"x_max":368,"o":"m 83 0 l 83 1111 l 111 1111 l 111 0 l 83 0 m 167 0 l 167 28 l 304 28 l 304 0 l 167 0 m 167 542 l 167 569 l 290 569 l 290 542 l 167 542 m 167 1083 l 167 1111 l 304 1111 l 304 1083 l 167 1083 m 97 1167 l 174 1304 l 203 1304 l 279 1167 l 247 1167 l 189 1275 l 129 1167 l 97 1167 m 263 1274 l 339 1412 l 368 1412 l 292 1274 l 263 1274 z "},"Ệ":{"ha":339,"x_min":83,"x_max":304,"o":"m 83 0 l 83 1111 l 111 1111 l 111 0 l 83 0 m 167 0 l 167 28 l 304 28 l 304 0 l 167 0 m 167 542 l 167 569 l 290 569 l 290 542 l 167 542 m 167 1083 l 167 1111 l 304 1111 l 304 1083 l 167 1083 m 167 -97 l 167 -56 l 208 -56 l 208 -97 l 167 -97 m 97 1167 l 174 1304 l 203 1304 l 279 1167 l 247 1167 l 189 1275 l 129 1167 l 97 1167 z "},"Ề":{"ha":339,"x_min":83,"x_max":326,"o":"m 83 0 l 83 1111 l 111 1111 l 111 0 l 83 0 m 167 0 l 167 28 l 304 28 l 304 0 l 167 0 m 167 542 l 167 569 l 290 569 l 290 542 l 167 542 m 167 1083 l 167 1111 l 304 1111 l 304 1083 l 167 1083 m 97 1167 l 174 1304 l 203 1304 l 279 1167 l 247 1167 l 189 1275 l 129 1167 l 97 1167 m 297 1274 l 221 1412 l 250 1412 l 326 1274 l 297 1274 z "},"Ể":{"ha":339,"x_min":83,"x_max":304,"o":"m 83 0 l 83 1111 l 111 1111 l 111 0 l 83 0 m 167 0 l 167 28 l 304 28 l 304 0 l 167 0 m 167 542 l 167 569 l 290 569 l 290 542 l 167 542 m 167 1083 l 167 1111 l 304 1111 l 304 1083 l 167 1083 m 97 1167 l 174 1304 l 203 1304 l 279 1167 l 247 1167 l 189 1275 l 129 1167 l 97 1167 m 241 1329 l 250 1374 q 247 1394 253 1388 q 224 1400 240 1400 l 196 1400 l 196 1422 l 224 1422 q 268 1411 255 1422 q 275 1374 281 1400 l 266 1329 l 241 1329 z "},"Ễ":{"ha":339,"x_min":64,"x_max":313,"o":"m 83 0 l 83 1111 l 111 1111 l 111 0 l 83 0 m 167 0 l 167 28 l 304 28 l 304 0 l 167 0 m 167 542 l 167 569 l 290 569 l 290 542 l 167 542 m 167 1083 l 167 1111 l 304 1111 l 304 1083 l 167 1083 m 97 1167 l 174 1304 l 203 1304 l 279 1167 l 247 1167 l 189 1275 l 129 1167 l 97 1167 m 285 1411 l 311 1411 q 289 1355 313 1377 q 230 1338 265 1333 q 198 1350 208 1340 q 177 1371 187 1360 q 150 1386 167 1381 q 114 1382 135 1390 q 90 1342 94 1374 l 64 1342 q 98 1405 68 1389 q 158 1413 128 1420 q 185 1401 174 1409 q 202 1385 195 1394 q 217 1370 210 1377 q 236 1363 225 1364 q 273 1375 259 1360 q 285 1411 286 1390 z "},"Ȅ":{"ha":339,"x_min":14,"x_max":304,"o":"m 83 0 l 83 1111 l 111 1111 l 111 0 l 83 0 m 167 0 l 167 28 l 304 28 l 304 0 l 167 0 m 167 542 l 167 569 l 290 569 l 290 542 l 167 542 m 167 1083 l 167 1111 l 304 1111 l 304 1083 l 167 1083 m 96 1167 l 14 1303 l 47 1303 l 129 1167 l 96 1167 m 207 1167 l 125 1303 l 158 1303 l 240 1167 l 207 1167 z "},"Ë":{"ha":339,"x_min":83,"x_max":304,"o":"m 83 0 l 83 1111 l 111 1111 l 111 0 l 83 0 m 167 0 l 167 28 l 304 28 l 304 0 l 167 0 m 167 542 l 167 569 l 290 569 l 290 542 l 167 542 m 167 1083 l 167 1111 l 304 1111 l 304 1083 l 167 1083 m 208 1167 l 208 1208 l 250 1208 l 250 1167 l 208 1167 m 125 1167 l 125 1208 l 167 1208 l 167 1167 l 125 1167 z "},"Ė":{"ha":339,"x_min":83,"x_max":304,"o":"m 83 0 l 83 1111 l 111 1111 l 111 0 l 83 0 m 167 0 l 167 28 l 304 28 l 304 0 l 167 0 m 167 542 l 167 569 l 290 569 l 290 542 l 167 542 m 167 1083 l 167 1111 l 304 1111 l 304 1083 l 167 1083 m 167 1167 l 167 1208 l 208 1208 l 208 1167 l 167 1167 z "},"Ẹ":{"ha":339,"x_min":83,"x_max":304,"o":"m 83 0 l 83 1111 l 111 1111 l 111 0 l 83 0 m 167 0 l 167 28 l 304 28 l 304 0 l 167 0 m 167 542 l 167 569 l 290 569 l 290 542 l 167 542 m 167 1083 l 167 1111 l 304 1111 l 304 1083 l 167 1083 m 167 -97 l 167 -56 l 208 -56 l 208 -97 l 167 -97 z "},"È":{"ha":339,"x_min":83,"x_max":304,"o":"m 83 0 l 83 1111 l 111 1111 l 111 0 l 83 0 m 167 0 l 167 28 l 304 28 l 304 0 l 167 0 m 167 542 l 167 569 l 290 569 l 290 542 l 167 542 m 167 1083 l 167 1111 l 304 1111 l 304 1083 l 167 1083 m 172 1167 l 96 1304 l 125 1304 l 201 1167 l 172 1167 z "},"Ẻ":{"ha":339,"x_min":83,"x_max":304,"o":"m 83 0 l 83 1111 l 111 1111 l 111 0 l 83 0 m 167 0 l 167 28 l 304 28 l 304 0 l 167 0 m 167 542 l 167 569 l 290 569 l 290 542 l 167 542 m 167 1083 l 167 1111 l 304 1111 l 304 1083 l 167 1083 m 177 1194 l 186 1239 q 183 1259 190 1253 q 160 1265 176 1265 l 132 1265 l 132 1288 l 160 1288 q 204 1276 191 1288 q 211 1239 217 1265 l 202 1194 l 177 1194 z "},"Ȇ":{"ha":339,"x_min":76,"x_max":304,"o":"m 83 0 l 83 1111 l 111 1111 l 111 0 l 83 0 m 167 0 l 167 28 l 304 28 l 304 0 l 167 0 m 167 542 l 167 569 l 290 569 l 290 542 l 167 542 m 167 1083 l 167 1111 l 304 1111 l 304 1083 l 167 1083 m 188 1263 q 272 1236 246 1263 q 299 1150 298 1210 l 271 1150 q 252 1217 270 1198 q 188 1236 235 1236 q 123 1217 141 1236 q 104 1150 106 1198 l 76 1150 q 103 1236 78 1210 q 188 1263 129 1263 z "},"Ē":{"ha":339,"x_min":83,"x_max":304,"o":"m 83 0 l 83 1111 l 111 1111 l 111 0 l 83 0 m 167 0 l 167 28 l 304 28 l 304 0 l 167 0 m 167 542 l 167 569 l 290 569 l 290 542 l 167 542 m 167 1083 l 167 1111 l 304 1111 l 304 1083 l 167 1083 m 86 1194 l 289 1194 l 289 1167 l 86 1167 l 86 1194 z "},"Ḗ":{"ha":339,"x_min":83,"x_max":304,"o":"m 83 0 l 83 1111 l 111 1111 l 111 0 l 83 0 m 167 0 l 167 28 l 304 28 l 304 0 l 167 0 m 167 542 l 167 569 l 290 569 l 290 542 l 167 542 m 167 1083 l 167 1111 l 304 1111 l 304 1083 l 167 1083 m 86 1194 l 289 1194 l 289 1167 l 86 1167 l 86 1194 m 172 1250 l 249 1388 l 278 1388 l 201 1250 l 172 1250 z "},"Ḕ":{"ha":339,"x_min":83,"x_max":304,"o":"m 83 0 l 83 1111 l 111 1111 l 111 0 l 83 0 m 167 0 l 167 28 l 304 28 l 304 0 l 167 0 m 167 542 l 167 569 l 290 569 l 290 542 l 167 542 m 167 1083 l 167 1111 l 304 1111 l 304 1083 l 167 1083 m 86 1194 l 289 1194 l 289 1167 l 86 1167 l 86 1194 m 172 1250 l 96 1388 l 125 1388 l 201 1250 l 172 1250 z "},"Ę":{"ha":339,"x_min":83,"x_max":310,"o":"m 83 0 l 83 1111 l 111 1111 l 111 0 l 83 0 m 167 0 l 167 28 l 304 28 l 304 0 l 167 0 m 167 542 l 167 569 l 290 569 l 290 542 l 167 542 m 167 1083 l 167 1111 l 304 1111 l 304 1083 l 167 1083 m 310 -211 l 272 -211 q 216 -191 233 -211 q 207 -135 200 -171 l 224 -56 l 251 -56 l 235 -135 q 239 -173 230 -160 q 272 -186 247 -186 l 310 -186 l 310 -211 z "},"Ẽ":{"ha":339,"x_min":64,"x_max":313,"o":"m 83 0 l 83 1111 l 111 1111 l 111 0 l 83 0 m 167 0 l 167 28 l 304 28 l 304 0 l 167 0 m 167 542 l 167 569 l 290 569 l 290 542 l 167 542 m 167 1083 l 167 1111 l 304 1111 l 304 1083 l 167 1083 m 285 1218 l 311 1218 q 289 1162 313 1184 q 230 1144 265 1140 q 198 1157 208 1147 q 177 1178 187 1167 q 150 1193 167 1188 q 114 1189 135 1197 q 90 1149 94 1181 l 64 1149 q 98 1211 68 1196 q 158 1219 128 1227 q 185 1208 174 1216 q 202 1192 195 1201 q 217 1177 210 1184 q 236 1169 225 1171 q 273 1182 259 1167 q 285 1218 286 1197 z "},"Ǝ":{"ha":339,"x_min":35,"x_max":256,"o":"m 256 0 l 228 0 l 228 1111 l 256 1111 l 256 0 m 172 0 l 35 0 l 35 28 l 172 28 l 172 0 m 172 542 l 49 542 l 49 569 l 172 569 l 172 542 m 172 1083 l 35 1083 l 35 1111 l 172 1111 l 172 1083 z "},"Ə":{"ha":403,"x_min":72,"x_max":331,"o":"m 74 121 q 73 350 73 246 q 74 567 73 453 l 247 567 l 247 539 l 101 539 q 100 402 101 469 q 100 267 100 336 q 101 121 101 199 q 120 51 103 75 q 175 21 137 27 l 175 -7 q 99 30 122 -1 q 74 121 75 60 m 231 -7 l 231 21 q 282 51 266 27 q 299 121 298 75 q 302 343 301 237 q 303 554 303 450 q 302 765 303 658 q 299 988 301 872 q 282 1057 298 1033 q 231 1088 266 1081 l 231 1115 q 303 1079 281 1109 q 326 988 326 1049 q 330 765 328 872 q 331 554 331 658 q 330 343 331 450 q 326 121 328 237 q 303 29 326 60 q 231 -7 281 -1 m 75 717 q 72 865 73 802 q 74 988 72 928 q 101 1080 76 1049 q 181 1115 126 1110 l 181 1088 q 121 1059 140 1083 q 101 988 103 1035 q 101 917 101 956 q 101 830 101 879 q 103 717 102 781 l 75 717 z "},"F":{"ha":332,"x_min":83,"x_max":304,"o":"m 83 0 l 83 1111 l 111 1111 l 111 0 l 83 0 m 153 542 l 153 569 l 290 569 l 290 542 l 153 542 m 153 1083 l 153 1111 l 304 1111 l 304 1083 l 153 1083 z "},"G":{"ha":378,"x_min":72,"x_max":321,"o":"m 167 -5 q 98 32 119 1 q 75 122 76 62 q 73 345 74 238 q 72 556 72 452 q 73 766 72 659 q 75 989 74 873 q 98 1080 76 1049 q 167 1117 119 1110 l 167 1088 q 119 1058 134 1082 q 103 989 104 1034 q 101 766 102 873 q 101 556 101 659 q 101 345 101 452 q 103 122 102 238 q 118 53 103 77 q 167 23 133 29 l 167 -5 m 222 -6 l 222 23 q 275 52 258 28 q 292 122 291 76 q 293 216 292 172 q 293 305 293 260 q 292 399 292 349 l 190 399 l 190 426 l 319 426 q 321 308 321 378 q 319 122 321 238 q 296 31 319 61 q 222 -6 273 0 m 286 743 q 288 866 288 809 q 286 989 288 924 q 270 1058 285 1034 q 222 1088 255 1082 l 222 1117 q 290 1080 269 1110 q 314 989 312 1049 q 316 866 316 924 q 314 743 316 809 l 286 743 z "},"Ğ":{"ha":378,"x_min":72,"x_max":321,"o":"m 167 -5 q 98 32 119 1 q 75 122 76 62 q 73 345 74 238 q 72 556 72 452 q 73 766 72 659 q 75 989 74 873 q 98 1080 76 1049 q 167 1117 119 1110 l 167 1088 q 119 1058 134 1082 q 103 989 104 1034 q 101 766 102 873 q 101 556 101 659 q 101 345 101 452 q 103 122 102 238 q 118 53 103 77 q 167 23 133 29 l 167 -5 m 222 -6 l 222 23 q 275 52 258 28 q 292 122 291 76 q 293 216 292 172 q 293 305 293 260 q 292 399 292 349 l 190 399 l 190 426 l 319 426 q 321 308 321 378 q 319 122 321 238 q 296 31 319 61 q 222 -6 273 0 m 286 743 q 288 866 288 809 q 286 989 288 924 q 270 1058 285 1034 q 222 1088 255 1082 l 222 1117 q 290 1080 269 1110 q 314 989 312 1049 q 316 866 316 924 q 314 743 316 809 l 286 743 m 190 1164 q 106 1190 132 1164 q 79 1276 81 1216 l 107 1276 q 126 1209 108 1228 q 190 1190 144 1190 q 255 1209 238 1190 q 274 1276 273 1228 l 301 1276 q 275 1190 301 1216 q 190 1164 249 1164 z "},"Ǧ":{"ha":378,"x_min":72,"x_max":321,"o":"m 167 -5 q 98 32 119 1 q 75 122 76 62 q 73 345 74 238 q 72 556 72 452 q 73 766 72 659 q 75 989 74 873 q 98 1080 76 1049 q 167 1117 119 1110 l 167 1088 q 119 1058 134 1082 q 103 989 104 1034 q 101 766 102 873 q 101 556 101 659 q 101 345 101 452 q 103 122 102 238 q 118 53 103 77 q 167 23 133 29 l 167 -5 m 222 -6 l 222 23 q 275 52 258 28 q 292 122 291 76 q 293 216 292 172 q 293 305 293 260 q 292 399 292 349 l 190 399 l 190 426 l 319 426 q 321 308 321 378 q 319 122 321 238 q 296 31 319 61 q 222 -6 273 0 m 286 743 q 288 866 288 809 q 286 989 288 924 q 270 1058 285 1034 q 222 1088 255 1082 l 222 1117 q 290 1080 269 1110 q 314 989 312 1049 q 316 866 316 924 q 314 743 316 809 l 286 743 m 176 1167 l 100 1304 l 129 1304 l 192 1193 l 253 1304 l 282 1304 l 206 1167 l 176 1167 z "},"Ĝ":{"ha":378,"x_min":72,"x_max":321,"o":"m 167 -5 q 98 32 119 1 q 75 122 76 62 q 73 345 74 238 q 72 556 72 452 q 73 766 72 659 q 75 989 74 873 q 98 1080 76 1049 q 167 1117 119 1110 l 167 1088 q 119 1058 134 1082 q 103 989 104 1034 q 101 766 102 873 q 101 556 101 659 q 101 345 101 452 q 103 122 102 238 q 118 53 103 77 q 167 23 133 29 l 167 -5 m 222 -6 l 222 23 q 275 52 258 28 q 292 122 291 76 q 293 216 292 172 q 293 305 293 260 q 292 399 292 349 l 190 399 l 190 426 l 319 426 q 321 308 321 378 q 319 122 321 238 q 296 31 319 61 q 222 -6 273 0 m 286 743 q 288 866 288 809 q 286 989 288 924 q 270 1058 285 1034 q 222 1088 255 1082 l 222 1117 q 290 1080 269 1110 q 314 989 312 1049 q 316 866 316 924 q 314 743 316 809 l 286 743 m 100 1167 l 176 1304 l 206 1304 l 282 1167 l 250 1167 l 192 1275 l 132 1167 l 100 1167 z "},"Ģ":{"ha":378,"x_min":72,"x_max":321,"o":"m 167 -5 q 98 32 119 1 q 75 122 76 62 q 73 345 74 238 q 72 556 72 452 q 73 766 72 659 q 75 989 74 873 q 98 1080 76 1049 q 167 1117 119 1110 l 167 1088 q 119 1058 134 1082 q 103 989 104 1034 q 101 766 102 873 q 101 556 101 659 q 101 345 101 452 q 103 122 102 238 q 118 53 103 77 q 167 23 133 29 l 167 -5 m 222 -6 l 222 23 q 275 52 258 28 q 292 122 291 76 q 293 216 292 172 q 293 305 293 260 q 292 399 292 349 l 190 399 l 190 426 l 319 426 q 321 308 321 378 q 319 122 321 238 q 296 31 319 61 q 222 -6 273 0 m 286 743 q 288 866 288 809 q 286 989 288 924 q 270 1058 285 1034 q 222 1088 255 1082 l 222 1117 q 290 1080 269 1110 q 314 989 312 1049 q 316 866 316 924 q 314 743 316 809 l 286 743 m 168 -200 l 196 -125 l 158 -125 l 158 -56 l 228 -56 l 228 -117 l 199 -200 l 168 -200 z "},"Ġ":{"ha":378,"x_min":72,"x_max":321,"o":"m 167 -5 q 98 32 119 1 q 75 122 76 62 q 73 345 74 238 q 72 556 72 452 q 73 766 72 659 q 75 989 74 873 q 98 1080 76 1049 q 167 1117 119 1110 l 167 1088 q 119 1058 134 1082 q 103 989 104 1034 q 101 766 102 873 q 101 556 101 659 q 101 345 101 452 q 103 122 102 238 q 118 53 103 77 q 167 23 133 29 l 167 -5 m 222 -6 l 222 23 q 275 52 258 28 q 292 122 291 76 q 293 216 292 172 q 293 305 293 260 q 292 399 292 349 l 190 399 l 190 426 l 319 426 q 321 308 321 378 q 319 122 321 238 q 296 31 319 61 q 222 -6 273 0 m 286 743 q 288 866 288 809 q 286 989 288 924 q 270 1058 285 1034 q 222 1088 255 1082 l 222 1117 q 290 1080 269 1110 q 314 989 312 1049 q 316 866 316 924 q 314 743 316 809 l 286 743 m 169 1167 l 169 1208 l 211 1208 l 211 1167 l 169 1167 z "},"Ḡ":{"ha":378,"x_min":72,"x_max":321,"o":"m 167 -5 q 98 32 119 1 q 75 122 76 62 q 73 345 74 238 q 72 556 72 452 q 73 766 72 659 q 75 989 74 873 q 98 1080 76 1049 q 167 1117 119 1110 l 167 1088 q 119 1058 134 1082 q 103 989 104 1034 q 101 766 102 873 q 101 556 101 659 q 101 345 101 452 q 103 122 102 238 q 118 53 103 77 q 167 23 133 29 l 167 -5 m 222 -6 l 222 23 q 275 52 258 28 q 292 122 291 76 q 293 216 292 172 q 293 305 293 260 q 292 399 292 349 l 190 399 l 190 426 l 319 426 q 321 308 321 378 q 319 122 321 238 q 296 31 319 61 q 222 -6 273 0 m 286 743 q 288 866 288 809 q 286 989 288 924 q 270 1058 285 1034 q 222 1088 255 1082 l 222 1117 q 290 1080 269 1110 q 314 989 312 1049 q 316 866 316 924 q 314 743 316 809 l 286 743 m 89 1194 l 292 1194 l 292 1167 l 89 1167 l 89 1194 z "},"H":{"ha":417,"x_min":83,"x_max":333,"o":"m 83 0 l 83 1111 l 111 1111 l 111 0 l 83 0 m 99 542 l 99 569 l 264 569 l 257 542 l 99 542 m 306 0 l 306 1111 l 333 1111 l 333 0 l 306 0 z "},"Ħ":{"ha":389,"x_min":10,"x_max":378,"o":"m 10 833 l 80 833 l 80 806 l 10 806 l 10 833 m 155 833 l 378 833 l 378 806 l 155 806 l 155 833 m 70 0 l 70 1111 l 98 1111 l 98 0 l 70 0 m 85 542 l 85 569 l 251 569 l 244 542 l 85 542 m 292 0 l 292 1111 l 320 1111 l 320 0 l 292 0 z "},"Ḫ":{"ha":417,"x_min":83,"x_max":333,"o":"m 83 0 l 83 1111 l 111 1111 l 111 0 l 83 0 m 99 542 l 99 569 l 264 569 l 257 542 l 99 542 m 306 0 l 306 1111 l 333 1111 l 333 0 l 306 0 m 208 -169 q 124 -143 150 -169 q 97 -57 99 -117 l 125 -57 q 144 -124 126 -105 q 208 -143 162 -143 q 273 -124 256 -143 q 292 -57 291 -105 l 319 -57 q 293 -143 319 -117 q 208 -169 267 -169 z "},"Ĥ":{"ha":417,"x_min":83,"x_max":333,"o":"m 83 0 l 83 1111 l 111 1111 l 111 0 l 83 0 m 99 542 l 99 569 l 264 569 l 257 542 l 99 542 m 306 0 l 306 1111 l 333 1111 l 333 0 l 306 0 m 118 1167 l 194 1304 l 224 1304 l 300 1167 l 268 1167 l 210 1275 l 150 1167 l 118 1167 z "},"Ḥ":{"ha":417,"x_min":83,"x_max":333,"o":"m 83 0 l 83 1111 l 111 1111 l 111 0 l 83 0 m 99 542 l 99 569 l 264 569 l 257 542 l 99 542 m 306 0 l 306 1111 l 333 1111 l 333 0 l 306 0 m 188 -97 l 188 -56 l 229 -56 l 229 -97 l 188 -97 z "},"I":{"ha":194,"x_min":83,"x_max":111,"o":"m 83 0 l 83 1111 l 111 1111 l 111 0 l 83 0 z "},"Í":{"ha":194,"x_min":82,"x_max":188,"o":"m 83 0 l 83 1111 l 111 1111 l 111 0 l 83 0 m 82 1167 l 158 1304 l 188 1304 l 111 1167 l 82 1167 z "},"Ĭ":{"ha":194,"x_min":-14,"x_max":208,"o":"m 83 0 l 83 1111 l 111 1111 l 111 0 l 83 0 m 97 1164 q 13 1190 39 1164 q -14 1276 -12 1216 l 14 1276 q 33 1209 15 1228 q 97 1190 51 1190 q 162 1209 144 1190 q 181 1276 180 1228 l 208 1276 q 182 1190 208 1216 q 97 1164 156 1164 z "},"Ǐ":{"ha":194,"x_min":7,"x_max":189,"o":"m 83 0 l 83 1111 l 111 1111 l 111 0 l 83 0 m 83 1167 l 7 1304 l 36 1304 l 99 1193 l 160 1304 l 189 1304 l 113 1167 l 83 1167 z "},"Î":{"ha":194,"x_min":7,"x_max":189,"o":"m 83 0 l 83 1111 l 111 1111 l 111 0 l 83 0 m 7 1167 l 83 1304 l 113 1304 l 189 1167 l 157 1167 l 99 1275 l 39 1167 l 7 1167 z "},"Ȉ":{"ha":194,"x_min":-76,"x_max":150,"o":"m 83 0 l 83 1111 l 111 1111 l 111 0 l 83 0 m 6 1167 l -76 1303 l -43 1303 l 39 1167 l 6 1167 m 117 1167 l 35 1303 l 68 1303 l 150 1167 l 117 1167 z "},"Ï":{"ha":194,"x_min":35,"x_max":160,"o":"m 83 0 l 83 1111 l 111 1111 l 111 0 l 83 0 m 118 1167 l 118 1208 l 160 1208 l 160 1167 l 118 1167 m 35 1167 l 35 1208 l 76 1208 l 76 1167 l 35 1167 z "},"Ḯ":{"ha":194,"x_min":35,"x_max":188,"o":"m 83 0 l 83 1111 l 111 1111 l 111 0 l 83 0 m 118 1167 l 118 1208 l 160 1208 l 160 1167 l 118 1167 m 35 1167 l 35 1208 l 76 1208 l 76 1167 l 35 1167 m 82 1264 l 158 1401 l 188 1401 l 111 1264 l 82 1264 z "},"İ":{"ha":194,"x_min":76,"x_max":118,"o":"m 83 0 l 83 1111 l 111 1111 l 111 0 l 83 0 m 76 1167 l 76 1208 l 118 1208 l 118 1167 l 76 1167 z "},"Ị":{"ha":194,"x_min":76,"x_max":118,"o":"m 83 0 l 83 1111 l 111 1111 l 111 0 l 83 0 m 76 -97 l 76 -56 l 118 -56 l 118 -97 l 76 -97 z "},"Ì":{"ha":194,"x_min":6,"x_max":111,"o":"m 83 0 l 83 1111 l 111 1111 l 111 0 l 83 0 m 82 1167 l 6 1304 l 35 1304 l 111 1167 l 82 1167 z "},"Ỉ":{"ha":194,"x_min":42,"x_max":126,"o":"m 83 0 l 83 1111 l 111 1111 l 111 0 l 83 0 m 87 1194 l 96 1239 q 93 1259 99 1253 q 69 1265 86 1265 l 42 1265 l 42 1288 l 69 1288 q 114 1276 101 1288 q 121 1239 126 1265 l 112 1194 l 87 1194 z "},"Ȋ":{"ha":194,"x_min":-14,"x_max":208,"o":"m 83 0 l 83 1111 l 111 1111 l 111 0 l 83 0 m 97 1263 q 182 1236 156 1263 q 208 1150 208 1210 l 181 1150 q 162 1217 180 1198 q 97 1236 144 1236 q 33 1217 51 1236 q 14 1150 15 1198 l -14 1150 q 13 1236 -12 1210 q 97 1263 39 1263 z "},"Ī":{"ha":194,"x_min":-4,"x_max":199,"o":"m 83 0 l 83 1111 l 111 1111 l 111 0 l 83 0 m -4 1194 l 199 1194 l 199 1167 l -4 1167 l -4 1194 z "},"Į":{"ha":194,"x_min":61,"x_max":171,"o":"m 83 0 l 83 1111 l 111 1111 l 111 0 l 83 0 m 171 -211 l 133 -211 q 77 -191 94 -211 q 68 -135 61 -171 l 85 -56 l 113 -56 l 96 -135 q 100 -173 91 -160 q 133 -186 108 -186 l 171 -186 l 171 -211 z "},"Ĩ":{"ha":194,"x_min":-26,"x_max":223,"o":"m 83 0 l 83 1111 l 111 1111 l 111 0 l 83 0 m 194 1218 l 221 1218 q 199 1162 223 1184 q 140 1144 174 1140 q 107 1157 118 1147 q 87 1178 97 1167 q 60 1193 77 1188 q 24 1189 44 1197 q 0 1149 3 1181 l -26 1149 q 8 1211 -22 1196 q 68 1219 38 1227 q 94 1208 84 1216 q 112 1192 105 1201 q 127 1177 119 1184 q 146 1169 135 1171 q 182 1182 169 1167 q 194 1218 196 1197 z "},"J":{"ha":358,"x_min":43,"x_max":287,"o":"m 140 -6 q 68 31 90 0 q 45 122 47 61 q 43 258 43 195 q 45 393 43 320 l 73 393 q 71 303 72 348 q 71 213 71 258 q 73 122 72 167 q 89 52 74 76 q 140 23 104 28 l 140 -6 m 195 -6 l 195 23 q 244 53 229 29 q 259 122 259 76 l 259 1111 l 287 1111 l 287 122 q 265 31 287 61 q 195 -6 244 1 z "},"Ĵ":{"ha":358,"x_min":43,"x_max":292,"o":"m 140 -6 q 68 31 90 0 q 45 122 47 61 q 43 258 43 195 q 45 393 43 320 l 73 393 q 71 303 72 348 q 71 213 71 258 q 73 122 72 167 q 89 52 74 76 q 140 23 104 28 l 140 -6 m 195 -6 l 195 23 q 244 53 229 29 q 259 122 259 76 l 259 1111 l 287 1111 l 287 122 q 265 31 287 61 q 195 -6 244 1 m 110 1167 l 187 1304 l 216 1304 l 292 1167 l 260 1167 l 202 1275 l 142 1167 l 110 1167 z "},"K":{"ha":362,"x_min":83,"x_max":344,"o":"m 83 0 l 83 549 l 126 549 l 226 890 l 292 1111 l 322 1111 l 111 388 l 111 0 l 83 0 m 313 0 l 172 479 l 188 524 l 344 0 l 313 0 m 83 576 l 83 1111 l 111 1111 l 111 886 l 111 576 l 83 576 z "},"Ķ":{"ha":362,"x_min":83,"x_max":344,"o":"m 83 0 l 83 549 l 126 549 l 226 890 l 292 1111 l 322 1111 l 111 388 l 111 0 l 83 0 m 313 0 l 172 479 l 188 524 l 344 0 l 313 0 m 83 576 l 83 1111 l 111 1111 l 111 886 l 111 576 l 83 576 m 185 -200 l 213 -125 l 175 -125 l 175 -56 l 244 -56 l 244 -117 l 215 -200 l 185 -200 z "},"L":{"ha":313,"x_min":83,"x_max":304,"o":"m 83 0 l 83 1111 l 111 1111 l 111 0 l 83 0 m 167 0 l 167 28 l 304 28 l 304 0 l 167 0 z "},"Ǉ":{"ha":670,"x_min":83,"x_max":599,"o":"m 83 0 l 83 1111 l 111 1111 l 111 0 l 83 0 m 167 0 l 167 28 l 304 28 l 304 0 l 167 0 m 452 -6 q 381 31 403 0 q 358 122 359 61 q 356 258 356 195 q 358 393 356 320 l 385 393 q 384 303 384 348 q 384 213 383 258 q 385 122 384 167 q 402 52 387 76 q 452 23 417 28 l 452 -6 m 508 -6 l 508 23 q 557 53 542 29 q 572 122 572 76 l 572 1111 l 599 1111 l 599 122 q 578 31 599 61 q 508 -6 556 1 z "},"Ĺ":{"ha":313,"x_min":83,"x_max":304,"o":"m 83 0 l 83 1111 l 111 1111 l 111 0 l 83 0 m 167 0 l 167 28 l 304 28 l 304 0 l 167 0 m 158 1167 l 235 1304 l 264 1304 l 188 1167 l 158 1167 z "},"Ľ":{"ha":313,"x_min":83,"x_max":304,"o":"m 83 0 l 83 1111 l 111 1111 l 111 0 l 83 0 m 167 0 l 167 28 l 304 28 l 304 0 l 167 0 m 176 974 l 197 1112 l 226 1112 l 205 974 l 176 974 z "},"Ļ":{"ha":313,"x_min":83,"x_max":304,"o":"m 83 0 l 83 1111 l 111 1111 l 111 0 l 83 0 m 167 0 l 167 28 l 304 28 l 304 0 l 167 0 m 174 -200 l 201 -125 l 164 -125 l 164 -56 l 233 -56 l 233 -117 l 204 -200 l 174 -200 z "},"Ŀ":{"ha":313,"x_min":83,"x_max":304,"o":"m 83 0 l 83 1111 l 111 1111 l 111 0 l 83 0 m 167 0 l 167 28 l 304 28 l 304 0 l 167 0 m 249 540 l 249 581 l 290 581 l 290 540 l 249 540 z "},"Ḷ":{"ha":313,"x_min":83,"x_max":304,"o":"m 83 0 l 83 1111 l 111 1111 l 111 0 l 83 0 m 167 0 l 167 28 l 304 28 l 304 0 l 167 0 m 175 -97 l 175 -56 l 217 -56 l 217 -97 l 175 -97 z "},"ǈ":{"ha":550,"x_min":83,"x_max":467,"o":"m 83 0 l 83 1111 l 111 1111 l 111 0 l 83 0 m 167 0 l 167 28 l 304 28 l 304 0 l 167 0 m 356 1025 l 356 1111 l 467 1111 l 467 1025 l 356 1025 m 310 -278 q 272 -276 294 -278 q 236 -271 250 -274 l 236 -244 q 268 -249 251 -247 q 307 -250 285 -250 q 376 -230 357 -250 q 394 -153 394 -210 l 394 833 l 422 833 l 422 -153 q 397 -249 422 -219 q 310 -278 372 -278 z "},"Ḻ":{"ha":313,"x_min":83,"x_max":304,"o":"m 83 0 l 83 1111 l 111 1111 l 111 0 l 83 0 m 167 0 l 167 28 l 304 28 l 304 0 l 167 0 m 94 -69 l 297 -69 l 297 -97 l 94 -97 l 94 -69 z "},"Ł":{"ha":368,"x_min":83,"x_max":360,"o":"m 83 278 l 143 574 l 161 665 l 194 833 l 222 833 l 163 538 l 143 440 l 111 278 l 83 278 m 139 0 l 139 1111 l 167 1111 l 167 0 l 139 0 m 222 0 l 222 28 l 360 28 l 360 0 l 222 0 z "},"M":{"ha":565,"x_min":83,"x_max":482,"o":"m 249 7 l 218 314 l 136 1083 l 83 1083 l 83 1111 l 161 1111 l 214 638 l 274 35 l 292 35 l 351 638 l 404 1111 l 482 1111 l 482 1083 l 429 1083 l 347 314 l 317 7 l 249 7 m 83 0 l 83 1042 l 111 1042 l 111 317 l 111 0 l 83 0 m 454 0 l 454 310 l 454 1042 l 482 1042 l 482 0 l 454 0 z "},"Ṃ":{"ha":565,"x_min":83,"x_max":482,"o":"m 249 7 l 218 314 l 136 1083 l 83 1083 l 83 1111 l 161 1111 l 214 638 l 274 35 l 292 35 l 351 638 l 404 1111 l 482 1111 l 482 1083 l 429 1083 l 347 314 l 317 7 l 249 7 m 83 0 l 83 1042 l 111 1042 l 111 317 l 111 0 l 83 0 m 454 0 l 454 310 l 454 1042 l 482 1042 l 482 0 l 454 0 m 263 -97 l 263 -56 l 304 -56 l 304 -97 l 263 -97 z "},"N":{"ha":451,"x_min":83,"x_max":368,"o":"m 290 0 l 231 417 l 136 1083 l 83 1083 l 83 1111 l 160 1111 l 210 761 l 315 28 l 368 28 l 368 0 l 290 0 m 83 0 l 83 1042 l 111 1042 l 111 413 l 111 0 l 83 0 m 340 69 l 340 767 l 340 1111 l 368 1111 l 368 69 l 340 69 z "},"Ǌ":{"ha":809,"x_min":83,"x_max":738,"o":"m 290 0 l 231 417 l 136 1083 l 83 1083 l 83 1111 l 160 1111 l 210 761 l 315 28 l 368 28 l 368 0 l 290 0 m 83 0 l 83 1042 l 111 1042 l 111 413 l 111 0 l 83 0 m 340 69 l 340 767 l 340 1111 l 368 1111 l 368 69 l 340 69 m 591 -6 q 520 31 542 0 q 497 122 498 61 q 494 258 494 195 q 497 393 494 320 l 524 393 q 523 303 523 348 q 523 213 522 258 q 524 122 523 167 q 541 52 526 76 q 591 23 556 28 l 591 -6 m 647 -6 l 647 23 q 695 53 681 29 q 710 122 710 76 l 710 1111 l 738 1111 l 738 122 q 717 31 738 61 q 647 -6 695 1 z "},"Ń":{"ha":451,"x_min":83,"x_max":368,"o":"m 290 0 l 231 417 l 136 1083 l 83 1083 l 83 1111 l 160 1111 l 210 761 l 315 28 l 368 28 l 368 0 l 290 0 m 83 0 l 83 1042 l 111 1042 l 111 413 l 111 0 l 83 0 m 340 69 l 340 767 l 340 1111 l 368 1111 l 368 69 l 340 69 m 218 1167 l 294 1304 l 324 1304 l 247 1167 l 218 1167 z "},"Ň":{"ha":451,"x_min":83,"x_max":368,"o":"m 290 0 l 231 417 l 136 1083 l 83 1083 l 83 1111 l 160 1111 l 210 761 l 315 28 l 368 28 l 368 0 l 290 0 m 83 0 l 83 1042 l 111 1042 l 111 413 l 111 0 l 83 0 m 340 69 l 340 767 l 340 1111 l 368 1111 l 368 69 l 340 69 m 219 1167 l 143 1304 l 172 1304 l 235 1193 l 296 1304 l 325 1304 l 249 1167 l 219 1167 z "},"Ņ":{"ha":451,"x_min":83,"x_max":368,"o":"m 290 0 l 231 417 l 136 1083 l 83 1083 l 83 1111 l 160 1111 l 210 761 l 315 28 l 368 28 l 368 0 l 290 0 m 83 0 l 83 1042 l 111 1042 l 111 413 l 111 0 l 83 0 m 340 69 l 340 767 l 340 1111 l 368 1111 l 368 69 l 340 69 m 201 -200 l 229 -125 l 192 -125 l 192 -56 l 261 -56 l 261 -117 l 232 -200 l 201 -200 z "},"Ṅ":{"ha":451,"x_min":83,"x_max":368,"o":"m 290 0 l 231 417 l 136 1083 l 83 1083 l 83 1111 l 160 1111 l 210 761 l 315 28 l 368 28 l 368 0 l 290 0 m 83 0 l 83 1042 l 111 1042 l 111 413 l 111 0 l 83 0 m 340 69 l 340 767 l 340 1111 l 368 1111 l 368 69 l 340 69 m 213 1167 l 213 1208 l 254 1208 l 254 1167 l 213 1167 z "},"Ṇ":{"ha":451,"x_min":83,"x_max":368,"o":"m 290 0 l 231 417 l 136 1083 l 83 1083 l 83 1111 l 160 1111 l 210 761 l 315 28 l 368 28 l 368 0 l 290 0 m 83 0 l 83 1042 l 111 1042 l 111 413 l 111 0 l 83 0 m 340 69 l 340 767 l 340 1111 l 368 1111 l 368 69 l 340 69 m 203 -97 l 203 -56 l 244 -56 l 244 -97 l 203 -97 z "},"ǋ":{"ha":689,"x_min":83,"x_max":606,"o":"m 290 0 l 231 417 l 136 1083 l 83 1083 l 83 1111 l 160 1111 l 210 761 l 315 28 l 368 28 l 368 0 l 290 0 m 83 0 l 83 1042 l 111 1042 l 111 413 l 111 0 l 83 0 m 340 69 l 340 767 l 340 1111 l 368 1111 l 368 69 l 340 69 m 494 1025 l 494 1111 l 606 1111 l 606 1025 l 494 1025 m 449 -278 q 411 -276 433 -278 q 375 -271 389 -274 l 375 -244 q 407 -249 390 -247 q 446 -250 424 -250 q 515 -230 496 -250 q 533 -153 533 -210 l 533 833 l 561 833 l 561 -153 q 536 -249 561 -219 q 449 -278 511 -278 z "},"Ṉ":{"ha":451,"x_min":83,"x_max":368,"o":"m 290 0 l 231 417 l 136 1083 l 83 1083 l 83 1111 l 160 1111 l 210 761 l 315 28 l 368 28 l 368 0 l 290 0 m 83 0 l 83 1042 l 111 1042 l 111 413 l 111 0 l 83 0 m 340 69 l 340 767 l 340 1111 l 368 1111 l 368 69 l 340 69 m 122 -69 l 325 -69 l 325 -97 l 122 -97 l 122 -69 z "},"Ñ":{"ha":451,"x_min":83,"x_max":368,"o":"m 290 0 l 231 417 l 136 1083 l 83 1083 l 83 1111 l 160 1111 l 210 761 l 315 28 l 368 28 l 368 0 l 290 0 m 83 0 l 83 1042 l 111 1042 l 111 413 l 111 0 l 83 0 m 340 69 l 340 767 l 340 1111 l 368 1111 l 368 69 l 340 69 m 331 1218 l 357 1218 q 335 1162 359 1184 q 276 1144 310 1140 q 243 1157 254 1147 q 223 1178 233 1167 q 196 1193 213 1188 q 160 1189 181 1197 q 136 1149 140 1181 l 110 1149 q 144 1211 114 1196 q 204 1219 174 1227 q 231 1208 220 1216 q 248 1192 241 1201 q 263 1177 256 1184 q 282 1169 271 1171 q 318 1182 305 1167 q 331 1218 332 1197 z "},"Ŋ":{"ha":451,"x_min":83,"x_max":368,"o":"m 256 -278 q 218 -276 240 -278 q 182 -271 196 -274 l 182 -244 q 214 -249 197 -247 q 253 -250 231 -250 q 322 -230 303 -250 q 340 -153 340 -210 l 340 15 l 368 15 l 368 -153 q 343 -249 368 -219 q 256 -278 318 -278 m 290 0 l 231 417 l 136 1083 l 83 1083 l 83 1111 l 160 1111 l 210 761 l 315 28 l 368 28 l 368 0 l 290 0 m 83 0 l 83 1042 l 111 1042 l 111 413 l 111 0 l 83 0 m 340 69 l 340 767 l 340 1111 l 368 1111 l 368 69 l 340 69 z "},"O":{"ha":395,"x_min":72,"x_max":323,"o":"m 169 -6 q 99 30 120 1 q 76 118 78 59 q 73 343 74 235 q 72 555 72 450 q 73 767 72 660 q 76 992 74 874 q 99 1081 78 1051 q 169 1117 120 1110 l 169 1089 q 119 1062 133 1084 q 103 992 104 1040 q 99 771 100 877 q 98 560 98 665 q 99 346 98 455 q 103 118 101 238 q 119 50 104 72 q 169 22 133 28 l 169 -6 m 225 -6 l 225 22 q 276 50 261 28 q 292 118 291 72 q 295 346 294 238 q 296 560 296 455 q 294 771 296 665 q 292 992 293 877 q 276 1061 291 1040 q 225 1089 260 1083 l 225 1117 q 299 1082 276 1112 q 321 992 321 1052 q 323 767 322 874 q 323 555 323 660 q 323 343 323 450 q 321 118 322 235 q 299 30 321 59 q 225 -6 276 0 z "},"Ó":{"ha":395,"x_min":72,"x_max":323,"o":"m 169 -6 q 99 30 120 1 q 76 118 78 59 q 73 343 74 235 q 72 555 72 450 q 73 767 72 660 q 76 992 74 874 q 99 1081 78 1051 q 169 1117 120 1110 l 169 1089 q 119 1062 133 1084 q 103 992 104 1040 q 99 771 100 877 q 98 560 98 665 q 99 346 98 455 q 103 118 101 238 q 119 50 104 72 q 169 22 133 28 l 169 -6 m 225 -6 l 225 22 q 276 50 261 28 q 292 118 291 72 q 295 346 294 238 q 296 560 296 455 q 294 771 296 665 q 292 992 293 877 q 276 1061 291 1040 q 225 1089 260 1083 l 225 1117 q 299 1082 276 1112 q 321 992 321 1052 q 323 767 322 874 q 323 555 323 660 q 323 343 323 450 q 321 118 322 235 q 299 30 321 59 q 225 -6 276 0 m 181 1167 l 257 1304 l 286 1304 l 210 1167 l 181 1167 z "},"Ŏ":{"ha":395,"x_min":72,"x_max":323,"o":"m 169 -6 q 99 30 120 1 q 76 118 78 59 q 73 343 74 235 q 72 555 72 450 q 73 767 72 660 q 76 992 74 874 q 99 1081 78 1051 q 169 1117 120 1110 l 169 1089 q 119 1062 133 1084 q 103 992 104 1040 q 99 771 100 877 q 98 560 98 665 q 99 346 98 455 q 103 118 101 238 q 119 50 104 72 q 169 22 133 28 l 169 -6 m 225 -6 l 225 22 q 276 50 261 28 q 292 118 291 72 q 295 346 294 238 q 296 560 296 455 q 294 771 296 665 q 292 992 293 877 q 276 1061 291 1040 q 225 1089 260 1083 l 225 1117 q 299 1082 276 1112 q 321 992 321 1052 q 323 767 322 874 q 323 555 323 660 q 323 343 323 450 q 321 118 322 235 q 299 30 321 59 q 225 -6 276 0 m 196 1164 q 112 1190 138 1164 q 85 1276 86 1216 l 113 1276 q 132 1209 114 1228 q 196 1190 149 1190 q 261 1209 243 1190 q 279 1276 278 1228 l 307 1276 q 280 1190 306 1216 q 196 1164 254 1164 z "},"Ǒ":{"ha":395,"x_min":72,"x_max":323,"o":"m 169 -6 q 99 30 120 1 q 76 118 78 59 q 73 343 74 235 q 72 555 72 450 q 73 767 72 660 q 76 992 74 874 q 99 1081 78 1051 q 169 1117 120 1110 l 169 1089 q 119 1062 133 1084 q 103 992 104 1040 q 99 771 100 877 q 98 560 98 665 q 99 346 98 455 q 103 118 101 238 q 119 50 104 72 q 169 22 133 28 l 169 -6 m 225 -6 l 225 22 q 276 50 261 28 q 292 118 291 72 q 295 346 294 238 q 296 560 296 455 q 294 771 296 665 q 292 992 293 877 q 276 1061 291 1040 q 225 1089 260 1083 l 225 1117 q 299 1082 276 1112 q 321 992 321 1052 q 323 767 322 874 q 323 555 323 660 q 323 343 323 450 q 321 118 322 235 q 299 30 321 59 q 225 -6 276 0 m 182 1167 l 106 1304 l 135 1304 l 197 1193 l 258 1304 l 288 1304 l 211 1167 l 182 1167 z "},"Ô":{"ha":395,"x_min":72,"x_max":323,"o":"m 169 -6 q 99 30 120 1 q 76 118 78 59 q 73 343 74 235 q 72 555 72 450 q 73 767 72 660 q 76 992 74 874 q 99 1081 78 1051 q 169 1117 120 1110 l 169 1089 q 119 1062 133 1084 q 103 992 104 1040 q 99 771 100 877 q 98 560 98 665 q 99 346 98 455 q 103 118 101 238 q 119 50 104 72 q 169 22 133 28 l 169 -6 m 225 -6 l 225 22 q 276 50 261 28 q 292 118 291 72 q 295 346 294 238 q 296 560 296 455 q 294 771 296 665 q 292 992 293 877 q 276 1061 291 1040 q 225 1089 260 1083 l 225 1117 q 299 1082 276 1112 q 321 992 321 1052 q 323 767 322 874 q 323 555 323 660 q 323 343 323 450 q 321 118 322 235 q 299 30 321 59 q 225 -6 276 0 m 106 1167 l 182 1304 l 211 1304 l 288 1167 l 256 1167 l 197 1275 l 138 1167 l 106 1167 z "},"Ố":{"ha":395,"x_min":72,"x_max":376,"o":"m 169 -6 q 99 30 120 1 q 76 118 78 59 q 73 343 74 235 q 72 555 72 450 q 73 767 72 660 q 76 992 74 874 q 99 1081 78 1051 q 169 1117 120 1110 l 169 1089 q 119 1062 133 1084 q 103 992 104 1040 q 99 771 100 877 q 98 560 98 665 q 99 346 98 455 q 103 118 101 238 q 119 50 104 72 q 169 22 133 28 l 169 -6 m 225 -6 l 225 22 q 276 50 261 28 q 292 118 291 72 q 295 346 294 238 q 296 560 296 455 q 294 771 296 665 q 292 992 293 877 q 276 1061 291 1040 q 225 1089 260 1083 l 225 1117 q 299 1082 276 1112 q 321 992 321 1052 q 323 767 322 874 q 323 555 323 660 q 323 343 323 450 q 321 118 322 235 q 299 30 321 59 q 225 -6 276 0 m 106 1167 l 182 1304 l 211 1304 l 288 1167 l 256 1167 l 197 1275 l 138 1167 l 106 1167 m 271 1274 l 347 1412 l 376 1412 l 300 1274 l 271 1274 z "},"Ộ":{"ha":395,"x_min":72,"x_max":323,"o":"m 169 -6 q 99 30 120 1 q 76 118 78 59 q 73 343 74 235 q 72 555 72 450 q 73 767 72 660 q 76 992 74 874 q 99 1081 78 1051 q 169 1117 120 1110 l 169 1089 q 119 1062 133 1084 q 103 992 104 1040 q 99 771 100 877 q 98 560 98 665 q 99 346 98 455 q 103 118 101 238 q 119 50 104 72 q 169 22 133 28 l 169 -6 m 225 -6 l 225 22 q 276 50 261 28 q 292 118 291 72 q 295 346 294 238 q 296 560 296 455 q 294 771 296 665 q 292 992 293 877 q 276 1061 291 1040 q 225 1089 260 1083 l 225 1117 q 299 1082 276 1112 q 321 992 321 1052 q 323 767 322 874 q 323 555 323 660 q 323 343 323 450 q 321 118 322 235 q 299 30 321 59 q 225 -6 276 0 m 175 -97 l 175 -56 l 217 -56 l 217 -97 l 175 -97 m 106 1167 l 182 1304 l 211 1304 l 288 1167 l 256 1167 l 197 1275 l 138 1167 l 106 1167 z "},"Ồ":{"ha":395,"x_min":72,"x_max":335,"o":"m 169 -6 q 99 30 120 1 q 76 118 78 59 q 73 343 74 235 q 72 555 72 450 q 73 767 72 660 q 76 992 74 874 q 99 1081 78 1051 q 169 1117 120 1110 l 169 1089 q 119 1062 133 1084 q 103 992 104 1040 q 99 771 100 877 q 98 560 98 665 q 99 346 98 455 q 103 118 101 238 q 119 50 104 72 q 169 22 133 28 l 169 -6 m 225 -6 l 225 22 q 276 50 261 28 q 292 118 291 72 q 295 346 294 238 q 296 560 296 455 q 294 771 296 665 q 292 992 293 877 q 276 1061 291 1040 q 225 1089 260 1083 l 225 1117 q 299 1082 276 1112 q 321 992 321 1052 q 323 767 322 874 q 323 555 323 660 q 323 343 323 450 q 321 118 322 235 q 299 30 321 59 q 225 -6 276 0 m 106 1167 l 182 1304 l 211 1304 l 288 1167 l 256 1167 l 197 1275 l 138 1167 l 106 1167 m 306 1274 l 229 1412 l 258 1412 l 335 1274 l 306 1274 z "},"Ổ":{"ha":395,"x_min":72,"x_max":323,"o":"m 169 -6 q 99 30 120 1 q 76 118 78 59 q 73 343 74 235 q 72 555 72 450 q 73 767 72 660 q 76 992 74 874 q 99 1081 78 1051 q 169 1117 120 1110 l 169 1089 q 119 1062 133 1084 q 103 992 104 1040 q 99 771 100 877 q 98 560 98 665 q 99 346 98 455 q 103 118 101 238 q 119 50 104 72 q 169 22 133 28 l 169 -6 m 225 -6 l 225 22 q 276 50 261 28 q 292 118 291 72 q 295 346 294 238 q 296 560 296 455 q 294 771 296 665 q 292 992 293 877 q 276 1061 291 1040 q 225 1089 260 1083 l 225 1117 q 299 1082 276 1112 q 321 992 321 1052 q 323 767 322 874 q 323 555 323 660 q 323 343 323 450 q 321 118 322 235 q 299 30 321 59 q 225 -6 276 0 m 106 1167 l 182 1304 l 211 1304 l 288 1167 l 256 1167 l 197 1275 l 138 1167 l 106 1167 m 249 1329 l 258 1374 q 255 1394 262 1388 q 232 1400 249 1400 l 204 1400 l 204 1422 l 232 1422 q 276 1411 263 1422 q 283 1374 289 1400 l 274 1329 l 249 1329 z "},"Ỗ":{"ha":395,"x_min":72,"x_max":323,"o":"m 169 -6 q 99 30 120 1 q 76 118 78 59 q 73 343 74 235 q 72 555 72 450 q 73 767 72 660 q 76 992 74 874 q 99 1081 78 1051 q 169 1117 120 1110 l 169 1089 q 119 1062 133 1084 q 103 992 104 1040 q 99 771 100 877 q 98 560 98 665 q 99 346 98 455 q 103 118 101 238 q 119 50 104 72 q 169 22 133 28 l 169 -6 m 225 -6 l 225 22 q 276 50 261 28 q 292 118 291 72 q 295 346 294 238 q 296 560 296 455 q 294 771 296 665 q 292 992 293 877 q 276 1061 291 1040 q 225 1089 260 1083 l 225 1117 q 299 1082 276 1112 q 321 992 321 1052 q 323 767 322 874 q 323 555 323 660 q 323 343 323 450 q 321 118 322 235 q 299 30 321 59 q 225 -6 276 0 m 106 1167 l 182 1304 l 211 1304 l 288 1167 l 256 1167 l 197 1275 l 138 1167 l 106 1167 m 293 1411 l 319 1411 q 297 1355 322 1377 q 238 1338 273 1333 q 206 1350 217 1340 q 185 1371 195 1360 q 158 1386 176 1381 q 123 1382 143 1390 q 99 1342 102 1374 l 72 1342 q 107 1405 76 1389 q 167 1413 137 1420 q 193 1401 183 1409 q 211 1385 203 1394 q 226 1370 218 1377 q 244 1363 233 1364 q 281 1375 267 1360 q 293 1411 294 1390 z "},"Ȍ":{"ha":395,"x_min":22,"x_max":323,"o":"m 169 -6 q 99 30 120 1 q 76 118 78 59 q 73 343 74 235 q 72 555 72 450 q 73 767 72 660 q 76 992 74 874 q 99 1081 78 1051 q 169 1117 120 1110 l 169 1089 q 119 1062 133 1084 q 103 992 104 1040 q 99 771 100 877 q 98 560 98 665 q 99 346 98 455 q 103 118 101 238 q 119 50 104 72 q 169 22 133 28 l 169 -6 m 225 -6 l 225 22 q 276 50 261 28 q 292 118 291 72 q 295 346 294 238 q 296 560 296 455 q 294 771 296 665 q 292 992 293 877 q 276 1061 291 1040 q 225 1089 260 1083 l 225 1117 q 299 1082 276 1112 q 321 992 321 1052 q 323 767 322 874 q 323 555 323 660 q 323 343 323 450 q 321 118 322 235 q 299 30 321 59 q 225 -6 276 0 m 104 1167 l 22 1303 l 56 1303 l 138 1167 l 104 1167 m 215 1167 l 133 1303 l 167 1303 l 249 1167 l 215 1167 z "},"Ö":{"ha":395,"x_min":72,"x_max":323,"o":"m 169 -6 q 99 30 120 1 q 76 118 78 59 q 73 343 74 235 q 72 555 72 450 q 73 767 72 660 q 76 992 74 874 q 99 1081 78 1051 q 169 1117 120 1110 l 169 1089 q 119 1062 133 1084 q 103 992 104 1040 q 99 771 100 877 q 98 560 98 665 q 99 346 98 455 q 103 118 101 238 q 119 50 104 72 q 169 22 133 28 l 169 -6 m 225 -6 l 225 22 q 276 50 261 28 q 292 118 291 72 q 295 346 294 238 q 296 560 296 455 q 294 771 296 665 q 292 992 293 877 q 276 1061 291 1040 q 225 1089 260 1083 l 225 1117 q 299 1082 276 1112 q 321 992 321 1052 q 323 767 322 874 q 323 555 323 660 q 323 343 323 450 q 321 118 322 235 q 299 30 321 59 q 225 -6 276 0 m 217 1167 l 217 1208 l 258 1208 l 258 1167 l 217 1167 m 133 1167 l 133 1208 l 175 1208 l 175 1167 l 133 1167 z "},"Ȫ":{"ha":395,"x_min":72,"x_max":323,"o":"m 169 -6 q 99 30 120 1 q 76 118 78 59 q 73 343 74 235 q 72 555 72 450 q 73 767 72 660 q 76 992 74 874 q 99 1081 78 1051 q 169 1117 120 1110 l 169 1089 q 119 1062 133 1084 q 103 992 104 1040 q 99 771 100 877 q 98 560 98 665 q 99 346 98 455 q 103 118 101 238 q 119 50 104 72 q 169 22 133 28 l 169 -6 m 225 -6 l 225 22 q 276 50 261 28 q 292 118 291 72 q 295 346 294 238 q 296 560 296 455 q 294 771 296 665 q 292 992 293 877 q 276 1061 291 1040 q 225 1089 260 1083 l 225 1117 q 299 1082 276 1112 q 321 992 321 1052 q 323 767 322 874 q 323 555 323 660 q 323 343 323 450 q 321 118 322 235 q 299 30 321 59 q 225 -6 276 0 m 217 1167 l 217 1208 l 258 1208 l 258 1167 l 217 1167 m 133 1167 l 133 1208 l 175 1208 l 175 1167 l 133 1167 m 94 1292 l 297 1292 l 297 1264 l 94 1264 l 94 1292 z "},"Ȱ":{"ha":395,"x_min":72,"x_max":323,"o":"m 169 -6 q 99 30 120 1 q 76 118 78 59 q 73 343 74 235 q 72 555 72 450 q 73 767 72 660 q 76 992 74 874 q 99 1081 78 1051 q 169 1117 120 1110 l 169 1089 q 119 1062 133 1084 q 103 992 104 1040 q 99 771 100 877 q 98 560 98 665 q 99 346 98 455 q 103 118 101 238 q 119 50 104 72 q 169 22 133 28 l 169 -6 m 225 -6 l 225 22 q 276 50 261 28 q 292 118 291 72 q 295 346 294 238 q 296 560 296 455 q 294 771 296 665 q 292 992 293 877 q 276 1061 291 1040 q 225 1089 260 1083 l 225 1117 q 299 1082 276 1112 q 321 992 321 1052 q 323 767 322 874 q 323 555 323 660 q 323 343 323 450 q 321 118 322 235 q 299 30 321 59 q 225 -6 276 0 m 175 1167 l 175 1208 l 217 1208 l 217 1167 l 175 1167 m 94 1292 l 297 1292 l 297 1264 l 94 1264 l 94 1292 z "},"Ọ":{"ha":395,"x_min":72,"x_max":323,"o":"m 169 -6 q 99 30 120 1 q 76 118 78 59 q 73 343 74 235 q 72 555 72 450 q 73 767 72 660 q 76 992 74 874 q 99 1081 78 1051 q 169 1117 120 1110 l 169 1089 q 119 1062 133 1084 q 103 992 104 1040 q 99 771 100 877 q 98 560 98 665 q 99 346 98 455 q 103 118 101 238 q 119 50 104 72 q 169 22 133 28 l 169 -6 m 225 -6 l 225 22 q 276 50 261 28 q 292 118 291 72 q 295 346 294 238 q 296 560 296 455 q 294 771 296 665 q 292 992 293 877 q 276 1061 291 1040 q 225 1089 260 1083 l 225 1117 q 299 1082 276 1112 q 321 992 321 1052 q 323 767 322 874 q 323 555 323 660 q 323 343 323 450 q 321 118 322 235 q 299 30 321 59 q 225 -6 276 0 m 175 -97 l 175 -56 l 217 -56 l 217 -97 l 175 -97 z "},"Ò":{"ha":395,"x_min":72,"x_max":323,"o":"m 169 -6 q 99 30 120 1 q 76 118 78 59 q 73 343 74 235 q 72 555 72 450 q 73 767 72 660 q 76 992 74 874 q 99 1081 78 1051 q 169 1117 120 1110 l 169 1089 q 119 1062 133 1084 q 103 992 104 1040 q 99 771 100 877 q 98 560 98 665 q 99 346 98 455 q 103 118 101 238 q 119 50 104 72 q 169 22 133 28 l 169 -6 m 225 -6 l 225 22 q 276 50 261 28 q 292 118 291 72 q 295 346 294 238 q 296 560 296 455 q 294 771 296 665 q 292 992 293 877 q 276 1061 291 1040 q 225 1089 260 1083 l 225 1117 q 299 1082 276 1112 q 321 992 321 1052 q 323 767 322 874 q 323 555 323 660 q 323 343 323 450 q 321 118 322 235 q 299 30 321 59 q 225 -6 276 0 m 181 1167 l 104 1304 l 133 1304 l 210 1167 l 181 1167 z "},"Ỏ":{"ha":395,"x_min":72,"x_max":323,"o":"m 169 -6 q 99 30 120 1 q 76 118 78 59 q 73 343 74 235 q 72 555 72 450 q 73 767 72 660 q 76 992 74 874 q 99 1081 78 1051 q 169 1117 120 1110 l 169 1089 q 119 1062 133 1084 q 103 992 104 1040 q 99 771 100 877 q 98 560 98 665 q 99 346 98 455 q 103 118 101 238 q 119 50 104 72 q 169 22 133 28 l 169 -6 m 225 -6 l 225 22 q 276 50 261 28 q 292 118 291 72 q 295 346 294 238 q 296 560 296 455 q 294 771 296 665 q 292 992 293 877 q 276 1061 291 1040 q 225 1089 260 1083 l 225 1117 q 299 1082 276 1112 q 321 992 321 1052 q 323 767 322 874 q 323 555 323 660 q 323 343 323 450 q 321 118 322 235 q 299 30 321 59 q 225 -6 276 0 m 198 1194 l 207 1239 q 204 1259 210 1253 q 181 1265 197 1265 l 153 1265 l 153 1288 l 181 1288 q 225 1276 212 1288 q 232 1239 238 1265 l 223 1194 l 198 1194 z "},"Ơ":{"ha":395,"x_min":72,"x_max":366,"o":"m 169 -6 q 99 30 120 1 q 76 118 78 59 q 73 343 74 235 q 72 555 72 450 q 73 767 72 660 q 76 992 74 874 q 99 1081 78 1051 q 169 1117 120 1110 l 169 1089 q 119 1062 133 1084 q 103 992 104 1040 q 99 771 100 877 q 98 560 98 665 q 99 346 98 455 q 103 118 101 238 q 119 50 104 72 q 169 22 133 28 l 169 -6 m 225 -6 l 225 22 q 276 50 261 28 q 292 118 291 72 q 295 346 294 238 q 296 560 296 455 q 294 771 296 665 q 292 992 293 877 q 276 1061 291 1040 q 225 1089 260 1083 l 225 1117 q 299 1082 276 1112 q 321 992 321 1052 q 323 767 322 874 q 323 555 323 660 q 323 343 323 450 q 321 118 322 235 q 299 30 321 59 q 225 -6 276 0 m 253 1083 q 240 1086 247 1083 l 238 1111 q 246 1111 242 1111 q 253 1111 249 1111 q 318 1130 301 1111 q 337 1196 335 1148 q 338 1224 338 1210 q 338 1251 338 1238 q 337 1279 338 1265 l 365 1279 q 366 1251 365 1265 q 366 1224 366 1238 q 365 1196 365 1210 q 337 1109 362 1135 q 253 1083 312 1083 z "},"Ớ":{"ha":395,"x_min":72,"x_max":366,"o":"m 169 -6 q 99 30 120 1 q 76 118 78 59 q 73 343 74 235 q 72 555 72 450 q 73 767 72 660 q 76 992 74 874 q 99 1081 78 1051 q 169 1117 120 1110 l 169 1089 q 119 1062 133 1084 q 103 992 104 1040 q 99 771 100 877 q 98 560 98 665 q 99 346 98 455 q 103 118 101 238 q 119 50 104 72 q 169 22 133 28 l 169 -6 m 225 -6 l 225 22 q 276 50 261 28 q 292 118 291 72 q 295 346 294 238 q 296 560 296 455 q 294 771 296 665 q 292 992 293 877 q 276 1061 291 1040 q 225 1089 260 1083 l 225 1117 q 299 1082 276 1112 q 321 992 321 1052 q 323 767 322 874 q 323 555 323 660 q 323 343 323 450 q 321 118 322 235 q 299 30 321 59 q 225 -6 276 0 m 253 1083 q 240 1086 247 1083 l 238 1111 q 246 1111 242 1111 q 253 1111 249 1111 q 318 1130 301 1111 q 337 1196 335 1148 q 338 1224 338 1210 q 338 1251 338 1238 q 337 1279 338 1265 l 365 1279 q 366 1251 365 1265 q 366 1224 366 1238 q 365 1196 365 1210 q 337 1109 362 1135 q 253 1083 312 1083 m 181 1167 l 257 1304 l 286 1304 l 210 1167 l 181 1167 z "},"Ợ":{"ha":395,"x_min":72,"x_max":366,"o":"m 169 -6 q 99 30 120 1 q 76 118 78 59 q 73 343 74 235 q 72 555 72 450 q 73 767 72 660 q 76 992 74 874 q 99 1081 78 1051 q 169 1117 120 1110 l 169 1089 q 119 1062 133 1084 q 103 992 104 1040 q 99 771 100 877 q 98 560 98 665 q 99 346 98 455 q 103 118 101 238 q 119 50 104 72 q 169 22 133 28 l 169 -6 m 225 -6 l 225 22 q 276 50 261 28 q 292 118 291 72 q 295 346 294 238 q 296 560 296 455 q 294 771 296 665 q 292 992 293 877 q 276 1061 291 1040 q 225 1089 260 1083 l 225 1117 q 299 1082 276 1112 q 321 992 321 1052 q 323 767 322 874 q 323 555 323 660 q 323 343 323 450 q 321 118 322 235 q 299 30 321 59 q 225 -6 276 0 m 253 1083 q 240 1086 247 1083 l 238 1111 q 246 1111 242 1111 q 253 1111 249 1111 q 318 1130 301 1111 q 337 1196 335 1148 q 338 1224 338 1210 q 338 1251 338 1238 q 337 1279 338 1265 l 365 1279 q 366 1251 365 1265 q 366 1224 366 1238 q 365 1196 365 1210 q 337 1109 362 1135 q 253 1083 312 1083 m 175 -97 l 175 -56 l 217 -56 l 217 -97 l 175 -97 z "},"Ờ":{"ha":395,"x_min":72,"x_max":366,"o":"m 169 -6 q 99 30 120 1 q 76 118 78 59 q 73 343 74 235 q 72 555 72 450 q 73 767 72 660 q 76 992 74 874 q 99 1081 78 1051 q 169 1117 120 1110 l 169 1089 q 119 1062 133 1084 q 103 992 104 1040 q 99 771 100 877 q 98 560 98 665 q 99 346 98 455 q 103 118 101 238 q 119 50 104 72 q 169 22 133 28 l 169 -6 m 225 -6 l 225 22 q 276 50 261 28 q 292 118 291 72 q 295 346 294 238 q 296 560 296 455 q 294 771 296 665 q 292 992 293 877 q 276 1061 291 1040 q 225 1089 260 1083 l 225 1117 q 299 1082 276 1112 q 321 992 321 1052 q 323 767 322 874 q 323 555 323 660 q 323 343 323 450 q 321 118 322 235 q 299 30 321 59 q 225 -6 276 0 m 253 1083 q 240 1086 247 1083 l 238 1111 q 246 1111 242 1111 q 253 1111 249 1111 q 318 1130 301 1111 q 337 1196 335 1148 q 338 1224 338 1210 q 338 1251 338 1238 q 337 1279 338 1265 l 365 1279 q 366 1251 365 1265 q 366 1224 366 1238 q 365 1196 365 1210 q 337 1109 362 1135 q 253 1083 312 1083 m 181 1167 l 104 1304 l 133 1304 l 210 1167 l 181 1167 z "},"Ở":{"ha":395,"x_min":72,"x_max":366,"o":"m 169 -6 q 99 30 120 1 q 76 118 78 59 q 73 343 74 235 q 72 555 72 450 q 73 767 72 660 q 76 992 74 874 q 99 1081 78 1051 q 169 1117 120 1110 l 169 1089 q 119 1062 133 1084 q 103 992 104 1040 q 99 771 100 877 q 98 560 98 665 q 99 346 98 455 q 103 118 101 238 q 119 50 104 72 q 169 22 133 28 l 169 -6 m 225 -6 l 225 22 q 276 50 261 28 q 292 118 291 72 q 295 346 294 238 q 296 560 296 455 q 294 771 296 665 q 292 992 293 877 q 276 1061 291 1040 q 225 1089 260 1083 l 225 1117 q 299 1082 276 1112 q 321 992 321 1052 q 323 767 322 874 q 323 555 323 660 q 323 343 323 450 q 321 118 322 235 q 299 30 321 59 q 225 -6 276 0 m 253 1083 q 240 1086 247 1083 l 238 1111 q 246 1111 242 1111 q 253 1111 249 1111 q 318 1130 301 1111 q 337 1196 335 1148 q 338 1224 338 1210 q 338 1251 338 1238 q 337 1279 338 1265 l 365 1279 q 366 1251 365 1265 q 366 1224 366 1238 q 365 1196 365 1210 q 337 1109 362 1135 q 253 1083 312 1083 m 198 1194 l 207 1239 q 204 1259 210 1253 q 181 1265 197 1265 l 153 1265 l 153 1288 l 181 1288 q 225 1276 212 1288 q 232 1239 238 1265 l 223 1194 l 198 1194 z "},"Ỡ":{"ha":395,"x_min":72,"x_max":366,"o":"m 169 -6 q 99 30 120 1 q 76 118 78 59 q 73 343 74 235 q 72 555 72 450 q 73 767 72 660 q 76 992 74 874 q 99 1081 78 1051 q 169 1117 120 1110 l 169 1089 q 119 1062 133 1084 q 103 992 104 1040 q 99 771 100 877 q 98 560 98 665 q 99 346 98 455 q 103 118 101 238 q 119 50 104 72 q 169 22 133 28 l 169 -6 m 225 -6 l 225 22 q 276 50 261 28 q 292 118 291 72 q 295 346 294 238 q 296 560 296 455 q 294 771 296 665 q 292 992 293 877 q 276 1061 291 1040 q 225 1089 260 1083 l 225 1117 q 299 1082 276 1112 q 321 992 321 1052 q 323 767 322 874 q 323 555 323 660 q 323 343 323 450 q 321 118 322 235 q 299 30 321 59 q 225 -6 276 0 m 253 1083 q 240 1086 247 1083 l 238 1111 q 246 1111 242 1111 q 253 1111 249 1111 q 318 1130 301 1111 q 337 1196 335 1148 q 338 1224 338 1210 q 338 1251 338 1238 q 337 1279 338 1265 l 365 1279 q 366 1251 365 1265 q 366 1224 366 1238 q 365 1196 365 1210 q 337 1109 362 1135 q 253 1083 312 1083 m 293 1279 l 319 1279 q 297 1223 322 1245 q 238 1206 273 1201 q 206 1218 217 1208 q 185 1239 195 1228 q 158 1254 176 1249 q 123 1250 143 1258 q 99 1210 102 1242 l 72 1210 q 107 1273 76 1257 q 167 1281 137 1288 q 193 1269 183 1277 q 211 1253 203 1262 q 226 1239 218 1245 q 244 1231 233 1232 q 281 1243 267 1228 q 293 1279 294 1258 z "},"Ő":{"ha":395,"x_min":72,"x_max":323,"o":"m 169 -6 q 99 30 120 1 q 76 118 78 59 q 73 343 74 235 q 72 555 72 450 q 73 767 72 660 q 76 992 74 874 q 99 1081 78 1051 q 169 1117 120 1110 l 169 1089 q 119 1062 133 1084 q 103 992 104 1040 q 99 771 100 877 q 98 560 98 665 q 99 346 98 455 q 103 118 101 238 q 119 50 104 72 q 169 22 133 28 l 169 -6 m 225 -6 l 225 22 q 276 50 261 28 q 292 118 291 72 q 295 346 294 238 q 296 560 296 455 q 294 771 296 665 q 292 992 293 877 q 276 1061 291 1040 q 225 1089 260 1083 l 225 1117 q 299 1082 276 1112 q 321 992 321 1052 q 323 767 322 874 q 323 555 323 660 q 323 343 323 450 q 321 118 322 235 q 299 30 321 59 q 225 -6 276 0 m 129 1167 l 206 1304 l 235 1304 l 158 1167 l 129 1167 m 213 1167 l 289 1304 l 318 1304 l 242 1167 l 213 1167 z "},"Ȏ":{"ha":395,"x_min":72,"x_max":323,"o":"m 169 -6 q 99 30 120 1 q 76 118 78 59 q 73 343 74 235 q 72 555 72 450 q 73 767 72 660 q 76 992 74 874 q 99 1081 78 1051 q 169 1117 120 1110 l 169 1089 q 119 1062 133 1084 q 103 992 104 1040 q 99 771 100 877 q 98 560 98 665 q 99 346 98 455 q 103 118 101 238 q 119 50 104 72 q 169 22 133 28 l 169 -6 m 225 -6 l 225 22 q 276 50 261 28 q 292 118 291 72 q 295 346 294 238 q 296 560 296 455 q 294 771 296 665 q 292 992 293 877 q 276 1061 291 1040 q 225 1089 260 1083 l 225 1117 q 299 1082 276 1112 q 321 992 321 1052 q 323 767 322 874 q 323 555 323 660 q 323 343 323 450 q 321 118 322 235 q 299 30 321 59 q 225 -6 276 0 m 196 1263 q 280 1236 254 1263 q 307 1150 306 1210 l 279 1150 q 261 1217 278 1198 q 196 1236 243 1236 q 132 1217 149 1236 q 113 1150 114 1198 l 85 1150 q 112 1236 86 1210 q 196 1263 138 1263 z "},"Ō":{"ha":395,"x_min":72,"x_max":323,"o":"m 169 -6 q 99 30 120 1 q 76 118 78 59 q 73 343 74 235 q 72 555 72 450 q 73 767 72 660 q 76 992 74 874 q 99 1081 78 1051 q 169 1117 120 1110 l 169 1089 q 119 1062 133 1084 q 103 992 104 1040 q 99 771 100 877 q 98 560 98 665 q 99 346 98 455 q 103 118 101 238 q 119 50 104 72 q 169 22 133 28 l 169 -6 m 225 -6 l 225 22 q 276 50 261 28 q 292 118 291 72 q 295 346 294 238 q 296 560 296 455 q 294 771 296 665 q 292 992 293 877 q 276 1061 291 1040 q 225 1089 260 1083 l 225 1117 q 299 1082 276 1112 q 321 992 321 1052 q 323 767 322 874 q 323 555 323 660 q 323 343 323 450 q 321 118 322 235 q 299 30 321 59 q 225 -6 276 0 m 94 1194 l 297 1194 l 297 1167 l 94 1167 l 94 1194 z "},"Ṓ":{"ha":395,"x_min":72,"x_max":323,"o":"m 169 -6 q 99 30 120 1 q 76 118 78 59 q 73 343 74 235 q 72 555 72 450 q 73 767 72 660 q 76 992 74 874 q 99 1081 78 1051 q 169 1117 120 1110 l 169 1089 q 119 1062 133 1084 q 103 992 104 1040 q 99 771 100 877 q 98 560 98 665 q 99 346 98 455 q 103 118 101 238 q 119 50 104 72 q 169 22 133 28 l 169 -6 m 225 -6 l 225 22 q 276 50 261 28 q 292 118 291 72 q 295 346 294 238 q 296 560 296 455 q 294 771 296 665 q 292 992 293 877 q 276 1061 291 1040 q 225 1089 260 1083 l 225 1117 q 299 1082 276 1112 q 321 992 321 1052 q 323 767 322 874 q 323 555 323 660 q 323 343 323 450 q 321 118 322 235 q 299 30 321 59 q 225 -6 276 0 m 94 1194 l 297 1194 l 297 1167 l 94 1167 l 94 1194 m 181 1250 l 257 1388 l 286 1388 l 210 1250 l 181 1250 z "},"Ṑ":{"ha":395,"x_min":72,"x_max":323,"o":"m 169 -6 q 99 30 120 1 q 76 118 78 59 q 73 343 74 235 q 72 555 72 450 q 73 767 72 660 q 76 992 74 874 q 99 1081 78 1051 q 169 1117 120 1110 l 169 1089 q 119 1062 133 1084 q 103 992 104 1040 q 99 771 100 877 q 98 560 98 665 q 99 346 98 455 q 103 118 101 238 q 119 50 104 72 q 169 22 133 28 l 169 -6 m 225 -6 l 225 22 q 276 50 261 28 q 292 118 291 72 q 295 346 294 238 q 296 560 296 455 q 294 771 296 665 q 292 992 293 877 q 276 1061 291 1040 q 225 1089 260 1083 l 225 1117 q 299 1082 276 1112 q 321 992 321 1052 q 323 767 322 874 q 323 555 323 660 q 323 343 323 450 q 321 118 322 235 q 299 30 321 59 q 225 -6 276 0 m 94 1194 l 297 1194 l 297 1167 l 94 1167 l 94 1194 m 181 1250 l 104 1388 l 133 1388 l 210 1250 l 181 1250 z "},"Ǫ":{"ha":395,"x_min":72,"x_max":323,"o":"m 169 -6 q 99 30 120 1 q 76 118 78 59 q 73 343 74 235 q 72 555 72 450 q 73 767 72 660 q 76 992 74 874 q 99 1081 78 1051 q 169 1117 120 1110 l 169 1089 q 119 1062 133 1084 q 103 992 104 1040 q 99 771 100 877 q 98 560 98 665 q 99 346 98 455 q 103 118 101 238 q 119 50 104 72 q 169 22 133 28 l 169 -6 m 225 -6 l 225 22 q 276 50 261 28 q 292 118 291 72 q 295 346 294 238 q 296 560 296 455 q 294 771 296 665 q 292 992 293 877 q 276 1061 291 1040 q 225 1089 260 1083 l 225 1117 q 299 1082 276 1112 q 321 992 321 1052 q 323 767 322 874 q 323 555 323 660 q 323 343 323 450 q 321 118 322 235 q 299 30 321 59 q 225 -6 276 0 m 289 -211 l 251 -211 q 195 -191 212 -211 q 186 -135 179 -171 l 203 -56 l 231 -56 l 214 -135 q 218 -173 209 -160 q 251 -186 226 -186 l 289 -186 l 289 -211 z "},"Ø":{"ha":395,"x_min":72,"x_max":323,"o":"m 143 371 l 143 435 l 276 694 l 276 631 l 143 371 m 169 -6 q 99 30 120 1 q 76 118 78 59 q 73 343 74 235 q 72 555 72 450 q 73 767 72 660 q 76 992 74 874 q 99 1081 78 1051 q 169 1117 120 1110 l 169 1089 q 119 1062 133 1084 q 103 992 104 1040 q 99 771 100 877 q 98 560 98 665 q 99 346 98 455 q 103 118 101 238 q 119 50 104 72 q 169 22 133 28 l 169 -6 m 225 -6 l 225 22 q 276 50 261 28 q 292 118 291 72 q 295 346 294 238 q 296 560 296 455 q 294 771 296 665 q 292 992 293 877 q 276 1061 291 1040 q 225 1089 260 1083 l 225 1117 q 299 1082 276 1112 q 321 992 321 1052 q 323 767 322 874 q 323 555 323 660 q 323 343 323 450 q 321 118 322 235 q 299 30 321 59 q 225 -6 276 0 z "},"Ǿ":{"ha":395,"x_min":72,"x_max":323,"o":"m 143 371 l 143 435 l 276 694 l 276 631 l 143 371 m 169 -6 q 99 30 120 1 q 76 118 78 59 q 73 343 74 235 q 72 555 72 450 q 73 767 72 660 q 76 992 74 874 q 99 1081 78 1051 q 169 1117 120 1110 l 169 1089 q 119 1062 133 1084 q 103 992 104 1040 q 99 771 100 877 q 98 560 98 665 q 99 346 98 455 q 103 118 101 238 q 119 50 104 72 q 169 22 133 28 l 169 -6 m 225 -6 l 225 22 q 276 50 261 28 q 292 118 291 72 q 295 346 294 238 q 296 560 296 455 q 294 771 296 665 q 292 992 293 877 q 276 1061 291 1040 q 225 1089 260 1083 l 225 1117 q 299 1082 276 1112 q 321 992 321 1052 q 323 767 322 874 q 323 555 323 660 q 323 343 323 450 q 321 118 322 235 q 299 30 321 59 q 225 -6 276 0 m 181 1167 l 257 1304 l 286 1304 l 210 1167 l 181 1167 z "},"Õ":{"ha":395,"x_min":72,"x_max":323,"o":"m 169 -6 q 99 30 120 1 q 76 118 78 59 q 73 343 74 235 q 72 555 72 450 q 73 767 72 660 q 76 992 74 874 q 99 1081 78 1051 q 169 1117 120 1110 l 169 1089 q 119 1062 133 1084 q 103 992 104 1040 q 99 771 100 877 q 98 560 98 665 q 99 346 98 455 q 103 118 101 238 q 119 50 104 72 q 169 22 133 28 l 169 -6 m 225 -6 l 225 22 q 276 50 261 28 q 292 118 291 72 q 295 346 294 238 q 296 560 296 455 q 294 771 296 665 q 292 992 293 877 q 276 1061 291 1040 q 225 1089 260 1083 l 225 1117 q 299 1082 276 1112 q 321 992 321 1052 q 323 767 322 874 q 323 555 323 660 q 323 343 323 450 q 321 118 322 235 q 299 30 321 59 q 225 -6 276 0 m 293 1218 l 319 1218 q 297 1162 322 1184 q 238 1144 273 1140 q 206 1157 217 1147 q 185 1178 195 1167 q 158 1193 176 1188 q 123 1189 143 1197 q 99 1149 102 1181 l 72 1149 q 107 1211 76 1196 q 167 1219 137 1227 q 193 1208 183 1216 q 211 1192 203 1201 q 226 1177 218 1184 q 244 1169 233 1171 q 281 1182 267 1167 q 293 1218 294 1197 z "},"Ṍ":{"ha":395,"x_min":72,"x_max":323,"o":"m 169 -6 q 99 30 120 1 q 76 118 78 59 q 73 343 74 235 q 72 555 72 450 q 73 767 72 660 q 76 992 74 874 q 99 1081 78 1051 q 169 1117 120 1110 l 169 1089 q 119 1062 133 1084 q 103 992 104 1040 q 99 771 100 877 q 98 560 98 665 q 99 346 98 455 q 103 118 101 238 q 119 50 104 72 q 169 22 133 28 l 169 -6 m 225 -6 l 225 22 q 276 50 261 28 q 292 118 291 72 q 295 346 294 238 q 296 560 296 455 q 294 771 296 665 q 292 992 293 877 q 276 1061 291 1040 q 225 1089 260 1083 l 225 1117 q 299 1082 276 1112 q 321 992 321 1052 q 323 767 322 874 q 323 555 323 660 q 323 343 323 450 q 321 118 322 235 q 299 30 321 59 q 225 -6 276 0 m 293 1218 l 319 1218 q 297 1162 322 1184 q 238 1144 273 1140 q 206 1157 217 1147 q 185 1178 195 1167 q 158 1193 176 1188 q 123 1189 143 1197 q 99 1149 102 1181 l 72 1149 q 107 1211 76 1196 q 167 1219 137 1227 q 193 1208 183 1216 q 211 1192 203 1201 q 226 1177 218 1184 q 244 1169 233 1171 q 281 1182 267 1167 q 293 1218 294 1197 m 175 1303 l 251 1440 l 281 1440 l 204 1303 l 175 1303 z "},"Ṏ":{"ha":395,"x_min":72,"x_max":323,"o":"m 169 -6 q 99 30 120 1 q 76 118 78 59 q 73 343 74 235 q 72 555 72 450 q 73 767 72 660 q 76 992 74 874 q 99 1081 78 1051 q 169 1117 120 1110 l 169 1089 q 119 1062 133 1084 q 103 992 104 1040 q 99 771 100 877 q 98 560 98 665 q 99 346 98 455 q 103 118 101 238 q 119 50 104 72 q 169 22 133 28 l 169 -6 m 225 -6 l 225 22 q 276 50 261 28 q 292 118 291 72 q 295 346 294 238 q 296 560 296 455 q 294 771 296 665 q 292 992 293 877 q 276 1061 291 1040 q 225 1089 260 1083 l 225 1117 q 299 1082 276 1112 q 321 992 321 1052 q 323 767 322 874 q 323 555 323 660 q 323 343 323 450 q 321 118 322 235 q 299 30 321 59 q 225 -6 276 0 m 293 1218 l 319 1218 q 297 1162 322 1184 q 238 1144 273 1140 q 206 1157 217 1147 q 185 1178 195 1167 q 158 1193 176 1188 q 123 1189 143 1197 q 99 1149 102 1181 l 72 1149 q 107 1211 76 1196 q 167 1219 137 1227 q 193 1208 183 1216 q 211 1192 203 1201 q 226 1177 218 1184 q 244 1169 233 1171 q 281 1182 267 1167 q 293 1218 294 1197 m 211 1303 l 211 1344 l 253 1344 l 253 1303 l 211 1303 m 128 1303 l 128 1344 l 169 1344 l 169 1303 l 128 1303 z "},"Ȭ":{"ha":395,"x_min":72,"x_max":323,"o":"m 169 -6 q 99 30 120 1 q 76 118 78 59 q 73 343 74 235 q 72 555 72 450 q 73 767 72 660 q 76 992 74 874 q 99 1081 78 1051 q 169 1117 120 1110 l 169 1089 q 119 1062 133 1084 q 103 992 104 1040 q 99 771 100 877 q 98 560 98 665 q 99 346 98 455 q 103 118 101 238 q 119 50 104 72 q 169 22 133 28 l 169 -6 m 225 -6 l 225 22 q 276 50 261 28 q 292 118 291 72 q 295 346 294 238 q 296 560 296 455 q 294 771 296 665 q 292 992 293 877 q 276 1061 291 1040 q 225 1089 260 1083 l 225 1117 q 299 1082 276 1112 q 321 992 321 1052 q 323 767 322 874 q 323 555 323 660 q 323 343 323 450 q 321 118 322 235 q 299 30 321 59 q 225 -6 276 0 m 293 1218 l 319 1218 q 297 1162 322 1184 q 238 1144 273 1140 q 206 1157 217 1147 q 185 1178 195 1167 q 158 1193 176 1188 q 123 1189 143 1197 q 99 1149 102 1181 l 72 1149 q 107 1211 76 1196 q 167 1219 137 1227 q 193 1208 183 1216 q 211 1192 203 1201 q 226 1177 218 1184 q 244 1169 233 1171 q 281 1182 267 1167 q 293 1218 294 1197 m 89 1331 l 292 1331 l 292 1303 l 89 1303 l 89 1331 z "},"Œ":{"ha":564,"x_min":72,"x_max":529,"o":"m 169 -6 q 99 30 120 1 q 76 118 78 59 q 73 343 74 235 q 72 555 72 450 q 73 767 72 660 q 76 992 74 874 q 99 1081 78 1051 q 169 1117 120 1110 l 169 1089 q 119 1062 133 1084 q 103 992 104 1040 q 99 771 100 877 q 98 560 98 665 q 99 346 98 455 q 103 118 101 238 q 119 50 104 72 q 169 22 133 28 l 169 -6 m 225 -6 l 225 22 q 276 50 261 28 q 292 118 291 72 q 295 346 294 238 q 296 560 296 455 q 294 771 296 665 q 292 992 293 877 q 276 1061 291 1040 q 225 1089 260 1083 l 225 1117 q 299 1082 276 1112 q 321 992 321 1052 q 323 767 322 874 q 323 555 323 660 q 323 343 323 450 q 321 118 322 235 q 299 30 321 59 q 225 -6 276 0 m 308 0 l 308 1111 l 336 1111 l 336 0 l 308 0 m 392 0 l 392 28 l 529 28 l 529 0 l 392 0 m 392 542 l 392 569 l 515 569 l 515 542 l 392 542 m 392 1083 l 392 1111 l 529 1111 l 529 1083 l 392 1083 z "},"P":{"ha":359,"x_min":83,"x_max":321,"o":"m 83 0 l 83 1111 l 111 1111 l 111 0 l 83 0 m 167 479 l 167 507 l 196 507 q 266 531 245 507 q 289 608 287 554 q 292 735 291 675 q 292 855 292 795 q 289 982 291 915 q 266 1060 287 1036 q 197 1083 245 1083 l 167 1083 l 167 1111 l 197 1111 q 286 1081 258 1111 q 317 982 314 1051 q 321 783 321 869 q 317 608 321 696 q 286 509 314 540 q 196 479 258 479 l 167 479 z "},"Þ":{"ha":363,"x_min":83,"x_max":321,"o":"m 167 257 l 167 285 l 196 285 q 266 308 245 285 q 289 386 287 332 q 293 513 292 453 q 293 633 294 573 q 289 760 292 693 q 266 838 287 814 q 197 861 245 861 l 167 861 l 167 889 l 197 889 q 286 859 258 889 q 317 760 315 828 q 320 560 320 647 q 317 386 321 474 q 286 287 314 317 q 196 257 258 257 l 167 257 m 83 0 l 83 1111 l 111 1111 l 111 0 l 83 0 z "},"Q":{"ha":395,"x_min":72,"x_max":323,"o":"m 76 118 q 73 343 74 235 q 72 555 72 450 q 73 767 72 660 q 76 992 74 874 q 99 1081 78 1051 q 169 1117 120 1110 l 169 1089 q 119 1062 133 1084 q 103 992 104 1040 q 99 771 100 877 q 98 560 98 665 q 99 346 98 455 q 103 118 101 238 q 119 50 104 72 q 169 22 133 28 l 169 -6 q 99 30 120 1 q 76 118 78 59 m 183 -35 l 211 -35 q 235 -73 219 -62 q 281 -82 251 -84 l 281 -107 q 215 -92 238 -109 q 183 -35 191 -75 m 225 -6 l 225 22 q 276 50 261 28 q 292 118 291 72 q 295 346 294 238 q 296 560 296 455 q 294 771 296 665 q 292 992 293 877 q 276 1062 291 1040 q 225 1089 261 1084 l 225 1117 q 299 1082 276 1112 q 321 992 321 1052 q 323 767 322 874 q 323 555 323 660 q 323 343 323 450 q 321 118 322 235 q 299 30 321 59 q 225 -6 276 0 z "},"R":{"ha":381,"x_min":83,"x_max":342,"o":"m 311 0 l 211 451 l 153 451 l 153 479 l 196 479 q 266 503 245 479 q 289 581 287 526 q 292 714 291 647 q 292 848 292 781 q 289 982 291 915 q 266 1060 287 1036 q 197 1083 245 1083 l 167 1083 l 167 1111 l 197 1111 q 286 1081 258 1111 q 317 982 314 1051 q 320 837 319 907 q 320 703 322 767 q 317 581 319 639 q 240 457 313 475 l 342 0 l 311 0 m 83 0 l 83 1111 l 111 1111 l 111 0 l 83 0 z "},"Ŕ":{"ha":381,"x_min":83,"x_max":342,"o":"m 311 0 l 211 451 l 153 451 l 153 479 l 196 479 q 266 503 245 479 q 289 581 287 526 q 292 714 291 647 q 292 848 292 781 q 289 982 291 915 q 266 1060 287 1036 q 197 1083 245 1083 l 167 1083 l 167 1111 l 197 1111 q 286 1081 258 1111 q 317 982 314 1051 q 320 837 319 907 q 320 703 322 767 q 317 581 319 639 q 240 457 313 475 l 342 0 l 311 0 m 83 0 l 83 1111 l 111 1111 l 111 0 l 83 0 m 168 1167 l 244 1304 l 274 1304 l 197 1167 l 168 1167 z "},"Ř":{"ha":381,"x_min":83,"x_max":342,"o":"m 311 0 l 211 451 l 153 451 l 153 479 l 196 479 q 266 503 245 479 q 289 581 287 526 q 292 714 291 647 q 292 848 292 781 q 289 982 291 915 q 266 1060 287 1036 q 197 1083 245 1083 l 167 1083 l 167 1111 l 197 1111 q 286 1081 258 1111 q 317 982 314 1051 q 320 837 319 907 q 320 703 322 767 q 317 581 319 639 q 240 457 313 475 l 342 0 l 311 0 m 83 0 l 83 1111 l 111 1111 l 111 0 l 83 0 m 169 1167 l 93 1304 l 122 1304 l 185 1193 l 246 1304 l 275 1304 l 199 1167 l 169 1167 z "},"Ŗ":{"ha":381,"x_min":83,"x_max":342,"o":"m 311 0 l 211 451 l 153 451 l 153 479 l 196 479 q 266 503 245 479 q 289 581 287 526 q 292 714 291 647 q 292 848 292 781 q 289 982 291 915 q 266 1060 287 1036 q 197 1083 245 1083 l 167 1083 l 167 1111 l 197 1111 q 286 1081 258 1111 q 317 982 314 1051 q 320 837 319 907 q 320 703 322 767 q 317 581 319 639 q 240 457 313 475 l 342 0 l 311 0 m 83 0 l 83 1111 l 111 1111 l 111 0 l 83 0 m 182 -200 l 210 -125 l 172 -125 l 172 -56 l 242 -56 l 242 -117 l 213 -200 l 182 -200 z "},"Ȑ":{"ha":381,"x_min":10,"x_max":342,"o":"m 311 0 l 211 451 l 153 451 l 153 479 l 196 479 q 266 503 245 479 q 289 581 287 526 q 292 714 291 647 q 292 848 292 781 q 289 982 291 915 q 266 1060 287 1036 q 197 1083 245 1083 l 167 1083 l 167 1111 l 197 1111 q 286 1081 258 1111 q 317 982 314 1051 q 320 837 319 907 q 320 703 322 767 q 317 581 319 639 q 240 457 313 475 l 342 0 l 311 0 m 83 0 l 83 1111 l 111 1111 l 111 0 l 83 0 m 92 1167 l 10 1303 l 43 1303 l 125 1167 l 92 1167 m 203 1167 l 121 1303 l 154 1303 l 236 1167 l 203 1167 z "},"Ṛ":{"ha":381,"x_min":83,"x_max":342,"o":"m 311 0 l 211 451 l 153 451 l 153 479 l 196 479 q 266 503 245 479 q 289 581 287 526 q 292 714 291 647 q 292 848 292 781 q 289 982 291 915 q 266 1060 287 1036 q 197 1083 245 1083 l 167 1083 l 167 1111 l 197 1111 q 286 1081 258 1111 q 317 982 314 1051 q 320 837 319 907 q 320 703 322 767 q 317 581 319 639 q 240 457 313 475 l 342 0 l 311 0 m 83 0 l 83 1111 l 111 1111 l 111 0 l 83 0 m 183 -97 l 183 -56 l 225 -56 l 225 -97 l 183 -97 z "},"Ȓ":{"ha":381,"x_min":72,"x_max":342,"o":"m 311 0 l 211 451 l 153 451 l 153 479 l 196 479 q 266 503 245 479 q 289 581 287 526 q 292 714 291 647 q 292 848 292 781 q 289 982 291 915 q 266 1060 287 1036 q 197 1083 245 1083 l 167 1083 l 167 1111 l 197 1111 q 286 1081 258 1111 q 317 982 314 1051 q 320 837 319 907 q 320 703 322 767 q 317 581 319 639 q 240 457 313 475 l 342 0 l 311 0 m 83 0 l 83 1111 l 111 1111 l 111 0 l 83 0 m 183 1263 q 268 1236 242 1263 q 294 1150 294 1210 l 267 1150 q 248 1217 266 1198 q 183 1236 231 1236 q 119 1217 137 1236 q 100 1150 101 1198 l 72 1150 q 99 1236 74 1210 q 183 1263 125 1263 z "},"Ṟ":{"ha":381,"x_min":83,"x_max":342,"o":"m 311 0 l 211 451 l 153 451 l 153 479 l 196 479 q 266 503 245 479 q 289 581 287 526 q 292 714 291 647 q 292 848 292 781 q 289 982 291 915 q 266 1060 287 1036 q 197 1083 245 1083 l 167 1083 l 167 1111 l 197 1111 q 286 1081 258 1111 q 317 982 314 1051 q 320 837 319 907 q 320 703 322 767 q 317 581 319 639 q 240 457 313 475 l 342 0 l 311 0 m 83 0 l 83 1111 l 111 1111 l 111 0 l 83 0 m 103 -69 l 306 -69 l 306 -97 l 103 -97 l 103 -69 z "},"S":{"ha":356,"x_min":54,"x_max":303,"o":"m 153 -6 q 81 31 104 0 q 56 122 58 61 q 55 217 55 176 q 55 298 54 257 q 56 393 55 338 l 84 393 q 82 258 82 326 q 84 122 82 190 q 101 52 85 76 q 153 23 117 28 l 153 -6 m 209 -5 l 209 23 q 257 53 242 29 q 273 122 272 77 q 275 205 274 170 q 274 277 275 240 q 273 369 274 315 q 260 475 272 434 q 205 528 249 517 l 155 540 q 91 573 112 551 q 64 634 71 595 q 56 735 58 674 q 57 858 56 788 q 58 990 58 927 q 80 1081 58 1051 q 152 1117 101 1111 l 152 1088 q 102 1059 117 1083 q 85 989 87 1035 q 84 862 83 926 q 85 735 85 799 q 98 618 87 653 q 155 571 109 583 l 206 558 q 267 526 248 549 q 293 464 287 503 q 301 369 299 426 q 302 275 302 312 q 302 205 303 239 q 301 122 302 172 q 277 31 299 62 q 209 -5 255 1 m 269 743 q 271 866 271 805 q 269 989 271 928 q 253 1058 267 1034 q 208 1088 240 1081 l 208 1116 q 274 1080 253 1110 q 297 989 294 1049 q 298 883 298 947 q 297 743 298 819 l 269 743 z "},"Ś":{"ha":356,"x_min":54,"x_max":303,"o":"m 153 -6 q 81 31 104 0 q 56 122 58 61 q 55 217 55 176 q 55 298 54 257 q 56 393 55 338 l 84 393 q 82 258 82 326 q 84 122 82 190 q 101 52 85 76 q 153 23 117 28 l 153 -6 m 209 -5 l 209 23 q 257 53 242 29 q 273 122 272 77 q 275 205 274 170 q 274 277 275 240 q 273 369 274 315 q 260 475 272 434 q 205 528 249 517 l 155 540 q 91 573 112 551 q 64 634 71 595 q 56 735 58 674 q 57 858 56 788 q 58 990 58 927 q 80 1081 58 1051 q 152 1117 101 1111 l 152 1088 q 102 1059 117 1083 q 85 989 87 1035 q 84 862 83 926 q 85 735 85 799 q 98 618 87 653 q 155 571 109 583 l 206 558 q 267 526 248 549 q 293 464 287 503 q 301 369 299 426 q 302 275 302 312 q 302 205 303 239 q 301 122 302 172 q 277 31 299 62 q 209 -5 255 1 m 269 743 q 271 866 271 805 q 269 989 271 928 q 253 1058 267 1034 q 208 1088 240 1081 l 208 1116 q 274 1080 253 1110 q 297 989 294 1049 q 298 883 298 947 q 297 743 298 819 l 269 743 m 163 1167 l 240 1304 l 269 1304 l 192 1167 l 163 1167 z "},"Ṥ":{"ha":356,"x_min":54,"x_max":303,"o":"m 153 -6 q 81 31 104 0 q 56 122 58 61 q 55 217 55 176 q 55 298 54 257 q 56 393 55 338 l 84 393 q 82 258 82 326 q 84 122 82 190 q 101 52 85 76 q 153 23 117 28 l 153 -6 m 209 -5 l 209 23 q 257 53 242 29 q 273 122 272 77 q 275 205 274 170 q 274 277 275 240 q 273 369 274 315 q 260 475 272 434 q 205 528 249 517 l 155 540 q 91 573 112 551 q 64 634 71 595 q 56 735 58 674 q 57 858 56 788 q 58 990 58 927 q 80 1081 58 1051 q 152 1117 101 1111 l 152 1088 q 102 1059 117 1083 q 85 989 87 1035 q 84 862 83 926 q 85 735 85 799 q 98 618 87 653 q 155 571 109 583 l 206 558 q 267 526 248 549 q 293 464 287 503 q 301 369 299 426 q 302 275 302 312 q 302 205 303 239 q 301 122 302 172 q 277 31 299 62 q 209 -5 255 1 m 269 743 q 271 866 271 805 q 269 989 271 928 q 253 1058 267 1034 q 208 1088 240 1081 l 208 1116 q 274 1080 253 1110 q 297 989 294 1049 q 298 883 298 947 q 297 743 298 819 l 269 743 m 163 1167 l 240 1304 l 269 1304 l 192 1167 l 163 1167 m 158 1360 l 158 1401 l 199 1401 l 199 1360 l 158 1360 z "},"Š":{"ha":356,"x_min":54,"x_max":303,"o":"m 153 -6 q 81 31 104 0 q 56 122 58 61 q 55 217 55 176 q 55 298 54 257 q 56 393 55 338 l 84 393 q 82 258 82 326 q 84 122 82 190 q 101 52 85 76 q 153 23 117 28 l 153 -6 m 209 -5 l 209 23 q 257 53 242 29 q 273 122 272 77 q 275 205 274 170 q 274 277 275 240 q 273 369 274 315 q 260 475 272 434 q 205 528 249 517 l 155 540 q 91 573 112 551 q 64 634 71 595 q 56 735 58 674 q 57 858 56 788 q 58 990 58 927 q 80 1081 58 1051 q 152 1117 101 1111 l 152 1088 q 102 1059 117 1083 q 85 989 87 1035 q 84 862 83 926 q 85 735 85 799 q 98 618 87 653 q 155 571 109 583 l 206 558 q 267 526 248 549 q 293 464 287 503 q 301 369 299 426 q 302 275 302 312 q 302 205 303 239 q 301 122 302 172 q 277 31 299 62 q 209 -5 255 1 m 269 743 q 271 866 271 805 q 269 989 271 928 q 253 1058 267 1034 q 208 1088 240 1081 l 208 1116 q 274 1080 253 1110 q 297 989 294 1049 q 298 883 298 947 q 297 743 298 819 l 269 743 m 165 1167 l 88 1304 l 117 1304 l 180 1193 l 241 1304 l 270 1304 l 194 1167 l 165 1167 z "},"Ṧ":{"ha":356,"x_min":54,"x_max":303,"o":"m 153 -6 q 81 31 104 0 q 56 122 58 61 q 55 217 55 176 q 55 298 54 257 q 56 393 55 338 l 84 393 q 82 258 82 326 q 84 122 82 190 q 101 52 85 76 q 153 23 117 28 l 153 -6 m 209 -5 l 209 23 q 257 53 242 29 q 273 122 272 77 q 275 205 274 170 q 274 277 275 240 q 273 369 274 315 q 260 475 272 434 q 205 528 249 517 l 155 540 q 91 573 112 551 q 64 634 71 595 q 56 735 58 674 q 57 858 56 788 q 58 990 58 927 q 80 1081 58 1051 q 152 1117 101 1111 l 152 1088 q 102 1059 117 1083 q 85 989 87 1035 q 84 862 83 926 q 85 735 85 799 q 98 618 87 653 q 155 571 109 583 l 206 558 q 267 526 248 549 q 293 464 287 503 q 301 369 299 426 q 302 275 302 312 q 302 205 303 239 q 301 122 302 172 q 277 31 299 62 q 209 -5 255 1 m 269 743 q 271 866 271 805 q 269 989 271 928 q 253 1058 267 1034 q 208 1088 240 1081 l 208 1116 q 274 1080 253 1110 q 297 989 294 1049 q 298 883 298 947 q 297 743 298 819 l 269 743 m 165 1167 l 88 1304 l 117 1304 l 180 1193 l 241 1304 l 270 1304 l 194 1167 l 165 1167 m 158 1360 l 158 1401 l 199 1401 l 199 1360 l 158 1360 z "},"Ş":{"ha":356,"x_min":54,"x_max":303,"o":"m 153 -6 q 81 31 104 0 q 56 122 58 61 q 55 217 55 176 q 55 298 54 257 q 56 393 55 338 l 84 393 q 82 258 82 326 q 84 122 82 190 q 101 52 85 76 q 153 23 117 28 l 153 -6 m 209 -5 l 209 23 q 257 53 242 29 q 273 122 272 77 q 275 205 274 170 q 274 277 275 240 q 273 369 274 315 q 260 475 272 434 q 205 528 249 517 l 155 540 q 91 573 112 551 q 64 634 71 595 q 56 735 58 674 q 57 858 56 788 q 58 990 58 927 q 80 1081 58 1051 q 152 1117 101 1111 l 152 1088 q 102 1059 117 1083 q 85 989 87 1035 q 84 862 83 926 q 85 735 85 799 q 98 618 87 653 q 155 571 109 583 l 206 558 q 267 526 248 549 q 293 464 287 503 q 301 369 299 426 q 302 275 302 312 q 302 205 303 239 q 301 122 302 172 q 277 31 299 62 q 209 -5 255 1 m 269 743 q 271 866 271 805 q 269 989 271 928 q 253 1058 267 1034 q 208 1088 240 1081 l 208 1116 q 274 1080 253 1110 q 297 989 294 1049 q 298 883 298 947 q 297 743 298 819 l 269 743 m 108 -183 l 108 -158 l 146 -158 q 180 -145 171 -158 q 183 -107 189 -133 l 167 -28 l 194 -28 l 211 -107 q 202 -163 219 -143 q 146 -183 185 -183 l 108 -183 z "},"Ŝ":{"ha":356,"x_min":54,"x_max":303,"o":"m 153 -6 q 81 31 104 0 q 56 122 58 61 q 55 217 55 176 q 55 298 54 257 q 56 393 55 338 l 84 393 q 82 258 82 326 q 84 122 82 190 q 101 52 85 76 q 153 23 117 28 l 153 -6 m 209 -5 l 209 23 q 257 53 242 29 q 273 122 272 77 q 275 205 274 170 q 274 277 275 240 q 273 369 274 315 q 260 475 272 434 q 205 528 249 517 l 155 540 q 91 573 112 551 q 64 634 71 595 q 56 735 58 674 q 57 858 56 788 q 58 990 58 927 q 80 1081 58 1051 q 152 1117 101 1111 l 152 1088 q 102 1059 117 1083 q 85 989 87 1035 q 84 862 83 926 q 85 735 85 799 q 98 618 87 653 q 155 571 109 583 l 206 558 q 267 526 248 549 q 293 464 287 503 q 301 369 299 426 q 302 275 302 312 q 302 205 303 239 q 301 122 302 172 q 277 31 299 62 q 209 -5 255 1 m 269 743 q 271 866 271 805 q 269 989 271 928 q 253 1058 267 1034 q 208 1088 240 1081 l 208 1116 q 274 1080 253 1110 q 297 989 294 1049 q 298 883 298 947 q 297 743 298 819 l 269 743 m 88 1167 l 165 1304 l 194 1304 l 270 1167 l 238 1167 l 180 1275 l 120 1167 l 88 1167 z "},"Ș":{"ha":356,"x_min":54,"x_max":303,"o":"m 153 -6 q 81 31 104 0 q 56 122 58 61 q 55 217 55 176 q 55 298 54 257 q 56 393 55 338 l 84 393 q 82 258 82 326 q 84 122 82 190 q 101 52 85 76 q 153 23 117 28 l 153 -6 m 209 -5 l 209 23 q 257 53 242 29 q 273 122 272 77 q 275 205 274 170 q 274 277 275 240 q 273 369 274 315 q 260 475 272 434 q 205 528 249 517 l 155 540 q 91 573 112 551 q 64 634 71 595 q 56 735 58 674 q 57 858 56 788 q 58 990 58 927 q 80 1081 58 1051 q 152 1117 101 1111 l 152 1088 q 102 1059 117 1083 q 85 989 87 1035 q 84 862 83 926 q 85 735 85 799 q 98 618 87 653 q 155 571 109 583 l 206 558 q 267 526 248 549 q 293 464 287 503 q 301 369 299 426 q 302 275 302 312 q 302 205 303 239 q 301 122 302 172 q 277 31 299 62 q 209 -5 255 1 m 269 743 q 271 866 271 805 q 269 989 271 928 q 253 1058 267 1034 q 208 1088 240 1081 l 208 1116 q 274 1080 253 1110 q 297 989 294 1049 q 298 883 298 947 q 297 743 298 819 l 269 743 m 156 -200 l 184 -125 l 147 -125 l 147 -56 l 216 -56 l 216 -117 l 187 -200 l 156 -200 z "},"Ṡ":{"ha":356,"x_min":54,"x_max":303,"o":"m 153 -6 q 81 31 104 0 q 56 122 58 61 q 55 217 55 176 q 55 298 54 257 q 56 393 55 338 l 84 393 q 82 258 82 326 q 84 122 82 190 q 101 52 85 76 q 153 23 117 28 l 153 -6 m 209 -5 l 209 23 q 257 53 242 29 q 273 122 272 77 q 275 205 274 170 q 274 277 275 240 q 273 369 274 315 q 260 475 272 434 q 205 528 249 517 l 155 540 q 91 573 112 551 q 64 634 71 595 q 56 735 58 674 q 57 858 56 788 q 58 990 58 927 q 80 1081 58 1051 q 152 1117 101 1111 l 152 1088 q 102 1059 117 1083 q 85 989 87 1035 q 84 862 83 926 q 85 735 85 799 q 98 618 87 653 q 155 571 109 583 l 206 558 q 267 526 248 549 q 293 464 287 503 q 301 369 299 426 q 302 275 302 312 q 302 205 303 239 q 301 122 302 172 q 277 31 299 62 q 209 -5 255 1 m 269 743 q 271 866 271 805 q 269 989 271 928 q 253 1058 267 1034 q 208 1088 240 1081 l 208 1116 q 274 1080 253 1110 q 297 989 294 1049 q 298 883 298 947 q 297 743 298 819 l 269 743 m 158 1167 l 158 1208 l 199 1208 l 199 1167 l 158 1167 z "},"Ṣ":{"ha":356,"x_min":54,"x_max":303,"o":"m 153 -6 q 81 31 104 0 q 56 122 58 61 q 55 217 55 176 q 55 298 54 257 q 56 393 55 338 l 84 393 q 82 258 82 326 q 84 122 82 190 q 101 52 85 76 q 153 23 117 28 l 153 -6 m 209 -5 l 209 23 q 257 53 242 29 q 273 122 272 77 q 275 205 274 170 q 274 277 275 240 q 273 369 274 315 q 260 475 272 434 q 205 528 249 517 l 155 540 q 91 573 112 551 q 64 634 71 595 q 56 735 58 674 q 57 858 56 788 q 58 990 58 927 q 80 1081 58 1051 q 152 1117 101 1111 l 152 1088 q 102 1059 117 1083 q 85 989 87 1035 q 84 862 83 926 q 85 735 85 799 q 98 618 87 653 q 155 571 109 583 l 206 558 q 267 526 248 549 q 293 464 287 503 q 301 369 299 426 q 302 275 302 312 q 302 205 303 239 q 301 122 302 172 q 277 31 299 62 q 209 -5 255 1 m 269 743 q 271 866 271 805 q 269 989 271 928 q 253 1058 267 1034 q 208 1088 240 1081 l 208 1116 q 274 1080 253 1110 q 297 989 294 1049 q 298 883 298 947 q 297 743 298 819 l 269 743 m 158 -97 l 158 -56 l 199 -56 l 199 -97 l 158 -97 z "},"Ṩ":{"ha":356,"x_min":54,"x_max":303,"o":"m 153 -6 q 81 31 104 0 q 56 122 58 61 q 55 217 55 176 q 55 298 54 257 q 56 393 55 338 l 84 393 q 82 258 82 326 q 84 122 82 190 q 101 52 85 76 q 153 23 117 28 l 153 -6 m 209 -5 l 209 23 q 257 53 242 29 q 273 122 272 77 q 275 205 274 170 q 274 277 275 240 q 273 369 274 315 q 260 475 272 434 q 205 528 249 517 l 155 540 q 91 573 112 551 q 64 634 71 595 q 56 735 58 674 q 57 858 56 788 q 58 990 58 927 q 80 1081 58 1051 q 152 1117 101 1111 l 152 1088 q 102 1059 117 1083 q 85 989 87 1035 q 84 862 83 926 q 85 735 85 799 q 98 618 87 653 q 155 571 109 583 l 206 558 q 267 526 248 549 q 293 464 287 503 q 301 369 299 426 q 302 275 302 312 q 302 205 303 239 q 301 122 302 172 q 277 31 299 62 q 209 -5 255 1 m 269 743 q 271 866 271 805 q 269 989 271 928 q 253 1058 267 1034 q 208 1088 240 1081 l 208 1116 q 274 1080 253 1110 q 297 989 294 1049 q 298 883 298 947 q 297 743 298 819 l 269 743 m 158 -97 l 158 -56 l 199 -56 l 199 -97 l 158 -97 m 158 1167 l 158 1208 l 199 1208 l 199 1167 l 158 1167 z "},"ẞ":{"ha":429,"x_min":83,"x_max":341,"o":"m 83 0 l 83 985 q 112 1082 83 1053 q 206 1111 140 1111 l 332 1111 l 332 1083 l 206 1083 q 132 1062 153 1083 q 111 985 111 1041 l 111 0 l 83 0 m 167 0 l 167 28 l 206 28 q 284 55 260 28 q 311 143 309 82 q 313 274 313 214 q 311 404 313 335 q 288 510 309 478 q 218 542 266 542 l 185 542 l 185 568 l 294 1042 l 324 1042 l 217 569 q 309 532 281 569 q 339 404 337 494 q 341 317 340 356 q 341 238 341 278 q 339 143 340 197 q 306 33 337 66 q 206 0 274 0 l 167 0 z "},"T":{"ha":297,"x_min":14,"x_max":283,"o":"m 135 0 l 135 1056 l 163 1056 l 163 0 l 135 0 m 14 1083 l 14 1111 l 283 1111 l 283 1083 l 14 1083 z "},"Ŧ":{"ha":297,"x_min":14,"x_max":283,"o":"m 58 478 l 58 506 l 239 506 l 239 478 l 58 478 m 135 0 l 135 1056 l 163 1056 l 163 0 l 135 0 m 14 1083 l 14 1111 l 283 1111 l 283 1083 l 14 1083 z "},"Ť":{"ha":297,"x_min":14,"x_max":283,"o":"m 135 0 l 135 1056 l 163 1056 l 163 0 l 135 0 m 14 1083 l 14 1111 l 283 1111 l 283 1083 l 14 1083 m 135 1167 l 58 1304 l 88 1304 l 150 1193 l 211 1304 l 240 1304 l 164 1167 l 135 1167 z "},"Ţ":{"ha":297,"x_min":14,"x_max":283,"o":"m 135 0 l 135 1056 l 163 1056 l 163 0 l 135 0 m 14 1083 l 14 1111 l 283 1111 l 283 1083 l 14 1083 m 76 -183 l 76 -158 l 114 -158 q 148 -145 139 -158 q 151 -107 157 -133 l 135 -28 l 163 -28 l 179 -107 q 170 -163 187 -143 q 114 -183 153 -183 l 76 -183 z "},"Ț":{"ha":297,"x_min":14,"x_max":283,"o":"m 135 0 l 135 1056 l 163 1056 l 163 0 l 135 0 m 14 1083 l 14 1111 l 283 1111 l 283 1083 l 14 1083 m 126 -200 l 154 -125 l 117 -125 l 117 -56 l 186 -56 l 186 -117 l 157 -200 l 126 -200 z "},"Ṭ":{"ha":297,"x_min":14,"x_max":283,"o":"m 135 0 l 135 1056 l 163 1056 l 163 0 l 135 0 m 14 1083 l 14 1111 l 283 1111 l 283 1083 l 14 1083 m 128 -97 l 128 -56 l 169 -56 l 169 -97 l 128 -97 z "},"Ṯ":{"ha":297,"x_min":14,"x_max":283,"o":"m 135 0 l 135 1056 l 163 1056 l 163 0 l 135 0 m 14 1083 l 14 1111 l 283 1111 l 283 1083 l 14 1083 m 47 -69 l 250 -69 l 250 -97 l 47 -97 l 47 -69 z "},"U":{"ha":385,"x_min":71,"x_max":314,"o":"m 73 118 q 71 615 71 367 q 73 1111 71 863 l 101 1111 q 99 780 99 945 q 98 449 98 615 q 99 118 98 284 q 115 51 99 74 q 165 23 131 28 l 165 -6 q 96 30 117 0 q 73 118 74 59 m 220 -6 l 220 23 q 269 51 254 28 q 284 118 284 74 q 286 449 285 284 q 286 780 286 615 q 284 1111 285 945 l 312 1111 q 314 615 314 863 q 312 118 314 367 q 289 30 311 59 q 220 -6 267 0 z "},"Ú":{"ha":385,"x_min":71,"x_max":314,"o":"m 73 118 q 71 615 71 367 q 73 1111 71 863 l 101 1111 q 99 780 99 945 q 98 449 98 615 q 99 118 98 284 q 115 51 99 74 q 165 23 131 28 l 165 -6 q 96 30 117 0 q 73 118 74 59 m 220 -6 l 220 23 q 269 51 254 28 q 284 118 284 74 q 286 449 285 284 q 286 780 286 615 q 284 1111 285 945 l 312 1111 q 314 615 314 863 q 312 118 314 367 q 289 30 311 59 q 220 -6 267 0 m 177 1167 l 253 1304 l 283 1304 l 206 1167 l 177 1167 z "},"Ŭ":{"ha":385,"x_min":71,"x_max":314,"o":"m 73 118 q 71 615 71 367 q 73 1111 71 863 l 101 1111 q 99 780 99 945 q 98 449 98 615 q 99 118 98 284 q 115 51 99 74 q 165 23 131 28 l 165 -6 q 96 30 117 0 q 73 118 74 59 m 220 -6 l 220 23 q 269 51 254 28 q 284 118 284 74 q 286 449 285 284 q 286 780 286 615 q 284 1111 285 945 l 312 1111 q 314 615 314 863 q 312 118 314 367 q 289 30 311 59 q 220 -6 267 0 m 192 1164 q 108 1190 134 1164 q 81 1276 83 1216 l 109 1276 q 128 1209 110 1228 q 192 1190 146 1190 q 257 1209 240 1190 q 276 1276 275 1228 l 303 1276 q 277 1190 303 1216 q 192 1164 251 1164 z "},"Ǔ":{"ha":385,"x_min":71,"x_max":314,"o":"m 73 118 q 71 615 71 367 q 73 1111 71 863 l 101 1111 q 99 780 99 945 q 98 449 98 615 q 99 118 98 284 q 115 51 99 74 q 165 23 131 28 l 165 -6 q 96 30 117 0 q 73 118 74 59 m 220 -6 l 220 23 q 269 51 254 28 q 284 118 284 74 q 286 449 285 284 q 286 780 286 615 q 284 1111 285 945 l 312 1111 q 314 615 314 863 q 312 118 314 367 q 289 30 311 59 q 220 -6 267 0 m 178 1167 l 102 1304 l 131 1304 l 194 1193 l 255 1304 l 284 1304 l 208 1167 l 178 1167 z "},"Û":{"ha":385,"x_min":71,"x_max":314,"o":"m 73 118 q 71 615 71 367 q 73 1111 71 863 l 101 1111 q 99 780 99 945 q 98 449 98 615 q 99 118 98 284 q 115 51 99 74 q 165 23 131 28 l 165 -6 q 96 30 117 0 q 73 118 74 59 m 220 -6 l 220 23 q 269 51 254 28 q 284 118 284 74 q 286 449 285 284 q 286 780 286 615 q 284 1111 285 945 l 312 1111 q 314 615 314 863 q 312 118 314 367 q 289 30 311 59 q 220 -6 267 0 m 102 1167 l 178 1304 l 208 1304 l 284 1167 l 252 1167 l 194 1275 l 134 1167 l 102 1167 z "},"Ȕ":{"ha":385,"x_min":19,"x_max":314,"o":"m 73 118 q 71 615 71 367 q 73 1111 71 863 l 101 1111 q 99 780 99 945 q 98 449 98 615 q 99 118 98 284 q 115 51 99 74 q 165 23 131 28 l 165 -6 q 96 30 117 0 q 73 118 74 59 m 220 -6 l 220 23 q 269 51 254 28 q 284 118 284 74 q 286 449 285 284 q 286 780 286 615 q 284 1111 285 945 l 312 1111 q 314 615 314 863 q 312 118 314 367 q 289 30 311 59 q 220 -6 267 0 m 101 1167 l 19 1303 l 52 1303 l 134 1167 l 101 1167 m 212 1167 l 130 1303 l 163 1303 l 245 1167 l 212 1167 z "},"Ü":{"ha":385,"x_min":71,"x_max":314,"o":"m 73 118 q 71 615 71 367 q 73 1111 71 863 l 101 1111 q 99 780 99 945 q 98 449 98 615 q 99 118 98 284 q 115 51 99 74 q 165 23 131 28 l 165 -6 q 96 30 117 0 q 73 118 74 59 m 220 -6 l 220 23 q 269 51 254 28 q 284 118 284 74 q 286 449 285 284 q 286 780 286 615 q 284 1111 285 945 l 312 1111 q 314 615 314 863 q 312 118 314 367 q 289 30 311 59 q 220 -6 267 0 m 213 1167 l 213 1208 l 255 1208 l 255 1167 l 213 1167 m 130 1167 l 130 1208 l 172 1208 l 172 1167 l 130 1167 z "},"Ǘ":{"ha":385,"x_min":71,"x_max":314,"o":"m 73 118 q 71 615 71 367 q 73 1111 71 863 l 101 1111 q 99 780 99 945 q 98 449 98 615 q 99 118 98 284 q 115 51 99 74 q 165 23 131 28 l 165 -6 q 96 30 117 0 q 73 118 74 59 m 220 -6 l 220 23 q 269 51 254 28 q 284 118 284 74 q 286 449 285 284 q 286 780 286 615 q 284 1111 285 945 l 312 1111 q 314 615 314 863 q 312 118 314 367 q 289 30 311 59 q 220 -6 267 0 m 213 1167 l 213 1208 l 255 1208 l 255 1167 l 213 1167 m 130 1167 l 130 1208 l 172 1208 l 172 1167 l 130 1167 m 177 1264 l 253 1401 l 283 1401 l 206 1264 l 177 1264 z "},"Ǚ":{"ha":385,"x_min":71,"x_max":314,"o":"m 73 118 q 71 615 71 367 q 73 1111 71 863 l 101 1111 q 99 780 99 945 q 98 449 98 615 q 99 118 98 284 q 115 51 99 74 q 165 23 131 28 l 165 -6 q 96 30 117 0 q 73 118 74 59 m 220 -6 l 220 23 q 269 51 254 28 q 284 118 284 74 q 286 449 285 284 q 286 780 286 615 q 284 1111 285 945 l 312 1111 q 314 615 314 863 q 312 118 314 367 q 289 30 311 59 q 220 -6 267 0 m 213 1167 l 213 1208 l 255 1208 l 255 1167 l 213 1167 m 130 1167 l 130 1208 l 172 1208 l 172 1167 l 130 1167 m 178 1264 l 102 1401 l 131 1401 l 194 1290 l 255 1401 l 284 1401 l 208 1264 l 178 1264 z "},"Ǜ":{"ha":385,"x_min":71,"x_max":314,"o":"m 73 118 q 71 615 71 367 q 73 1111 71 863 l 101 1111 q 99 780 99 945 q 98 449 98 615 q 99 118 98 284 q 115 51 99 74 q 165 23 131 28 l 165 -6 q 96 30 117 0 q 73 118 74 59 m 220 -6 l 220 23 q 269 51 254 28 q 284 118 284 74 q 286 449 285 284 q 286 780 286 615 q 284 1111 285 945 l 312 1111 q 314 615 314 863 q 312 118 314 367 q 289 30 311 59 q 220 -6 267 0 m 213 1167 l 213 1208 l 255 1208 l 255 1167 l 213 1167 m 130 1167 l 130 1208 l 172 1208 l 172 1167 l 130 1167 m 177 1264 l 101 1401 l 130 1401 l 206 1264 l 177 1264 z "},"Ǖ":{"ha":385,"x_min":71,"x_max":314,"o":"m 73 118 q 71 615 71 367 q 73 1111 71 863 l 101 1111 q 99 780 99 945 q 98 449 98 615 q 99 118 98 284 q 115 51 99 74 q 165 23 131 28 l 165 -6 q 96 30 117 0 q 73 118 74 59 m 220 -6 l 220 23 q 269 51 254 28 q 284 118 284 74 q 286 449 285 284 q 286 780 286 615 q 284 1111 285 945 l 312 1111 q 314 615 314 863 q 312 118 314 367 q 289 30 311 59 q 220 -6 267 0 m 213 1167 l 213 1208 l 255 1208 l 255 1167 l 213 1167 m 130 1167 l 130 1208 l 172 1208 l 172 1167 l 130 1167 m 91 1292 l 294 1292 l 294 1264 l 91 1264 l 91 1292 z "},"Ụ":{"ha":385,"x_min":71,"x_max":314,"o":"m 73 118 q 71 615 71 367 q 73 1111 71 863 l 101 1111 q 99 780 99 945 q 98 449 98 615 q 99 118 98 284 q 115 51 99 74 q 165 23 131 28 l 165 -6 q 96 30 117 0 q 73 118 74 59 m 220 -6 l 220 23 q 269 51 254 28 q 284 118 284 74 q 286 449 285 284 q 286 780 286 615 q 284 1111 285 945 l 312 1111 q 314 615 314 863 q 312 118 314 367 q 289 30 311 59 q 220 -6 267 0 m 172 -97 l 172 -56 l 213 -56 l 213 -97 l 172 -97 z "},"Ù":{"ha":385,"x_min":71,"x_max":314,"o":"m 73 118 q 71 615 71 367 q 73 1111 71 863 l 101 1111 q 99 780 99 945 q 98 449 98 615 q 99 118 98 284 q 115 51 99 74 q 165 23 131 28 l 165 -6 q 96 30 117 0 q 73 118 74 59 m 220 -6 l 220 23 q 269 51 254 28 q 284 118 284 74 q 286 449 285 284 q 286 780 286 615 q 284 1111 285 945 l 312 1111 q 314 615 314 863 q 312 118 314 367 q 289 30 311 59 q 220 -6 267 0 m 177 1167 l 101 1304 l 130 1304 l 206 1167 l 177 1167 z "},"Ủ":{"ha":385,"x_min":71,"x_max":314,"o":"m 73 118 q 71 615 71 367 q 73 1111 71 863 l 101 1111 q 99 780 99 945 q 98 449 98 615 q 99 118 98 284 q 115 51 99 74 q 165 23 131 28 l 165 -6 q 96 30 117 0 q 73 118 74 59 m 220 -6 l 220 23 q 269 51 254 28 q 284 118 284 74 q 286 449 285 284 q 286 780 286 615 q 284 1111 285 945 l 312 1111 q 314 615 314 863 q 312 118 314 367 q 289 30 311 59 q 220 -6 267 0 m 194 1194 l 203 1239 q 200 1259 206 1253 q 176 1265 193 1265 l 149 1265 l 149 1288 l 176 1288 q 220 1276 208 1288 q 228 1239 233 1265 l 219 1194 l 194 1194 z "},"Ư":{"ha":385,"x_min":71,"x_max":412,"o":"m 73 118 q 71 615 71 367 q 73 1111 71 863 l 101 1111 q 99 780 99 945 q 98 449 98 615 q 99 118 98 284 q 115 51 99 74 q 165 23 131 28 l 165 -6 q 96 30 117 0 q 73 118 74 59 m 220 -6 l 220 23 q 269 51 254 28 q 284 118 284 74 q 286 449 285 284 q 286 780 286 615 q 284 1111 285 945 l 312 1111 q 314 615 314 863 q 312 118 314 367 q 289 30 311 59 q 220 -6 267 0 m 299 1083 q 286 1086 293 1083 l 284 1111 q 292 1111 288 1111 q 299 1111 295 1111 q 364 1130 347 1111 q 383 1196 381 1148 q 384 1224 383 1210 q 384 1251 384 1238 q 383 1279 383 1265 l 410 1279 q 411 1251 411 1265 q 411 1224 412 1238 q 410 1196 411 1210 q 383 1109 408 1135 q 299 1083 358 1083 z "},"Ứ":{"ha":385,"x_min":71,"x_max":412,"o":"m 73 118 q 71 615 71 367 q 73 1111 71 863 l 101 1111 q 99 780 99 945 q 98 449 98 615 q 99 118 98 284 q 115 51 99 74 q 165 23 131 28 l 165 -6 q 96 30 117 0 q 73 118 74 59 m 220 -6 l 220 23 q 269 51 254 28 q 284 118 284 74 q 286 449 285 284 q 286 780 286 615 q 284 1111 285 945 l 312 1111 q 314 615 314 863 q 312 118 314 367 q 289 30 311 59 q 220 -6 267 0 m 299 1083 q 286 1086 293 1083 l 284 1111 q 292 1111 288 1111 q 299 1111 295 1111 q 364 1130 347 1111 q 383 1196 381 1148 q 384 1224 383 1210 q 384 1251 384 1238 q 383 1279 383 1265 l 410 1279 q 411 1251 411 1265 q 411 1224 412 1238 q 410 1196 411 1210 q 383 1109 408 1135 q 299 1083 358 1083 m 177 1167 l 253 1304 l 283 1304 l 206 1167 l 177 1167 z "},"Ự":{"ha":385,"x_min":71,"x_max":412,"o":"m 73 118 q 71 615 71 367 q 73 1111 71 863 l 101 1111 q 99 780 99 945 q 98 449 98 615 q 99 118 98 284 q 115 51 99 74 q 165 23 131 28 l 165 -6 q 96 30 117 0 q 73 118 74 59 m 220 -6 l 220 23 q 269 51 254 28 q 284 118 284 74 q 286 449 285 284 q 286 780 286 615 q 284 1111 285 945 l 312 1111 q 314 615 314 863 q 312 118 314 367 q 289 30 311 59 q 220 -6 267 0 m 299 1083 q 286 1086 293 1083 l 284 1111 q 292 1111 288 1111 q 299 1111 295 1111 q 364 1130 347 1111 q 383 1196 381 1148 q 384 1224 383 1210 q 384 1251 384 1238 q 383 1279 383 1265 l 410 1279 q 411 1251 411 1265 q 411 1224 412 1238 q 410 1196 411 1210 q 383 1109 408 1135 q 299 1083 358 1083 m 172 -97 l 172 -56 l 213 -56 l 213 -97 l 172 -97 z "},"Ừ":{"ha":385,"x_min":71,"x_max":412,"o":"m 73 118 q 71 615 71 367 q 73 1111 71 863 l 101 1111 q 99 780 99 945 q 98 449 98 615 q 99 118 98 284 q 115 51 99 74 q 165 23 131 28 l 165 -6 q 96 30 117 0 q 73 118 74 59 m 220 -6 l 220 23 q 269 51 254 28 q 284 118 284 74 q 286 449 285 284 q 286 780 286 615 q 284 1111 285 945 l 312 1111 q 314 615 314 863 q 312 118 314 367 q 289 30 311 59 q 220 -6 267 0 m 299 1083 q 286 1086 293 1083 l 284 1111 q 292 1111 288 1111 q 299 1111 295 1111 q 364 1130 347 1111 q 383 1196 381 1148 q 384 1224 383 1210 q 384 1251 384 1238 q 383 1279 383 1265 l 410 1279 q 411 1251 411 1265 q 411 1224 412 1238 q 410 1196 411 1210 q 383 1109 408 1135 q 299 1083 358 1083 m 177 1167 l 101 1304 l 130 1304 l 206 1167 l 177 1167 z "},"Ử":{"ha":385,"x_min":71,"x_max":412,"o":"m 73 118 q 71 615 71 367 q 73 1111 71 863 l 101 1111 q 99 780 99 945 q 98 449 98 615 q 99 118 98 284 q 115 51 99 74 q 165 23 131 28 l 165 -6 q 96 30 117 0 q 73 118 74 59 m 220 -6 l 220 23 q 269 51 254 28 q 284 118 284 74 q 286 449 285 284 q 286 780 286 615 q 284 1111 285 945 l 312 1111 q 314 615 314 863 q 312 118 314 367 q 289 30 311 59 q 220 -6 267 0 m 299 1083 q 286 1086 293 1083 l 284 1111 q 292 1111 288 1111 q 299 1111 295 1111 q 364 1130 347 1111 q 383 1196 381 1148 q 384 1224 383 1210 q 384 1251 384 1238 q 383 1279 383 1265 l 410 1279 q 411 1251 411 1265 q 411 1224 412 1238 q 410 1196 411 1210 q 383 1109 408 1135 q 299 1083 358 1083 m 194 1194 l 203 1239 q 200 1259 206 1253 q 176 1265 193 1265 l 149 1265 l 149 1288 l 176 1288 q 220 1276 208 1288 q 228 1239 233 1265 l 219 1194 l 194 1194 z "},"Ữ":{"ha":385,"x_min":69,"x_max":412,"o":"m 73 118 q 71 615 71 367 q 73 1111 71 863 l 101 1111 q 99 780 99 945 q 98 449 98 615 q 99 118 98 284 q 115 51 99 74 q 165 23 131 28 l 165 -6 q 96 30 117 0 q 73 118 74 59 m 220 -6 l 220 23 q 269 51 254 28 q 284 118 284 74 q 286 449 285 284 q 286 780 286 615 q 284 1111 285 945 l 312 1111 q 314 615 314 863 q 312 118 314 367 q 289 30 311 59 q 220 -6 267 0 m 299 1083 q 286 1086 293 1083 l 284 1111 q 292 1111 288 1111 q 299 1111 295 1111 q 364 1130 347 1111 q 383 1196 381 1148 q 384 1224 383 1210 q 384 1251 384 1238 q 383 1279 383 1265 l 410 1279 q 411 1251 411 1265 q 411 1224 412 1238 q 410 1196 411 1210 q 383 1109 408 1135 q 299 1083 358 1083 m 290 1278 l 316 1278 q 294 1222 318 1244 q 235 1204 269 1200 q 202 1217 213 1207 q 182 1238 192 1227 q 155 1253 172 1248 q 119 1249 140 1257 q 95 1208 99 1241 l 69 1208 q 103 1271 73 1256 q 163 1279 133 1287 q 190 1268 179 1276 q 207 1252 200 1260 q 222 1237 215 1244 q 241 1229 230 1231 q 277 1242 264 1226 q 290 1278 291 1257 z "},"Ű":{"ha":385,"x_min":71,"x_max":315,"o":"m 73 118 q 71 615 71 367 q 73 1111 71 863 l 101 1111 q 99 780 99 945 q 98 449 98 615 q 99 118 98 284 q 115 51 99 74 q 165 23 131 28 l 165 -6 q 96 30 117 0 q 73 118 74 59 m 220 -6 l 220 23 q 269 51 254 28 q 284 118 284 74 q 286 449 285 284 q 286 780 286 615 q 284 1111 285 945 l 312 1111 q 314 615 314 863 q 312 118 314 367 q 289 30 311 59 q 220 -6 267 0 m 126 1167 l 202 1304 l 231 1304 l 155 1167 l 126 1167 m 209 1167 l 285 1304 l 315 1304 l 238 1167 l 209 1167 z "},"Ȗ":{"ha":385,"x_min":71,"x_max":314,"o":"m 73 118 q 71 615 71 367 q 73 1111 71 863 l 101 1111 q 99 780 99 945 q 98 449 98 615 q 99 118 98 284 q 115 51 99 74 q 165 23 131 28 l 165 -6 q 96 30 117 0 q 73 118 74 59 m 220 -6 l 220 23 q 269 51 254 28 q 284 118 284 74 q 286 449 285 284 q 286 780 286 615 q 284 1111 285 945 l 312 1111 q 314 615 314 863 q 312 118 314 367 q 289 30 311 59 q 220 -6 267 0 m 192 1263 q 277 1236 251 1263 q 303 1150 303 1210 l 276 1150 q 257 1217 275 1198 q 192 1236 240 1236 q 128 1217 146 1236 q 109 1150 110 1198 l 81 1150 q 108 1236 83 1210 q 192 1263 134 1263 z "},"Ū":{"ha":385,"x_min":71,"x_max":314,"o":"m 73 118 q 71 615 71 367 q 73 1111 71 863 l 101 1111 q 99 780 99 945 q 98 449 98 615 q 99 118 98 284 q 115 51 99 74 q 165 23 131 28 l 165 -6 q 96 30 117 0 q 73 118 74 59 m 220 -6 l 220 23 q 269 51 254 28 q 284 118 284 74 q 286 449 285 284 q 286 780 286 615 q 284 1111 285 945 l 312 1111 q 314 615 314 863 q 312 118 314 367 q 289 30 311 59 q 220 -6 267 0 m 91 1194 l 294 1194 l 294 1167 l 91 1167 l 91 1194 z "},"Ṻ":{"ha":385,"x_min":71,"x_max":314,"o":"m 73 118 q 71 615 71 367 q 73 1111 71 863 l 101 1111 q 99 780 99 945 q 98 449 98 615 q 99 118 98 284 q 115 51 99 74 q 165 23 131 28 l 165 -6 q 96 30 117 0 q 73 118 74 59 m 220 -6 l 220 23 q 269 51 254 28 q 284 118 284 74 q 286 449 285 284 q 286 780 286 615 q 284 1111 285 945 l 312 1111 q 314 615 314 863 q 312 118 314 367 q 289 30 311 59 q 220 -6 267 0 m 91 1194 l 294 1194 l 294 1167 l 91 1167 l 91 1194 m 213 1250 l 213 1292 l 255 1292 l 255 1250 l 213 1250 m 130 1250 l 130 1292 l 172 1292 l 172 1250 l 130 1250 z "},"Ų":{"ha":385,"x_min":71,"x_max":314,"o":"m 73 118 q 71 615 71 367 q 73 1111 71 863 l 101 1111 q 99 780 99 945 q 98 449 98 615 q 99 118 98 284 q 115 51 99 74 q 165 23 131 28 l 165 -6 q 96 30 117 0 q 73 118 74 59 m 220 -6 l 220 23 q 269 51 254 28 q 284 118 284 74 q 286 449 285 284 q 286 780 286 615 q 284 1111 285 945 l 312 1111 q 314 615 314 863 q 312 118 314 367 q 289 30 311 59 q 220 -6 267 0 m 281 -211 l 243 -211 q 187 -191 203 -211 q 178 -135 171 -171 l 194 -56 l 222 -56 l 206 -135 q 209 -173 201 -160 q 243 -186 218 -186 l 281 -186 l 281 -211 z "},"Ů":{"ha":385,"x_min":71,"x_max":314,"o":"m 73 118 q 71 615 71 367 q 73 1111 71 863 l 101 1111 q 99 780 99 945 q 98 449 98 615 q 99 118 98 284 q 115 51 99 74 q 165 23 131 28 l 165 -6 q 96 30 117 0 q 73 118 74 59 m 220 -6 l 220 23 q 269 51 254 28 q 284 118 284 74 q 286 449 285 284 q 286 780 286 615 q 284 1111 285 945 l 312 1111 q 314 615 314 863 q 312 118 314 367 q 289 30 311 59 q 220 -6 267 0 m 192 1164 q 148 1182 167 1164 q 128 1228 128 1201 q 148 1273 128 1254 q 192 1292 167 1292 q 238 1273 219 1292 q 256 1228 256 1254 q 238 1182 256 1201 q 192 1164 219 1164 m 192 1190 q 219 1201 208 1190 q 230 1228 230 1213 q 219 1255 230 1244 q 192 1265 208 1265 q 166 1255 177 1265 q 155 1228 155 1244 q 166 1201 155 1213 q 192 1190 177 1190 z "},"Ũ":{"ha":385,"x_min":69,"x_max":318,"o":"m 73 118 q 71 615 71 367 q 73 1111 71 863 l 101 1111 q 99 780 99 945 q 98 449 98 615 q 99 118 98 284 q 115 51 99 74 q 165 23 131 28 l 165 -6 q 96 30 117 0 q 73 118 74 59 m 220 -6 l 220 23 q 269 51 254 28 q 284 118 284 74 q 286 449 285 284 q 286 780 286 615 q 284 1111 285 945 l 312 1111 q 314 615 314 863 q 312 118 314 367 q 289 30 311 59 q 220 -6 267 0 m 290 1218 l 316 1218 q 294 1162 318 1184 q 235 1144 269 1140 q 202 1157 213 1147 q 182 1178 192 1167 q 155 1193 172 1188 q 119 1189 140 1197 q 95 1149 99 1181 l 69 1149 q 103 1211 73 1196 q 163 1219 133 1227 q 190 1208 179 1216 q 207 1192 200 1201 q 222 1177 215 1184 q 241 1169 230 1171 q 277 1182 264 1167 q 290 1218 291 1197 z "},"Ṹ":{"ha":385,"x_min":69,"x_max":318,"o":"m 73 118 q 71 615 71 367 q 73 1111 71 863 l 101 1111 q 99 780 99 945 q 98 449 98 615 q 99 118 98 284 q 115 51 99 74 q 165 23 131 28 l 165 -6 q 96 30 117 0 q 73 118 74 59 m 220 -6 l 220 23 q 269 51 254 28 q 284 118 284 74 q 286 449 285 284 q 286 780 286 615 q 284 1111 285 945 l 312 1111 q 314 615 314 863 q 312 118 314 367 q 289 30 311 59 q 220 -6 267 0 m 290 1218 l 316 1218 q 294 1162 318 1184 q 235 1144 269 1140 q 202 1157 213 1147 q 182 1178 192 1167 q 155 1193 172 1188 q 119 1189 140 1197 q 95 1149 99 1181 l 69 1149 q 103 1211 73 1196 q 163 1219 133 1227 q 190 1208 179 1216 q 207 1192 200 1201 q 222 1177 215 1184 q 241 1169 230 1171 q 277 1182 264 1167 q 290 1218 291 1197 m 172 1303 l 248 1440 l 277 1440 l 201 1303 l 172 1303 z "},"V":{"ha":360,"x_min":45,"x_max":315,"o":"m 45 1111 l 76 1111 l 134 458 l 170 56 l 142 56 l 45 1111 m 145 28 l 188 28 l 226 458 l 284 1111 l 315 1111 l 212 0 l 148 0 l 145 28 z "},"W":{"ha":543,"x_min":63,"x_max":481,"o":"m 356 0 l 328 394 l 279 1076 l 263 1076 l 213 394 l 189 56 l 164 56 l 211 743 l 238 1104 l 303 1104 l 328 743 l 379 28 l 421 28 l 419 0 l 356 0 m 121 0 l 63 1111 l 90 1111 l 108 743 l 144 28 l 187 28 l 185 0 l 121 0 m 397 56 l 435 743 l 453 1111 l 481 1111 l 422 56 l 397 56 z "},"Ẃ":{"ha":543,"x_min":63,"x_max":481,"o":"m 356 0 l 328 394 l 279 1076 l 263 1076 l 213 394 l 189 56 l 164 56 l 211 743 l 238 1104 l 303 1104 l 328 743 l 379 28 l 421 28 l 419 0 l 356 0 m 121 0 l 63 1111 l 90 1111 l 108 743 l 144 28 l 187 28 l 185 0 l 121 0 m 397 56 l 435 743 l 453 1111 l 481 1111 l 422 56 l 397 56 m 257 1167 l 333 1304 l 363 1304 l 286 1167 l 257 1167 z "},"Ŵ":{"ha":543,"x_min":63,"x_max":481,"o":"m 356 0 l 328 394 l 279 1076 l 263 1076 l 213 394 l 189 56 l 164 56 l 211 743 l 238 1104 l 303 1104 l 328 743 l 379 28 l 421 28 l 419 0 l 356 0 m 121 0 l 63 1111 l 90 1111 l 108 743 l 144 28 l 187 28 l 185 0 l 121 0 m 397 56 l 435 743 l 453 1111 l 481 1111 l 422 56 l 397 56 m 182 1167 l 258 1304 l 288 1304 l 364 1167 l 332 1167 l 274 1275 l 214 1167 l 182 1167 z "},"Ẅ":{"ha":543,"x_min":63,"x_max":481,"o":"m 356 0 l 328 394 l 279 1076 l 263 1076 l 213 394 l 189 56 l 164 56 l 211 743 l 238 1104 l 303 1104 l 328 743 l 379 28 l 421 28 l 419 0 l 356 0 m 121 0 l 63 1111 l 90 1111 l 108 743 l 144 28 l 187 28 l 185 0 l 121 0 m 397 56 l 435 743 l 453 1111 l 481 1111 l 422 56 l 397 56 m 293 1167 l 293 1208 l 335 1208 l 335 1167 l 293 1167 m 210 1167 l 210 1208 l 251 1208 l 251 1167 l 210 1167 z "},"Ẁ":{"ha":543,"x_min":63,"x_max":481,"o":"m 356 0 l 328 394 l 279 1076 l 263 1076 l 213 394 l 189 56 l 164 56 l 211 743 l 238 1104 l 303 1104 l 328 743 l 379 28 l 421 28 l 419 0 l 356 0 m 121 0 l 63 1111 l 90 1111 l 108 743 l 144 28 l 187 28 l 185 0 l 121 0 m 397 56 l 435 743 l 453 1111 l 481 1111 l 422 56 l 397 56 m 257 1167 l 181 1304 l 210 1304 l 286 1167 l 257 1167 z "},"X":{"ha":325,"x_min":29,"x_max":296,"o":"m 29 0 l 129 517 l 151 517 l 107 275 l 56 0 l 29 0 m 36 1111 l 63 1111 l 110 847 l 158 572 l 186 572 l 296 0 l 269 0 l 218 275 l 167 544 l 139 544 l 36 1111 m 174 600 l 215 847 l 263 1111 l 289 1111 l 197 600 l 174 600 z "},"Y":{"ha":342,"x_min":35,"x_max":307,"o":"m 156 0 l 156 304 l 156 306 l 35 1111 l 64 1111 l 114 772 l 160 460 l 206 460 l 183 306 l 183 304 l 183 0 l 156 0 m 188 488 l 229 772 l 279 1111 l 307 1111 l 214 488 l 188 488 z "},"Ý":{"ha":342,"x_min":35,"x_max":307,"o":"m 156 0 l 156 304 l 156 306 l 35 1111 l 64 1111 l 114 772 l 160 460 l 206 460 l 183 306 l 183 304 l 183 0 l 156 0 m 188 488 l 229 772 l 279 1111 l 307 1111 l 214 488 l 188 488 m 154 1167 l 231 1304 l 260 1304 l 183 1167 l 154 1167 z "},"Ŷ":{"ha":342,"x_min":35,"x_max":307,"o":"m 156 0 l 156 304 l 156 306 l 35 1111 l 64 1111 l 114 772 l 160 460 l 206 460 l 183 306 l 183 304 l 183 0 l 156 0 m 188 488 l 229 772 l 279 1111 l 307 1111 l 214 488 l 188 488 m 79 1167 l 156 1304 l 185 1304 l 261 1167 l 229 1167 l 171 1275 l 111 1167 l 79 1167 z "},"Ÿ":{"ha":342,"x_min":35,"x_max":307,"o":"m 156 0 l 156 304 l 156 306 l 35 1111 l 64 1111 l 114 772 l 160 460 l 206 460 l 183 306 l 183 304 l 183 0 l 156 0 m 188 488 l 229 772 l 279 1111 l 307 1111 l 214 488 l 188 488 m 190 1167 l 190 1208 l 232 1208 l 232 1167 l 190 1167 m 107 1167 l 107 1208 l 149 1208 l 149 1167 l 107 1167 z "},"Ẏ":{"ha":342,"x_min":35,"x_max":307,"o":"m 156 0 l 156 304 l 156 306 l 35 1111 l 64 1111 l 114 772 l 160 460 l 206 460 l 183 306 l 183 304 l 183 0 l 156 0 m 188 488 l 229 772 l 279 1111 l 307 1111 l 214 488 l 188 488 m 149 1167 l 149 1208 l 190 1208 l 190 1167 l 149 1167 z "},"Ỵ":{"ha":342,"x_min":35,"x_max":307,"o":"m 156 0 l 156 304 l 156 306 l 35 1111 l 64 1111 l 114 772 l 160 460 l 206 460 l 183 306 l 183 304 l 183 0 l 156 0 m 188 488 l 229 772 l 279 1111 l 307 1111 l 214 488 l 188 488 m 149 -97 l 149 -56 l 190 -56 l 190 -97 l 149 -97 z "},"Ỳ":{"ha":342,"x_min":35,"x_max":307,"o":"m 156 0 l 156 304 l 156 306 l 35 1111 l 64 1111 l 114 772 l 160 460 l 206 460 l 183 306 l 183 304 l 183 0 l 156 0 m 188 488 l 229 772 l 279 1111 l 307 1111 l 214 488 l 188 488 m 154 1167 l 78 1304 l 107 1304 l 183 1167 l 154 1167 z "},"Ỷ":{"ha":342,"x_min":35,"x_max":307,"o":"m 156 0 l 156 304 l 156 306 l 35 1111 l 64 1111 l 114 772 l 160 460 l 206 460 l 183 306 l 183 304 l 183 0 l 156 0 m 188 488 l 229 772 l 279 1111 l 307 1111 l 214 488 l 188 488 m 166 1194 l 175 1239 q 172 1259 178 1253 q 149 1265 165 1265 l 121 1265 l 121 1288 l 149 1288 q 193 1276 180 1288 q 200 1239 206 1265 l 191 1194 l 166 1194 z "},"Ȳ":{"ha":342,"x_min":35,"x_max":307,"o":"m 156 0 l 156 304 l 156 306 l 35 1111 l 64 1111 l 114 772 l 160 460 l 206 460 l 183 306 l 183 304 l 183 0 l 156 0 m 188 488 l 229 772 l 279 1111 l 307 1111 l 214 488 l 188 488 m 68 1194 l 271 1194 l 271 1167 l 68 1167 l 68 1194 z "},"Ỹ":{"ha":342,"x_min":35,"x_max":307,"o":"m 156 0 l 156 304 l 156 306 l 35 1111 l 64 1111 l 114 772 l 160 460 l 206 460 l 183 306 l 183 304 l 183 0 l 156 0 m 188 488 l 229 772 l 279 1111 l 307 1111 l 214 488 l 188 488 m 267 1218 l 293 1218 q 271 1162 295 1184 q 212 1144 247 1140 q 180 1157 190 1147 q 159 1178 169 1167 q 132 1193 149 1188 q 96 1189 117 1197 q 72 1149 76 1181 l 46 1149 q 80 1211 50 1196 q 140 1219 110 1227 q 167 1208 156 1216 q 184 1192 177 1201 q 199 1177 192 1184 q 218 1169 207 1171 q 255 1182 241 1167 q 267 1218 268 1197 z "},"Z":{"ha":332,"x_min":28,"x_max":304,"o":"m 28 0 l 28 28 l 276 28 l 276 0 l 28 0 m 43 1083 l 43 1111 l 304 1111 l 304 1083 l 43 1083 m 39 56 l 263 1056 l 293 1056 l 68 56 l 39 56 z "},"Ź":{"ha":332,"x_min":28,"x_max":304,"o":"m 28 0 l 28 28 l 276 28 l 276 0 l 28 0 m 43 1083 l 43 1111 l 304 1111 l 304 1083 l 43 1083 m 39 56 l 263 1056 l 293 1056 l 68 56 l 39 56 m 151 1167 l 228 1304 l 257 1304 l 181 1167 l 151 1167 z "},"Ž":{"ha":332,"x_min":28,"x_max":304,"o":"m 28 0 l 28 28 l 276 28 l 276 0 l 28 0 m 43 1083 l 43 1111 l 304 1111 l 304 1083 l 43 1083 m 39 56 l 263 1056 l 293 1056 l 68 56 l 39 56 m 153 1167 l 76 1304 l 106 1304 l 168 1193 l 229 1304 l 258 1304 l 182 1167 l 153 1167 z "},"Ż":{"ha":332,"x_min":28,"x_max":304,"o":"m 28 0 l 28 28 l 276 28 l 276 0 l 28 0 m 43 1083 l 43 1111 l 304 1111 l 304 1083 l 43 1083 m 39 56 l 263 1056 l 293 1056 l 68 56 l 39 56 m 146 1167 l 146 1208 l 188 1208 l 188 1167 l 146 1167 z "},"Ẓ":{"ha":332,"x_min":28,"x_max":304,"o":"m 28 0 l 28 28 l 276 28 l 276 0 l 28 0 m 43 1083 l 43 1111 l 304 1111 l 304 1083 l 43 1083 m 39 56 l 263 1056 l 293 1056 l 68 56 l 39 56 m 146 -97 l 146 -56 l 188 -56 l 188 -97 l 146 -97 z "},"a":{"ha":375,"x_min":53,"x_max":294,"o":"m 56 125 q 54 164 55 146 q 54 201 53 182 q 64 285 56 246 q 93 359 72 324 q 153 424 114 393 q 181 444 167 433 q 211 465 196 455 l 211 434 q 184 414 199 425 q 153 389 170 403 q 97 305 110 353 q 82 201 84 257 q 82 169 82 190 q 83 125 83 147 q 108 48 87 75 q 164 21 130 21 q 211 32 192 21 l 211 3 q 164 -7 192 -7 q 85 29 111 -7 q 56 125 59 65 m 63 569 q 61 645 62 607 q 61 714 60 684 q 86 803 63 774 q 154 839 108 833 l 154 811 q 108 785 124 806 q 89 714 91 763 q 88 670 88 694 q 88 620 88 646 q 89 569 88 594 l 63 569 m 267 0 l 267 714 q 254 781 267 758 q 210 810 241 803 l 210 839 q 276 802 257 833 q 294 714 294 772 l 294 0 l 267 0 z "},"á":{"ha":375,"x_min":53,"x_max":294,"o":"m 56 125 q 54 164 55 146 q 54 201 53 182 q 64 285 56 246 q 93 359 72 324 q 153 424 114 393 q 181 444 167 433 q 211 465 196 455 l 211 434 q 184 414 199 425 q 153 389 170 403 q 97 305 110 353 q 82 201 84 257 q 82 169 82 190 q 83 125 83 147 q 108 48 87 75 q 164 21 130 21 q 211 32 192 21 l 211 3 q 164 -7 192 -7 q 85 29 111 -7 q 56 125 59 65 m 63 569 q 61 645 62 607 q 61 714 60 684 q 86 803 63 774 q 154 839 108 833 l 154 811 q 108 785 124 806 q 89 714 91 763 q 88 670 88 694 q 88 620 88 646 q 89 569 88 594 l 63 569 m 267 0 l 267 714 q 254 781 267 758 q 210 810 241 803 l 210 839 q 276 802 257 833 q 294 714 294 772 l 294 0 l 267 0 m 167 889 l 243 1026 l 272 1026 l 196 889 l 167 889 z "},"ă":{"ha":375,"x_min":53,"x_max":294,"o":"m 56 125 q 54 164 55 146 q 54 201 53 182 q 64 285 56 246 q 93 359 72 324 q 153 424 114 393 q 181 444 167 433 q 211 465 196 455 l 211 434 q 184 414 199 425 q 153 389 170 403 q 97 305 110 353 q 82 201 84 257 q 82 169 82 190 q 83 125 83 147 q 108 48 87 75 q 164 21 130 21 q 211 32 192 21 l 211 3 q 164 -7 192 -7 q 85 29 111 -7 q 56 125 59 65 m 63 569 q 61 645 62 607 q 61 714 60 684 q 86 803 63 774 q 154 839 108 833 l 154 811 q 108 785 124 806 q 89 714 91 763 q 88 670 88 694 q 88 620 88 646 q 89 569 88 594 l 63 569 m 267 0 l 267 714 q 254 781 267 758 q 210 810 241 803 l 210 839 q 276 802 257 833 q 294 714 294 772 l 294 0 l 267 0 m 182 886 q 98 912 124 886 q 71 999 72 938 l 99 999 q 118 932 100 951 q 182 913 135 913 q 247 932 229 913 q 265 999 265 951 l 293 999 q 266 912 292 938 q 182 886 240 886 z "},"ắ":{"ha":375,"x_min":53,"x_max":294,"o":"m 56 125 q 54 164 55 146 q 54 201 53 182 q 64 285 56 246 q 93 359 72 324 q 153 424 114 393 q 181 444 167 433 q 211 465 196 455 l 211 434 q 184 414 199 425 q 153 389 170 403 q 97 305 110 353 q 82 201 84 257 q 82 169 82 190 q 83 125 83 147 q 108 48 87 75 q 164 21 130 21 q 211 32 192 21 l 211 3 q 164 -7 192 -7 q 85 29 111 -7 q 56 125 59 65 m 63 569 q 61 645 62 607 q 61 714 60 684 q 86 803 63 774 q 154 839 108 833 l 154 811 q 108 785 124 806 q 89 714 91 763 q 88 670 88 694 q 88 620 88 646 q 89 569 88 594 l 63 569 m 267 0 l 267 714 q 254 781 267 758 q 210 810 241 803 l 210 839 q 276 802 257 833 q 294 714 294 772 l 294 0 l 267 0 m 182 886 q 98 912 124 886 q 71 999 72 938 l 99 999 q 118 932 100 951 q 182 913 135 913 q 247 932 229 913 q 265 999 265 951 l 293 999 q 266 912 292 938 q 182 886 240 886 m 160 996 l 236 1133 l 265 1133 l 189 996 l 160 996 z "},"ặ":{"ha":375,"x_min":53,"x_max":294,"o":"m 56 125 q 54 164 55 146 q 54 201 53 182 q 64 285 56 246 q 93 359 72 324 q 153 424 114 393 q 181 444 167 433 q 211 465 196 455 l 211 434 q 184 414 199 425 q 153 389 170 403 q 97 305 110 353 q 82 201 84 257 q 82 169 82 190 q 83 125 83 147 q 108 48 87 75 q 164 21 130 21 q 211 32 192 21 l 211 3 q 164 -7 192 -7 q 85 29 111 -7 q 56 125 59 65 m 63 569 q 61 645 62 607 q 61 714 60 684 q 86 803 63 774 q 154 839 108 833 l 154 811 q 108 785 124 806 q 89 714 91 763 q 88 670 88 694 q 88 620 88 646 q 89 569 88 594 l 63 569 m 267 0 l 267 714 q 254 781 267 758 q 210 810 241 803 l 210 839 q 276 802 257 833 q 294 714 294 772 l 294 0 l 267 0 m 161 -97 l 161 -56 l 203 -56 l 203 -97 l 161 -97 m 182 886 q 98 912 124 886 q 71 999 72 938 l 99 999 q 118 932 100 951 q 182 913 135 913 q 247 932 229 913 q 265 999 265 951 l 293 999 q 266 912 292 938 q 182 886 240 886 z "},"ằ":{"ha":375,"x_min":53,"x_max":294,"o":"m 56 125 q 54 164 55 146 q 54 201 53 182 q 64 285 56 246 q 93 359 72 324 q 153 424 114 393 q 181 444 167 433 q 211 465 196 455 l 211 434 q 184 414 199 425 q 153 389 170 403 q 97 305 110 353 q 82 201 84 257 q 82 169 82 190 q 83 125 83 147 q 108 48 87 75 q 164 21 130 21 q 211 32 192 21 l 211 3 q 164 -7 192 -7 q 85 29 111 -7 q 56 125 59 65 m 63 569 q 61 645 62 607 q 61 714 60 684 q 86 803 63 774 q 154 839 108 833 l 154 811 q 108 785 124 806 q 89 714 91 763 q 88 670 88 694 q 88 620 88 646 q 89 569 88 594 l 63 569 m 267 0 l 267 714 q 254 781 267 758 q 210 810 241 803 l 210 839 q 276 802 257 833 q 294 714 294 772 l 294 0 l 267 0 m 182 886 q 98 912 124 886 q 71 999 72 938 l 99 999 q 118 932 100 951 q 182 913 135 913 q 247 932 229 913 q 265 999 265 951 l 293 999 q 266 912 292 938 q 182 886 240 886 m 167 996 l 90 1133 l 119 1133 l 196 996 l 167 996 z "},"ẳ":{"ha":375,"x_min":53,"x_max":294,"o":"m 56 125 q 54 164 55 146 q 54 201 53 182 q 64 285 56 246 q 93 359 72 324 q 153 424 114 393 q 181 444 167 433 q 211 465 196 455 l 211 434 q 184 414 199 425 q 153 389 170 403 q 97 305 110 353 q 82 201 84 257 q 82 169 82 190 q 83 125 83 147 q 108 48 87 75 q 164 21 130 21 q 211 32 192 21 l 211 3 q 164 -7 192 -7 q 85 29 111 -7 q 56 125 59 65 m 63 569 q 61 645 62 607 q 61 714 60 684 q 86 803 63 774 q 154 839 108 833 l 154 811 q 108 785 124 806 q 89 714 91 763 q 88 670 88 694 q 88 620 88 646 q 89 569 88 594 l 63 569 m 267 0 l 267 714 q 254 781 267 758 q 210 810 241 803 l 210 839 q 276 802 257 833 q 294 714 294 772 l 294 0 l 267 0 m 182 886 q 98 912 124 886 q 71 999 72 938 l 99 999 q 118 932 100 951 q 182 913 135 913 q 247 932 229 913 q 265 999 265 951 l 293 999 q 266 912 292 938 q 182 886 240 886 m 172 1024 l 181 1068 q 177 1089 184 1083 q 154 1094 171 1094 l 126 1094 l 126 1117 l 154 1117 q 198 1106 185 1117 q 206 1068 211 1094 l 197 1024 l 172 1024 z "},"ẵ":{"ha":375,"x_min":53,"x_max":308,"o":"m 56 125 q 54 164 55 146 q 54 201 53 182 q 64 285 56 246 q 93 359 72 324 q 153 424 114 393 q 181 444 167 433 q 211 465 196 455 l 211 434 q 184 414 199 425 q 153 389 170 403 q 97 305 110 353 q 82 201 84 257 q 82 169 82 190 q 83 125 83 147 q 108 48 87 75 q 164 21 130 21 q 211 32 192 21 l 211 3 q 164 -7 192 -7 q 85 29 111 -7 q 56 125 59 65 m 63 569 q 61 645 62 607 q 61 714 60 684 q 86 803 63 774 q 154 839 108 833 l 154 811 q 108 785 124 806 q 89 714 91 763 q 88 670 88 694 q 88 620 88 646 q 89 569 88 594 l 63 569 m 267 0 l 267 714 q 254 781 267 758 q 210 810 241 803 l 210 839 q 276 802 257 833 q 294 714 294 772 l 294 0 l 267 0 m 182 886 q 98 912 124 886 q 71 999 72 938 l 99 999 q 118 932 100 951 q 182 913 135 913 q 247 932 229 913 q 265 999 265 951 l 293 999 q 266 912 292 938 q 182 886 240 886 m 279 1121 l 306 1121 q 283 1065 308 1087 q 224 1047 259 1043 q 192 1060 203 1050 q 172 1081 181 1070 q 144 1096 162 1091 q 109 1092 129 1100 q 85 1051 88 1084 l 58 1051 q 93 1114 63 1099 q 153 1122 123 1130 q 179 1111 169 1119 q 197 1095 190 1103 q 212 1080 204 1087 q 231 1072 219 1074 q 267 1085 253 1069 q 279 1121 281 1100 z "},"ǎ":{"ha":375,"x_min":53,"x_max":294,"o":"m 56 125 q 54 164 55 146 q 54 201 53 182 q 64 285 56 246 q 93 359 72 324 q 153 424 114 393 q 181 444 167 433 q 211 465 196 455 l 211 434 q 184 414 199 425 q 153 389 170 403 q 97 305 110 353 q 82 201 84 257 q 82 169 82 190 q 83 125 83 147 q 108 48 87 75 q 164 21 130 21 q 211 32 192 21 l 211 3 q 164 -7 192 -7 q 85 29 111 -7 q 56 125 59 65 m 63 569 q 61 645 62 607 q 61 714 60 684 q 86 803 63 774 q 154 839 108 833 l 154 811 q 108 785 124 806 q 89 714 91 763 q 88 670 88 694 q 88 620 88 646 q 89 569 88 594 l 63 569 m 267 0 l 267 714 q 254 781 267 758 q 210 810 241 803 l 210 839 q 276 802 257 833 q 294 714 294 772 l 294 0 l 267 0 m 168 889 l 92 1026 l 121 1026 l 183 915 l 244 1026 l 274 1026 l 197 889 l 168 889 z "},"â":{"ha":375,"x_min":53,"x_max":294,"o":"m 56 125 q 54 164 55 146 q 54 201 53 182 q 64 285 56 246 q 93 359 72 324 q 153 424 114 393 q 181 444 167 433 q 211 465 196 455 l 211 434 q 184 414 199 425 q 153 389 170 403 q 97 305 110 353 q 82 201 84 257 q 82 169 82 190 q 83 125 83 147 q 108 48 87 75 q 164 21 130 21 q 211 32 192 21 l 211 3 q 164 -7 192 -7 q 85 29 111 -7 q 56 125 59 65 m 63 569 q 61 645 62 607 q 61 714 60 684 q 86 803 63 774 q 154 839 108 833 l 154 811 q 108 785 124 806 q 89 714 91 763 q 88 670 88 694 q 88 620 88 646 q 89 569 88 594 l 63 569 m 267 0 l 267 714 q 254 781 267 758 q 210 810 241 803 l 210 839 q 276 802 257 833 q 294 714 294 772 l 294 0 l 267 0 m 92 889 l 168 1026 l 197 1026 l 274 889 l 242 889 l 183 997 l 124 889 l 92 889 z "},"ấ":{"ha":375,"x_min":53,"x_max":363,"o":"m 56 125 q 54 164 55 146 q 54 201 53 182 q 64 285 56 246 q 93 359 72 324 q 153 424 114 393 q 181 444 167 433 q 211 465 196 455 l 211 434 q 184 414 199 425 q 153 389 170 403 q 97 305 110 353 q 82 201 84 257 q 82 169 82 190 q 83 125 83 147 q 108 48 87 75 q 164 21 130 21 q 211 32 192 21 l 211 3 q 164 -7 192 -7 q 85 29 111 -7 q 56 125 59 65 m 63 569 q 61 645 62 607 q 61 714 60 684 q 86 803 63 774 q 154 839 108 833 l 154 811 q 108 785 124 806 q 89 714 91 763 q 88 670 88 694 q 88 620 88 646 q 89 569 88 594 l 63 569 m 267 0 l 267 714 q 254 781 267 758 q 210 810 241 803 l 210 839 q 276 802 257 833 q 294 714 294 772 l 294 0 l 267 0 m 92 889 l 168 1026 l 197 1026 l 274 889 l 242 889 l 183 997 l 124 889 l 92 889 m 257 997 l 333 1134 l 363 1134 l 286 997 l 257 997 z "},"ậ":{"ha":375,"x_min":53,"x_max":294,"o":"m 56 125 q 54 164 55 146 q 54 201 53 182 q 64 285 56 246 q 93 359 72 324 q 153 424 114 393 q 181 444 167 433 q 211 465 196 455 l 211 434 q 184 414 199 425 q 153 389 170 403 q 97 305 110 353 q 82 201 84 257 q 82 169 82 190 q 83 125 83 147 q 108 48 87 75 q 164 21 130 21 q 211 32 192 21 l 211 3 q 164 -7 192 -7 q 85 29 111 -7 q 56 125 59 65 m 63 569 q 61 645 62 607 q 61 714 60 684 q 86 803 63 774 q 154 839 108 833 l 154 811 q 108 785 124 806 q 89 714 91 763 q 88 670 88 694 q 88 620 88 646 q 89 569 88 594 l 63 569 m 267 0 l 267 714 q 254 781 267 758 q 210 810 241 803 l 210 839 q 276 802 257 833 q 294 714 294 772 l 294 0 l 267 0 m 161 -97 l 161 -56 l 203 -56 l 203 -97 l 161 -97 m 92 889 l 168 1026 l 197 1026 l 274 889 l 242 889 l 183 997 l 124 889 l 92 889 z "},"ầ":{"ha":375,"x_min":53,"x_max":321,"o":"m 56 125 q 54 164 55 146 q 54 201 53 182 q 64 285 56 246 q 93 359 72 324 q 153 424 114 393 q 181 444 167 433 q 211 465 196 455 l 211 434 q 184 414 199 425 q 153 389 170 403 q 97 305 110 353 q 82 201 84 257 q 82 169 82 190 q 83 125 83 147 q 108 48 87 75 q 164 21 130 21 q 211 32 192 21 l 211 3 q 164 -7 192 -7 q 85 29 111 -7 q 56 125 59 65 m 63 569 q 61 645 62 607 q 61 714 60 684 q 86 803 63 774 q 154 839 108 833 l 154 811 q 108 785 124 806 q 89 714 91 763 q 88 670 88 694 q 88 620 88 646 q 89 569 88 594 l 63 569 m 267 0 l 267 714 q 254 781 267 758 q 210 810 241 803 l 210 839 q 276 802 257 833 q 294 714 294 772 l 294 0 l 267 0 m 92 889 l 168 1026 l 197 1026 l 274 889 l 242 889 l 183 997 l 124 889 l 92 889 m 292 997 l 215 1134 l 244 1134 l 321 997 l 292 997 z "},"ẩ":{"ha":375,"x_min":53,"x_max":294,"o":"m 56 125 q 54 164 55 146 q 54 201 53 182 q 64 285 56 246 q 93 359 72 324 q 153 424 114 393 q 181 444 167 433 q 211 465 196 455 l 211 434 q 184 414 199 425 q 153 389 170 403 q 97 305 110 353 q 82 201 84 257 q 82 169 82 190 q 83 125 83 147 q 108 48 87 75 q 164 21 130 21 q 211 32 192 21 l 211 3 q 164 -7 192 -7 q 85 29 111 -7 q 56 125 59 65 m 63 569 q 61 645 62 607 q 61 714 60 684 q 86 803 63 774 q 154 839 108 833 l 154 811 q 108 785 124 806 q 89 714 91 763 q 88 670 88 694 q 88 620 88 646 q 89 569 88 594 l 63 569 m 267 0 l 267 714 q 254 781 267 758 q 210 810 241 803 l 210 839 q 276 802 257 833 q 294 714 294 772 l 294 0 l 267 0 m 92 889 l 168 1026 l 197 1026 l 274 889 l 242 889 l 183 997 l 124 889 l 92 889 m 235 1051 l 244 1096 q 241 1116 248 1110 q 218 1122 235 1122 l 190 1122 l 190 1144 l 218 1144 q 262 1133 249 1144 q 269 1096 275 1122 l 260 1051 l 235 1051 z "},"ẫ":{"ha":375,"x_min":53,"x_max":308,"o":"m 56 125 q 54 164 55 146 q 54 201 53 182 q 64 285 56 246 q 93 359 72 324 q 153 424 114 393 q 181 444 167 433 q 211 465 196 455 l 211 434 q 184 414 199 425 q 153 389 170 403 q 97 305 110 353 q 82 201 84 257 q 82 169 82 190 q 83 125 83 147 q 108 48 87 75 q 164 21 130 21 q 211 32 192 21 l 211 3 q 164 -7 192 -7 q 85 29 111 -7 q 56 125 59 65 m 63 569 q 61 645 62 607 q 61 714 60 684 q 86 803 63 774 q 154 839 108 833 l 154 811 q 108 785 124 806 q 89 714 91 763 q 88 670 88 694 q 88 620 88 646 q 89 569 88 594 l 63 569 m 267 0 l 267 714 q 254 781 267 758 q 210 810 241 803 l 210 839 q 276 802 257 833 q 294 714 294 772 l 294 0 l 267 0 m 92 889 l 168 1026 l 197 1026 l 274 889 l 242 889 l 183 997 l 124 889 l 92 889 m 279 1133 l 306 1133 q 283 1077 308 1099 q 224 1060 259 1056 q 192 1073 203 1063 q 172 1093 181 1083 q 144 1108 162 1103 q 109 1105 129 1113 q 85 1064 88 1097 l 58 1064 q 93 1127 63 1111 q 153 1135 123 1142 q 179 1124 169 1131 q 197 1108 190 1116 q 212 1093 204 1099 q 231 1085 219 1086 q 267 1097 253 1082 q 279 1133 281 1113 z "},"ȁ":{"ha":375,"x_min":8,"x_max":294,"o":"m 56 125 q 54 164 55 146 q 54 201 53 182 q 64 285 56 246 q 93 359 72 324 q 153 424 114 393 q 181 444 167 433 q 211 465 196 455 l 211 434 q 184 414 199 425 q 153 389 170 403 q 97 305 110 353 q 82 201 84 257 q 82 169 82 190 q 83 125 83 147 q 108 48 87 75 q 164 21 130 21 q 211 32 192 21 l 211 3 q 164 -7 192 -7 q 85 29 111 -7 q 56 125 59 65 m 63 569 q 61 645 62 607 q 61 714 60 684 q 86 803 63 774 q 154 839 108 833 l 154 811 q 108 785 124 806 q 89 714 91 763 q 88 670 88 694 q 88 620 88 646 q 89 569 88 594 l 63 569 m 267 0 l 267 714 q 254 781 267 758 q 210 810 241 803 l 210 839 q 276 802 257 833 q 294 714 294 772 l 294 0 l 267 0 m 90 889 l 8 1025 l 42 1025 l 124 889 l 90 889 m 201 889 l 119 1025 l 153 1025 l 235 889 l 201 889 z "},"ä":{"ha":375,"x_min":53,"x_max":294,"o":"m 56 125 q 54 164 55 146 q 54 201 53 182 q 64 285 56 246 q 93 359 72 324 q 153 424 114 393 q 181 444 167 433 q 211 465 196 455 l 211 434 q 184 414 199 425 q 153 389 170 403 q 97 305 110 353 q 82 201 84 257 q 82 169 82 190 q 83 125 83 147 q 108 48 87 75 q 164 21 130 21 q 211 32 192 21 l 211 3 q 164 -7 192 -7 q 85 29 111 -7 q 56 125 59 65 m 63 569 q 61 645 62 607 q 61 714 60 684 q 86 803 63 774 q 154 839 108 833 l 154 811 q 108 785 124 806 q 89 714 91 763 q 88 670 88 694 q 88 620 88 646 q 89 569 88 594 l 63 569 m 267 0 l 267 714 q 254 781 267 758 q 210 810 241 803 l 210 839 q 276 802 257 833 q 294 714 294 772 l 294 0 l 267 0 m 203 889 l 203 931 l 244 931 l 244 889 l 203 889 m 119 889 l 119 931 l 161 931 l 161 889 l 119 889 z "},"ạ":{"ha":375,"x_min":53,"x_max":294,"o":"m 56 125 q 54 164 55 146 q 54 201 53 182 q 64 285 56 246 q 93 359 72 324 q 153 424 114 393 q 181 444 167 433 q 211 465 196 455 l 211 434 q 184 414 199 425 q 153 389 170 403 q 97 305 110 353 q 82 201 84 257 q 82 169 82 190 q 83 125 83 147 q 108 48 87 75 q 164 21 130 21 q 211 32 192 21 l 211 3 q 164 -7 192 -7 q 85 29 111 -7 q 56 125 59 65 m 63 569 q 61 645 62 607 q 61 714 60 684 q 86 803 63 774 q 154 839 108 833 l 154 811 q 108 785 124 806 q 89 714 91 763 q 88 670 88 694 q 88 620 88 646 q 89 569 88 594 l 63 569 m 267 0 l 267 714 q 254 781 267 758 q 210 810 241 803 l 210 839 q 276 802 257 833 q 294 714 294 772 l 294 0 l 267 0 m 161 -97 l 161 -56 l 203 -56 l 203 -97 l 161 -97 z "},"à":{"ha":375,"x_min":53,"x_max":294,"o":"m 56 125 q 54 164 55 146 q 54 201 53 182 q 64 285 56 246 q 93 359 72 324 q 153 424 114 393 q 181 444 167 433 q 211 465 196 455 l 211 434 q 184 414 199 425 q 153 389 170 403 q 97 305 110 353 q 82 201 84 257 q 82 169 82 190 q 83 125 83 147 q 108 48 87 75 q 164 21 130 21 q 211 32 192 21 l 211 3 q 164 -7 192 -7 q 85 29 111 -7 q 56 125 59 65 m 63 569 q 61 645 62 607 q 61 714 60 684 q 86 803 63 774 q 154 839 108 833 l 154 811 q 108 785 124 806 q 89 714 91 763 q 88 670 88 694 q 88 620 88 646 q 89 569 88 594 l 63 569 m 267 0 l 267 714 q 254 781 267 758 q 210 810 241 803 l 210 839 q 276 802 257 833 q 294 714 294 772 l 294 0 l 267 0 m 167 889 l 90 1026 l 119 1026 l 196 889 l 167 889 z "},"ả":{"ha":375,"x_min":53,"x_max":294,"o":"m 56 125 q 54 164 55 146 q 54 201 53 182 q 64 285 56 246 q 93 359 72 324 q 153 424 114 393 q 181 444 167 433 q 211 465 196 455 l 211 434 q 184 414 199 425 q 153 389 170 403 q 97 305 110 353 q 82 201 84 257 q 82 169 82 190 q 83 125 83 147 q 108 48 87 75 q 164 21 130 21 q 211 32 192 21 l 211 3 q 164 -7 192 -7 q 85 29 111 -7 q 56 125 59 65 m 63 569 q 61 645 62 607 q 61 714 60 684 q 86 803 63 774 q 154 839 108 833 l 154 811 q 108 785 124 806 q 89 714 91 763 q 88 670 88 694 q 88 620 88 646 q 89 569 88 594 l 63 569 m 267 0 l 267 714 q 254 781 267 758 q 210 810 241 803 l 210 839 q 276 802 257 833 q 294 714 294 772 l 294 0 l 267 0 m 173 917 l 182 961 q 179 982 185 976 q 156 988 172 988 l 128 988 l 128 1010 l 156 1010 q 200 999 187 1010 q 207 961 213 988 l 198 917 l 173 917 z "},"ȃ":{"ha":375,"x_min":53,"x_max":294,"o":"m 56 125 q 54 164 55 146 q 54 201 53 182 q 64 285 56 246 q 93 359 72 324 q 153 424 114 393 q 181 444 167 433 q 211 465 196 455 l 211 434 q 184 414 199 425 q 153 389 170 403 q 97 305 110 353 q 82 201 84 257 q 82 169 82 190 q 83 125 83 147 q 108 48 87 75 q 164 21 130 21 q 211 32 192 21 l 211 3 q 164 -7 192 -7 q 85 29 111 -7 q 56 125 59 65 m 63 569 q 61 645 62 607 q 61 714 60 684 q 86 803 63 774 q 154 839 108 833 l 154 811 q 108 785 124 806 q 89 714 91 763 q 88 670 88 694 q 88 620 88 646 q 89 569 88 594 l 63 569 m 267 0 l 267 714 q 254 781 267 758 q 210 810 241 803 l 210 839 q 276 802 257 833 q 294 714 294 772 l 294 0 l 267 0 m 182 985 q 266 959 240 985 q 293 872 292 933 l 265 872 q 247 939 265 920 q 182 958 229 958 q 118 939 135 958 q 99 872 100 920 l 71 872 q 98 959 72 933 q 182 985 124 985 z "},"ā":{"ha":375,"x_min":53,"x_max":294,"o":"m 56 125 q 54 164 55 146 q 54 201 53 182 q 64 285 56 246 q 93 359 72 324 q 153 424 114 393 q 181 444 167 433 q 211 465 196 455 l 211 434 q 184 414 199 425 q 153 389 170 403 q 97 305 110 353 q 82 201 84 257 q 82 169 82 190 q 83 125 83 147 q 108 48 87 75 q 164 21 130 21 q 211 32 192 21 l 211 3 q 164 -7 192 -7 q 85 29 111 -7 q 56 125 59 65 m 63 569 q 61 645 62 607 q 61 714 60 684 q 86 803 63 774 q 154 839 108 833 l 154 811 q 108 785 124 806 q 89 714 91 763 q 88 670 88 694 q 88 620 88 646 q 89 569 88 594 l 63 569 m 267 0 l 267 714 q 254 781 267 758 q 210 810 241 803 l 210 839 q 276 802 257 833 q 294 714 294 772 l 294 0 l 267 0 m 81 917 l 283 917 l 283 889 l 81 889 l 81 917 z "},"ą":{"ha":375,"x_min":53,"x_max":352,"o":"m 56 125 q 54 164 55 146 q 54 201 53 182 q 64 285 56 246 q 93 359 72 324 q 153 424 114 393 q 181 444 167 433 q 211 465 196 455 l 211 434 q 184 414 199 425 q 153 389 170 403 q 97 305 110 353 q 82 201 84 257 q 82 169 82 190 q 83 125 83 147 q 108 48 87 75 q 164 21 130 21 q 211 32 192 21 l 211 3 q 164 -7 192 -7 q 85 29 111 -7 q 56 125 59 65 m 63 569 q 61 645 62 607 q 61 714 60 684 q 86 803 63 774 q 154 839 108 833 l 154 811 q 108 785 124 806 q 89 714 91 763 q 88 670 88 694 q 88 620 88 646 q 89 569 88 594 l 63 569 m 267 0 l 267 714 q 254 781 267 758 q 210 810 241 803 l 210 839 q 276 802 257 833 q 294 714 294 772 l 294 0 l 267 0 m 352 -211 l 315 -211 q 259 -191 275 -211 q 249 -135 242 -171 l 266 -56 l 294 -56 l 277 -135 q 281 -173 272 -160 q 315 -186 290 -186 l 352 -186 l 352 -211 z "},"å":{"ha":375,"x_min":53,"x_max":294,"o":"m 56 125 q 54 164 55 146 q 54 201 53 182 q 64 285 56 246 q 93 359 72 324 q 153 424 114 393 q 181 444 167 433 q 211 465 196 455 l 211 434 q 184 414 199 425 q 153 389 170 403 q 97 305 110 353 q 82 201 84 257 q 82 169 82 190 q 83 125 83 147 q 108 48 87 75 q 164 21 130 21 q 211 32 192 21 l 211 3 q 164 -7 192 -7 q 85 29 111 -7 q 56 125 59 65 m 63 569 q 61 645 62 607 q 61 714 60 684 q 86 803 63 774 q 154 839 108 833 l 154 811 q 108 785 124 806 q 89 714 91 763 q 88 670 88 694 q 88 620 88 646 q 89 569 88 594 l 63 569 m 267 0 l 267 714 q 254 781 267 758 q 210 810 241 803 l 210 839 q 276 802 257 833 q 294 714 294 772 l 294 0 l 267 0 m 182 886 q 137 905 156 886 q 118 950 118 923 q 137 995 118 976 q 182 1014 156 1014 q 227 995 208 1014 q 246 950 246 976 q 227 905 246 923 q 182 886 208 886 m 182 913 q 209 924 198 913 q 219 950 219 935 q 209 977 219 966 q 182 988 198 988 q 156 977 167 988 q 144 950 144 966 q 156 924 144 935 q 182 913 167 913 z "},"ǻ":{"ha":375,"x_min":53,"x_max":294,"o":"m 56 125 q 54 164 55 146 q 54 201 53 182 q 64 285 56 246 q 93 359 72 324 q 153 424 114 393 q 181 444 167 433 q 211 465 196 455 l 211 434 q 184 414 199 425 q 153 389 170 403 q 97 305 110 353 q 82 201 84 257 q 82 169 82 190 q 83 125 83 147 q 108 48 87 75 q 164 21 130 21 q 211 32 192 21 l 211 3 q 164 -7 192 -7 q 85 29 111 -7 q 56 125 59 65 m 63 569 q 61 645 62 607 q 61 714 60 684 q 86 803 63 774 q 154 839 108 833 l 154 811 q 108 785 124 806 q 89 714 91 763 q 88 670 88 694 q 88 620 88 646 q 89 569 88 594 l 63 569 m 267 0 l 267 714 q 254 781 267 758 q 210 810 241 803 l 210 839 q 276 802 257 833 q 294 714 294 772 l 294 0 l 267 0 m 182 886 q 137 905 156 886 q 118 950 118 923 q 137 995 118 976 q 182 1014 156 1014 q 227 995 208 1014 q 246 950 246 976 q 227 905 246 923 q 182 886 208 886 m 182 913 q 209 924 198 913 q 219 950 219 935 q 209 977 219 966 q 182 988 198 988 q 156 977 167 988 q 144 950 144 966 q 156 924 144 935 q 182 913 167 913 m 167 1058 l 243 1196 l 272 1196 l 196 1058 l 167 1058 z "},"ã":{"ha":375,"x_min":53,"x_max":308,"o":"m 56 125 q 54 164 55 146 q 54 201 53 182 q 64 285 56 246 q 93 359 72 324 q 153 424 114 393 q 181 444 167 433 q 211 465 196 455 l 211 434 q 184 414 199 425 q 153 389 170 403 q 97 305 110 353 q 82 201 84 257 q 82 169 82 190 q 83 125 83 147 q 108 48 87 75 q 164 21 130 21 q 211 32 192 21 l 211 3 q 164 -7 192 -7 q 85 29 111 -7 q 56 125 59 65 m 63 569 q 61 645 62 607 q 61 714 60 684 q 86 803 63 774 q 154 839 108 833 l 154 811 q 108 785 124 806 q 89 714 91 763 q 88 670 88 694 q 88 620 88 646 q 89 569 88 594 l 63 569 m 267 0 l 267 714 q 254 781 267 758 q 210 810 241 803 l 210 839 q 276 802 257 833 q 294 714 294 772 l 294 0 l 267 0 m 279 940 l 306 940 q 283 884 308 906 q 224 867 259 863 q 192 880 203 869 q 172 900 181 890 q 144 915 162 910 q 109 911 129 919 q 85 871 88 903 l 58 871 q 93 934 63 918 q 153 942 123 949 q 179 931 169 938 q 197 915 190 923 q 212 900 204 906 q 231 892 219 893 q 267 904 253 889 q 279 940 281 919 z "},"æ":{"ha":570,"x_min":53,"x_max":510,"o":"m 56 569 q 54 620 55 594 q 53 670 53 646 q 54 714 53 694 q 79 803 56 774 q 147 839 101 833 l 147 811 q 101 785 117 806 q 82 714 84 763 q 81 670 81 694 q 81 620 81 646 q 82 569 81 594 l 56 569 m 361 -6 q 268 65 285 3 l 261 65 q 233 21 253 40 q 185 -4 214 2 l 185 25 q 238 62 216 33 q 263 147 260 91 l 263 714 q 248 781 263 758 q 203 810 234 803 l 203 839 q 249 823 231 835 q 278 790 267 811 q 361 839 300 833 l 361 811 q 290 714 290 799 l 290 118 q 308 47 290 68 q 361 22 325 26 l 361 -6 m 344 424 l 344 451 l 481 451 q 483 609 483 543 q 481 714 483 674 q 417 810 474 800 l 417 839 q 485 803 464 833 q 508 714 506 774 q 510 650 509 689 q 510 556 510 612 q 507 424 510 500 l 344 424 m 136 -4 q 93 19 110 2 q 67 64 76 37 q 56 125 58 90 q 54 164 55 146 q 54 201 53 182 q 77 288 56 249 q 134 358 99 326 q 213 417 169 390 l 213 386 q 120 305 156 348 q 82 201 84 262 q 82 169 82 190 q 83 125 83 147 q 136 26 89 47 l 136 -4 m 417 -6 l 417 22 q 464 49 450 28 q 481 118 478 70 q 482 185 482 149 q 479 265 481 221 l 507 265 q 509 185 509 221 q 508 118 510 149 q 486 30 506 59 q 417 -6 467 0 z "},"ǽ":{"ha":570,"x_min":53,"x_max":510,"o":"m 56 569 q 54 620 55 594 q 53 670 53 646 q 54 714 53 694 q 79 803 56 774 q 147 839 101 833 l 147 811 q 101 785 117 806 q 82 714 84 763 q 81 670 81 694 q 81 620 81 646 q 82 569 81 594 l 56 569 m 361 -6 q 268 65 285 3 l 261 65 q 233 21 253 40 q 185 -4 214 2 l 185 25 q 238 62 216 33 q 263 147 260 91 l 263 714 q 248 781 263 758 q 203 810 234 803 l 203 839 q 249 823 231 835 q 278 790 267 811 q 361 839 300 833 l 361 811 q 290 714 290 799 l 290 118 q 308 47 290 68 q 361 22 325 26 l 361 -6 m 344 424 l 344 451 l 481 451 q 483 609 483 543 q 481 714 483 674 q 417 810 474 800 l 417 839 q 485 803 464 833 q 508 714 506 774 q 510 650 509 689 q 510 556 510 612 q 507 424 510 500 l 344 424 m 136 -4 q 93 19 110 2 q 67 64 76 37 q 56 125 58 90 q 54 164 55 146 q 54 201 53 182 q 77 288 56 249 q 134 358 99 326 q 213 417 169 390 l 213 386 q 120 305 156 348 q 82 201 84 262 q 82 169 82 190 q 83 125 83 147 q 136 26 89 47 l 136 -4 m 417 -6 l 417 22 q 464 49 450 28 q 481 118 478 70 q 482 185 482 149 q 479 265 481 221 l 507 265 q 509 185 509 221 q 508 118 510 149 q 486 30 506 59 q 417 -6 467 0 m 271 889 l 347 1026 l 376 1026 l 300 889 l 271 889 z "},"b":{"ha":395,"x_min":83,"x_max":328,"o":"m 83 0 l 83 1111 l 111 1111 l 111 0 l 83 0 m 167 6 l 167 33 q 192 24 178 27 q 224 21 206 21 q 281 44 263 21 q 299 119 298 67 q 301 263 300 193 q 302 404 302 333 q 301 551 302 475 q 299 714 300 628 q 281 790 298 767 q 224 813 263 813 q 167 800 190 813 l 167 827 q 192 837 178 834 q 224 840 206 840 q 302 811 278 840 q 326 714 326 782 q 328 554 328 630 q 328 407 328 478 q 328 265 328 335 q 326 119 328 194 q 302 23 326 52 q 224 -7 278 -7 q 192 -4 206 -7 q 167 6 178 -1 z "},"c":{"ha":372,"x_min":67,"x_max":315,"o":"m 69 118 q 67 267 68 192 q 67 416 67 342 q 67 565 67 490 q 69 714 68 640 q 92 803 71 774 q 164 839 114 833 l 164 811 q 114 785 129 806 q 97 714 99 763 q 95 554 96 626 q 94 416 94 483 q 95 278 94 349 q 97 118 96 206 q 114 48 99 69 q 164 22 129 27 l 164 -6 q 92 30 114 0 q 69 118 71 59 m 219 -6 l 219 22 q 270 48 254 27 q 286 118 286 69 q 286 186 286 151 q 285 265 287 222 l 313 265 q 315 185 315 221 q 314 118 315 149 q 291 30 312 59 q 219 -6 269 0 m 285 569 q 286 624 286 599 q 286 671 287 649 q 286 714 286 693 q 270 785 286 763 q 219 811 254 806 l 219 839 q 292 803 270 833 q 314 714 314 774 q 314 650 314 685 q 313 569 315 615 l 285 569 z "},"ć":{"ha":372,"x_min":67,"x_max":315,"o":"m 69 118 q 67 267 68 192 q 67 416 67 342 q 67 565 67 490 q 69 714 68 640 q 92 803 71 774 q 164 839 114 833 l 164 811 q 114 785 129 806 q 97 714 99 763 q 95 554 96 626 q 94 416 94 483 q 95 278 94 349 q 97 118 96 206 q 114 48 99 69 q 164 22 129 27 l 164 -6 q 92 30 114 0 q 69 118 71 59 m 219 -6 l 219 22 q 270 48 254 27 q 286 118 286 69 q 286 186 286 151 q 285 265 287 222 l 313 265 q 315 185 315 221 q 314 118 315 149 q 291 30 312 59 q 219 -6 269 0 m 285 569 q 286 624 286 599 q 286 671 287 649 q 286 714 286 693 q 270 785 286 763 q 219 811 254 806 l 219 839 q 292 803 270 833 q 314 714 314 774 q 314 650 314 685 q 313 569 315 615 l 285 569 m 176 889 l 253 1026 l 282 1026 l 206 889 l 176 889 z "},"č":{"ha":372,"x_min":67,"x_max":315,"o":"m 69 118 q 67 267 68 192 q 67 416 67 342 q 67 565 67 490 q 69 714 68 640 q 92 803 71 774 q 164 839 114 833 l 164 811 q 114 785 129 806 q 97 714 99 763 q 95 554 96 626 q 94 416 94 483 q 95 278 94 349 q 97 118 96 206 q 114 48 99 69 q 164 22 129 27 l 164 -6 q 92 30 114 0 q 69 118 71 59 m 219 -6 l 219 22 q 270 48 254 27 q 286 118 286 69 q 286 186 286 151 q 285 265 287 222 l 313 265 q 315 185 315 221 q 314 118 315 149 q 291 30 312 59 q 219 -6 269 0 m 285 569 q 286 624 286 599 q 286 671 287 649 q 286 714 286 693 q 270 785 286 763 q 219 811 254 806 l 219 839 q 292 803 270 833 q 314 714 314 774 q 314 650 314 685 q 313 569 315 615 l 285 569 m 178 889 l 101 1026 l 131 1026 l 193 915 l 254 1026 l 283 1026 l 207 889 l 178 889 z "},"ç":{"ha":372,"x_min":67,"x_max":315,"o":"m 69 118 q 67 267 68 192 q 67 416 67 342 q 67 565 67 490 q 69 714 68 640 q 92 803 71 774 q 164 839 114 833 l 164 811 q 114 785 129 806 q 97 714 99 763 q 95 554 96 626 q 94 416 94 483 q 95 278 94 349 q 97 118 96 206 q 114 48 99 69 q 164 22 129 27 l 164 -6 q 92 30 114 0 q 69 118 71 59 m 219 -6 l 219 22 q 270 48 254 27 q 286 118 286 69 q 286 186 286 151 q 285 265 287 222 l 313 265 q 315 185 315 221 q 314 118 315 149 q 291 30 312 59 q 219 -6 269 0 m 285 569 q 286 624 286 599 q 286 671 287 649 q 286 714 286 693 q 270 785 286 763 q 219 811 254 806 l 219 839 q 292 803 270 833 q 314 714 314 774 q 314 650 314 685 q 313 569 315 615 l 285 569 m 122 -183 l 122 -158 l 160 -158 q 194 -145 185 -158 q 197 -107 203 -133 l 181 -28 l 208 -28 l 225 -107 q 216 -163 233 -143 q 160 -183 199 -183 l 122 -183 z "},"ḉ":{"ha":372,"x_min":67,"x_max":315,"o":"m 69 118 q 67 267 68 192 q 67 416 67 342 q 67 565 67 490 q 69 714 68 640 q 92 803 71 774 q 164 839 114 833 l 164 811 q 114 785 129 806 q 97 714 99 763 q 95 554 96 626 q 94 416 94 483 q 95 278 94 349 q 97 118 96 206 q 114 48 99 69 q 164 22 129 27 l 164 -6 q 92 30 114 0 q 69 118 71 59 m 219 -6 l 219 22 q 270 48 254 27 q 286 118 286 69 q 286 186 286 151 q 285 265 287 222 l 313 265 q 315 185 315 221 q 314 118 315 149 q 291 30 312 59 q 219 -6 269 0 m 285 569 q 286 624 286 599 q 286 671 287 649 q 286 714 286 693 q 270 785 286 763 q 219 811 254 806 l 219 839 q 292 803 270 833 q 314 714 314 774 q 314 650 314 685 q 313 569 315 615 l 285 569 m 176 889 l 253 1026 l 282 1026 l 206 889 l 176 889 m 122 -183 l 122 -158 l 160 -158 q 194 -145 185 -158 q 197 -107 203 -133 l 181 -28 l 208 -28 l 225 -107 q 216 -163 233 -143 q 160 -183 199 -183 l 122 -183 z "},"ĉ":{"ha":372,"x_min":67,"x_max":315,"o":"m 69 118 q 67 267 68 192 q 67 416 67 342 q 67 565 67 490 q 69 714 68 640 q 92 803 71 774 q 164 839 114 833 l 164 811 q 114 785 129 806 q 97 714 99 763 q 95 554 96 626 q 94 416 94 483 q 95 278 94 349 q 97 118 96 206 q 114 48 99 69 q 164 22 129 27 l 164 -6 q 92 30 114 0 q 69 118 71 59 m 219 -6 l 219 22 q 270 48 254 27 q 286 118 286 69 q 286 186 286 151 q 285 265 287 222 l 313 265 q 315 185 315 221 q 314 118 315 149 q 291 30 312 59 q 219 -6 269 0 m 285 569 q 286 624 286 599 q 286 671 287 649 q 286 714 286 693 q 270 785 286 763 q 219 811 254 806 l 219 839 q 292 803 270 833 q 314 714 314 774 q 314 650 314 685 q 313 569 315 615 l 285 569 m 101 889 l 178 1026 l 207 1026 l 283 889 l 251 889 l 193 997 l 133 889 l 101 889 z "},"ċ":{"ha":372,"x_min":67,"x_max":315,"o":"m 69 118 q 67 267 68 192 q 67 416 67 342 q 67 565 67 490 q 69 714 68 640 q 92 803 71 774 q 164 839 114 833 l 164 811 q 114 785 129 806 q 97 714 99 763 q 95 554 96 626 q 94 416 94 483 q 95 278 94 349 q 97 118 96 206 q 114 48 99 69 q 164 22 129 27 l 164 -6 q 92 30 114 0 q 69 118 71 59 m 219 -6 l 219 22 q 270 48 254 27 q 286 118 286 69 q 286 186 286 151 q 285 265 287 222 l 313 265 q 315 185 315 221 q 314 118 315 149 q 291 30 312 59 q 219 -6 269 0 m 285 569 q 286 624 286 599 q 286 671 287 649 q 286 714 286 693 q 270 785 286 763 q 219 811 254 806 l 219 839 q 292 803 270 833 q 314 714 314 774 q 314 650 314 685 q 313 569 315 615 l 285 569 m 171 889 l 171 931 l 213 931 l 213 889 l 171 889 z "},"d":{"ha":395,"x_min":67,"x_max":312,"o":"m 69 119 q 67 265 68 194 q 67 407 67 335 q 67 554 67 478 q 69 714 68 630 q 94 811 70 782 q 173 840 119 840 q 203 837 190 840 q 228 828 217 834 l 228 801 q 173 813 207 813 q 116 790 133 813 q 97 714 98 767 q 95 501 95 599 q 95 310 94 403 q 97 119 95 217 q 115 44 98 67 q 172 21 132 21 q 228 33 206 21 l 228 8 q 203 -3 217 1 q 172 -7 189 -7 q 94 23 117 -7 q 69 119 70 52 m 284 0 l 284 1111 l 312 1111 l 312 0 l 284 0 z "},"ď":{"ha":403,"x_min":67,"x_max":403,"o":"m 69 119 q 67 265 68 194 q 67 407 67 335 q 67 554 67 478 q 69 714 68 630 q 94 811 70 782 q 173 840 119 840 q 203 837 190 840 q 228 828 217 834 l 228 801 q 173 813 207 813 q 116 790 133 813 q 97 714 98 767 q 95 501 95 599 q 95 310 94 403 q 97 119 95 217 q 115 44 98 67 q 172 21 132 21 q 228 33 206 21 l 228 8 q 203 -3 217 1 q 172 -7 189 -7 q 94 23 117 -7 q 69 119 70 52 m 284 0 l 284 1111 l 312 1111 l 312 0 l 284 0 m 353 972 l 374 1110 l 403 1110 l 383 972 l 353 972 z "},"đ":{"ha":394,"x_min":67,"x_max":381,"o":"m 186 949 l 186 976 l 304 976 l 304 949 l 186 949 m 341 949 l 341 976 l 381 976 l 381 949 l 341 949 m 69 119 q 67 265 68 194 q 67 407 67 335 q 67 554 67 478 q 69 714 68 630 q 94 811 70 782 q 173 840 119 840 q 203 837 190 840 q 228 828 217 834 l 228 801 q 173 813 207 813 q 116 790 133 813 q 97 714 98 767 q 95 501 95 599 q 95 310 94 403 q 97 119 95 217 q 115 44 98 67 q 172 21 132 21 q 228 33 206 21 l 228 8 q 203 -3 217 1 q 172 -7 189 -7 q 94 23 117 -7 q 69 119 70 52 m 284 0 l 284 1111 l 312 1111 l 312 0 l 284 0 z "},"ḍ":{"ha":395,"x_min":67,"x_max":312,"o":"m 69 119 q 67 265 68 194 q 67 407 67 335 q 67 554 67 478 q 69 714 68 630 q 94 811 70 782 q 173 840 119 840 q 203 837 190 840 q 228 828 217 834 l 228 801 q 173 813 207 813 q 116 790 133 813 q 97 714 98 767 q 95 501 95 599 q 95 310 94 403 q 97 119 95 217 q 115 44 98 67 q 172 21 132 21 q 228 33 206 21 l 228 8 q 203 -3 217 1 q 172 -7 189 -7 q 94 23 117 -7 q 69 119 70 52 m 284 0 l 284 1111 l 312 1111 l 312 0 l 284 0 m 169 -97 l 169 -56 l 210 -56 l 210 -97 l 169 -97 z "},"ḏ":{"ha":395,"x_min":67,"x_max":312,"o":"m 69 119 q 67 265 68 194 q 67 407 67 335 q 67 554 67 478 q 69 714 68 630 q 94 811 70 782 q 173 840 119 840 q 203 837 190 840 q 228 828 217 834 l 228 801 q 173 813 207 813 q 116 790 133 813 q 97 714 98 767 q 95 501 95 599 q 95 310 94 403 q 97 119 95 217 q 115 44 98 67 q 172 21 132 21 q 228 33 206 21 l 228 8 q 203 -3 217 1 q 172 -7 189 -7 q 94 23 117 -7 q 69 119 70 52 m 284 0 l 284 1111 l 312 1111 l 312 0 l 284 0 m 88 -69 l 291 -69 l 291 -97 l 88 -97 l 88 -69 z "},"ǆ":{"ha":690,"x_min":67,"x_max":669,"o":"m 69 119 q 67 265 68 194 q 67 407 67 335 q 67 554 67 478 q 69 714 68 630 q 94 811 70 782 q 173 840 119 840 q 203 837 190 840 q 228 828 217 834 l 228 801 q 173 813 207 813 q 116 790 133 813 q 97 714 98 767 q 95 501 95 599 q 95 310 94 403 q 97 119 95 217 q 115 44 98 67 q 172 21 132 21 q 228 33 206 21 l 228 8 q 203 -3 217 1 q 172 -7 189 -7 q 94 23 117 -7 q 69 119 70 52 m 284 0 l 284 1111 l 312 1111 l 312 0 l 284 0 m 420 0 l 420 28 l 656 28 l 656 0 l 420 0 m 426 803 l 426 831 l 669 833 l 669 806 l 426 803 m 430 69 l 627 764 l 659 764 l 460 69 l 430 69 m 531 889 l 455 1026 l 484 1026 l 547 915 l 608 1026 l 637 1026 l 560 889 l 531 889 z "},"ð":{"ha":403,"x_min":66,"x_max":347,"o":"m 197 -8 q 101 22 131 -8 q 69 121 72 52 q 67 269 67 192 q 67 439 66 347 q 69 643 67 531 q 97 742 71 712 q 181 772 124 772 q 249 752 218 772 q 281 706 281 733 q 298 675 288 691 q 308 639 308 659 l 290 643 q 258 718 290 692 q 181 744 226 744 q 118 721 137 744 q 97 643 99 697 q 94 439 95 531 q 94 269 94 347 q 97 121 95 192 q 122 43 99 67 q 197 19 145 19 q 267 43 244 19 q 290 121 290 67 q 290 347 290 224 q 290 596 290 469 q 276 782 290 705 q 236 916 262 860 q 174 1013 210 972 q 94 1092 138 1055 l 108 1117 q 195 1032 156 1076 q 261 929 233 988 q 303 785 289 870 q 318 578 318 700 q 318 412 318 492 q 318 260 318 333 q 318 121 318 187 q 305 47 318 75 q 265 5 292 18 q 197 -8 238 -8 m 282 692 l 274 726 l 297 726 l 297 694 l 282 692 m 115 846 l 103 871 l 240 938 l 251 913 l 115 846 m 251 913 l 240 938 l 335 985 l 347 960 l 251 913 z "},"e":{"ha":376,"x_min":67,"x_max":316,"o":"m 69 118 q 67 267 68 192 q 67 416 67 342 q 67 565 67 490 q 69 714 68 640 q 93 803 71 774 q 165 839 115 833 l 165 810 q 114 782 130 805 q 97 714 99 759 q 95 555 96 626 q 94 417 94 483 q 95 279 94 351 q 97 118 96 207 q 114 48 99 69 q 165 22 130 26 l 165 -6 q 92 30 114 0 q 69 118 71 59 m 221 -6 l 221 23 q 270 49 255 28 q 286 118 285 70 q 287 185 288 149 q 285 265 287 221 l 313 265 q 315 185 315 221 q 314 118 315 149 q 292 30 311 59 q 221 -6 272 0 m 136 406 l 136 433 l 286 433 q 288 549 288 495 q 288 645 288 603 q 286 714 288 688 q 268 782 283 759 q 221 811 253 805 l 221 839 q 290 803 268 833 q 314 714 311 774 q 315 646 315 689 q 316 542 316 603 q 313 406 315 482 l 136 406 z "},"é":{"ha":376,"x_min":67,"x_max":316,"o":"m 69 118 q 67 267 68 192 q 67 416 67 342 q 67 565 67 490 q 69 714 68 640 q 93 803 71 774 q 165 839 115 833 l 165 810 q 114 782 130 805 q 97 714 99 759 q 95 555 96 626 q 94 417 94 483 q 95 279 94 351 q 97 118 96 207 q 114 48 99 69 q 165 22 130 26 l 165 -6 q 92 30 114 0 q 69 118 71 59 m 221 -6 l 221 23 q 270 49 255 28 q 286 118 285 70 q 287 185 288 149 q 285 265 287 221 l 313 265 q 315 185 315 221 q 314 118 315 149 q 292 30 311 59 q 221 -6 272 0 m 136 406 l 136 433 l 286 433 q 288 549 288 495 q 288 645 288 603 q 286 714 288 688 q 268 782 283 759 q 221 811 253 805 l 221 839 q 290 803 268 833 q 314 714 311 774 q 315 646 315 689 q 316 542 316 603 q 313 406 315 482 l 136 406 m 176 889 l 253 1026 l 282 1026 l 206 889 l 176 889 z "},"ĕ":{"ha":376,"x_min":67,"x_max":316,"o":"m 69 118 q 67 267 68 192 q 67 416 67 342 q 67 565 67 490 q 69 714 68 640 q 93 803 71 774 q 165 839 115 833 l 165 810 q 114 782 130 805 q 97 714 99 759 q 95 555 96 626 q 94 417 94 483 q 95 279 94 351 q 97 118 96 207 q 114 48 99 69 q 165 22 130 26 l 165 -6 q 92 30 114 0 q 69 118 71 59 m 221 -6 l 221 23 q 270 49 255 28 q 286 118 285 70 q 287 185 288 149 q 285 265 287 221 l 313 265 q 315 185 315 221 q 314 118 315 149 q 292 30 311 59 q 221 -6 272 0 m 136 406 l 136 433 l 286 433 q 288 549 288 495 q 288 645 288 603 q 286 714 288 688 q 268 782 283 759 q 221 811 253 805 l 221 839 q 290 803 268 833 q 314 714 311 774 q 315 646 315 689 q 316 542 316 603 q 313 406 315 482 l 136 406 m 192 886 q 108 912 133 886 q 81 999 82 938 l 108 999 q 127 932 110 951 q 192 913 145 913 q 257 932 239 913 q 275 999 274 951 l 303 999 q 276 912 302 938 q 192 886 250 886 z "},"ě":{"ha":376,"x_min":67,"x_max":316,"o":"m 69 118 q 67 267 68 192 q 67 416 67 342 q 67 565 67 490 q 69 714 68 640 q 93 803 71 774 q 165 839 115 833 l 165 810 q 114 782 130 805 q 97 714 99 759 q 95 555 96 626 q 94 417 94 483 q 95 279 94 351 q 97 118 96 207 q 114 48 99 69 q 165 22 130 26 l 165 -6 q 92 30 114 0 q 69 118 71 59 m 221 -6 l 221 23 q 270 49 255 28 q 286 118 285 70 q 287 185 288 149 q 285 265 287 221 l 313 265 q 315 185 315 221 q 314 118 315 149 q 292 30 311 59 q 221 -6 272 0 m 136 406 l 136 433 l 286 433 q 288 549 288 495 q 288 645 288 603 q 286 714 288 688 q 268 782 283 759 q 221 811 253 805 l 221 839 q 290 803 268 833 q 314 714 311 774 q 315 646 315 689 q 316 542 316 603 q 313 406 315 482 l 136 406 m 178 889 l 101 1026 l 131 1026 l 193 915 l 254 1026 l 283 1026 l 207 889 l 178 889 z "},"ḝ":{"ha":376,"x_min":67,"x_max":316,"o":"m 69 118 q 67 267 68 192 q 67 416 67 342 q 67 565 67 490 q 69 714 68 640 q 93 803 71 774 q 165 839 115 833 l 165 810 q 114 782 130 805 q 97 714 99 759 q 95 555 96 626 q 94 417 94 483 q 95 279 94 351 q 97 118 96 207 q 114 48 99 69 q 165 22 130 26 l 165 -6 q 92 30 114 0 q 69 118 71 59 m 221 -6 l 221 23 q 270 49 255 28 q 286 118 285 70 q 287 185 288 149 q 285 265 287 221 l 313 265 q 315 185 315 221 q 314 118 315 149 q 292 30 311 59 q 221 -6 272 0 m 136 406 l 136 433 l 286 433 q 288 549 288 495 q 288 645 288 603 q 286 714 288 688 q 268 782 283 759 q 221 811 253 805 l 221 839 q 290 803 268 833 q 314 714 311 774 q 315 646 315 689 q 316 542 316 603 q 313 406 315 482 l 136 406 m 192 886 q 108 912 133 886 q 81 999 82 938 l 108 999 q 127 932 110 951 q 192 913 145 913 q 257 932 239 913 q 275 999 274 951 l 303 999 q 276 912 302 938 q 192 886 250 886 m 122 -183 l 122 -158 l 160 -158 q 194 -145 185 -158 q 197 -107 203 -133 l 181 -28 l 208 -28 l 225 -107 q 216 -163 233 -143 q 160 -183 199 -183 l 122 -183 z "},"ê":{"ha":376,"x_min":67,"x_max":316,"o":"m 69 118 q 67 267 68 192 q 67 416 67 342 q 67 565 67 490 q 69 714 68 640 q 93 803 71 774 q 165 839 115 833 l 165 810 q 114 782 130 805 q 97 714 99 759 q 95 555 96 626 q 94 417 94 483 q 95 279 94 351 q 97 118 96 207 q 114 48 99 69 q 165 22 130 26 l 165 -6 q 92 30 114 0 q 69 118 71 59 m 221 -6 l 221 23 q 270 49 255 28 q 286 118 285 70 q 287 185 288 149 q 285 265 287 221 l 313 265 q 315 185 315 221 q 314 118 315 149 q 292 30 311 59 q 221 -6 272 0 m 136 406 l 136 433 l 286 433 q 288 549 288 495 q 288 645 288 603 q 286 714 288 688 q 268 782 283 759 q 221 811 253 805 l 221 839 q 290 803 268 833 q 314 714 311 774 q 315 646 315 689 q 316 542 316 603 q 313 406 315 482 l 136 406 m 101 889 l 178 1026 l 207 1026 l 283 889 l 251 889 l 193 997 l 133 889 l 101 889 z "},"ế":{"ha":376,"x_min":67,"x_max":372,"o":"m 69 118 q 67 267 68 192 q 67 416 67 342 q 67 565 67 490 q 69 714 68 640 q 93 803 71 774 q 165 839 115 833 l 165 810 q 114 782 130 805 q 97 714 99 759 q 95 555 96 626 q 94 417 94 483 q 95 279 94 351 q 97 118 96 207 q 114 48 99 69 q 165 22 130 26 l 165 -6 q 92 30 114 0 q 69 118 71 59 m 221 -6 l 221 23 q 270 49 255 28 q 286 118 285 70 q 287 185 288 149 q 285 265 287 221 l 313 265 q 315 185 315 221 q 314 118 315 149 q 292 30 311 59 q 221 -6 272 0 m 136 406 l 136 433 l 286 433 q 288 549 288 495 q 288 645 288 603 q 286 714 288 688 q 268 782 283 759 q 221 811 253 805 l 221 839 q 290 803 268 833 q 314 714 311 774 q 315 646 315 689 q 316 542 316 603 q 313 406 315 482 l 136 406 m 101 889 l 178 1026 l 207 1026 l 283 889 l 251 889 l 193 997 l 133 889 l 101 889 m 267 997 l 343 1134 l 372 1134 l 296 997 l 267 997 z "},"ệ":{"ha":376,"x_min":67,"x_max":316,"o":"m 69 118 q 67 267 68 192 q 67 416 67 342 q 67 565 67 490 q 69 714 68 640 q 93 803 71 774 q 165 839 115 833 l 165 810 q 114 782 130 805 q 97 714 99 759 q 95 555 96 626 q 94 417 94 483 q 95 279 94 351 q 97 118 96 207 q 114 48 99 69 q 165 22 130 26 l 165 -6 q 92 30 114 0 q 69 118 71 59 m 221 -6 l 221 23 q 270 49 255 28 q 286 118 285 70 q 287 185 288 149 q 285 265 287 221 l 313 265 q 315 185 315 221 q 314 118 315 149 q 292 30 311 59 q 221 -6 272 0 m 136 406 l 136 433 l 286 433 q 288 549 288 495 q 288 645 288 603 q 286 714 288 688 q 268 782 283 759 q 221 811 253 805 l 221 839 q 290 803 268 833 q 314 714 311 774 q 315 646 315 689 q 316 542 316 603 q 313 406 315 482 l 136 406 m 171 -97 l 171 -56 l 213 -56 l 213 -97 l 171 -97 m 101 889 l 178 1026 l 207 1026 l 283 889 l 251 889 l 193 997 l 133 889 l 101 889 z "},"ề":{"ha":376,"x_min":67,"x_max":331,"o":"m 69 118 q 67 267 68 192 q 67 416 67 342 q 67 565 67 490 q 69 714 68 640 q 93 803 71 774 q 165 839 115 833 l 165 810 q 114 782 130 805 q 97 714 99 759 q 95 555 96 626 q 94 417 94 483 q 95 279 94 351 q 97 118 96 207 q 114 48 99 69 q 165 22 130 26 l 165 -6 q 92 30 114 0 q 69 118 71 59 m 221 -6 l 221 23 q 270 49 255 28 q 286 118 285 70 q 287 185 288 149 q 285 265 287 221 l 313 265 q 315 185 315 221 q 314 118 315 149 q 292 30 311 59 q 221 -6 272 0 m 136 406 l 136 433 l 286 433 q 288 549 288 495 q 288 645 288 603 q 286 714 288 688 q 268 782 283 759 q 221 811 253 805 l 221 839 q 290 803 268 833 q 314 714 311 774 q 315 646 315 689 q 316 542 316 603 q 313 406 315 482 l 136 406 m 101 889 l 178 1026 l 207 1026 l 283 889 l 251 889 l 193 997 l 133 889 l 101 889 m 301 997 l 225 1134 l 254 1134 l 331 997 l 301 997 z "},"ể":{"ha":376,"x_min":67,"x_max":316,"o":"m 69 118 q 67 267 68 192 q 67 416 67 342 q 67 565 67 490 q 69 714 68 640 q 93 803 71 774 q 165 839 115 833 l 165 810 q 114 782 130 805 q 97 714 99 759 q 95 555 96 626 q 94 417 94 483 q 95 279 94 351 q 97 118 96 207 q 114 48 99 69 q 165 22 130 26 l 165 -6 q 92 30 114 0 q 69 118 71 59 m 221 -6 l 221 23 q 270 49 255 28 q 286 118 285 70 q 287 185 288 149 q 285 265 287 221 l 313 265 q 315 185 315 221 q 314 118 315 149 q 292 30 311 59 q 221 -6 272 0 m 136 406 l 136 433 l 286 433 q 288 549 288 495 q 288 645 288 603 q 286 714 288 688 q 268 782 283 759 q 221 811 253 805 l 221 839 q 290 803 268 833 q 314 714 311 774 q 315 646 315 689 q 316 542 316 603 q 313 406 315 482 l 136 406 m 101 889 l 178 1026 l 207 1026 l 283 889 l 251 889 l 193 997 l 133 889 l 101 889 m 245 1051 l 254 1096 q 251 1116 258 1110 q 228 1122 244 1122 l 200 1122 l 200 1144 l 228 1144 q 272 1133 259 1144 q 279 1096 285 1122 l 270 1051 l 245 1051 z "},"ễ":{"ha":376,"x_min":67,"x_max":317,"o":"m 69 118 q 67 267 68 192 q 67 416 67 342 q 67 565 67 490 q 69 714 68 640 q 93 803 71 774 q 165 839 115 833 l 165 810 q 114 782 130 805 q 97 714 99 759 q 95 555 96 626 q 94 417 94 483 q 95 279 94 351 q 97 118 96 207 q 114 48 99 69 q 165 22 130 26 l 165 -6 q 92 30 114 0 q 69 118 71 59 m 221 -6 l 221 23 q 270 49 255 28 q 286 118 285 70 q 287 185 288 149 q 285 265 287 221 l 313 265 q 315 185 315 221 q 314 118 315 149 q 292 30 311 59 q 221 -6 272 0 m 136 406 l 136 433 l 286 433 q 288 549 288 495 q 288 645 288 603 q 286 714 288 688 q 268 782 283 759 q 221 811 253 805 l 221 839 q 290 803 268 833 q 314 714 311 774 q 315 646 315 689 q 316 542 316 603 q 313 406 315 482 l 136 406 m 101 889 l 178 1026 l 207 1026 l 283 889 l 251 889 l 193 997 l 133 889 l 101 889 m 289 1133 l 315 1133 q 293 1077 317 1099 q 234 1060 269 1056 q 202 1073 213 1063 q 181 1093 191 1083 q 154 1108 172 1103 q 118 1105 139 1113 q 94 1064 98 1097 l 68 1064 q 102 1127 72 1111 q 163 1135 133 1142 q 189 1124 178 1131 q 207 1108 199 1116 q 222 1093 214 1099 q 240 1085 229 1086 q 277 1097 263 1082 q 289 1133 290 1113 z "},"ȅ":{"ha":376,"x_min":18,"x_max":316,"o":"m 69 118 q 67 267 68 192 q 67 416 67 342 q 67 565 67 490 q 69 714 68 640 q 93 803 71 774 q 165 839 115 833 l 165 810 q 114 782 130 805 q 97 714 99 759 q 95 555 96 626 q 94 417 94 483 q 95 279 94 351 q 97 118 96 207 q 114 48 99 69 q 165 22 130 26 l 165 -6 q 92 30 114 0 q 69 118 71 59 m 221 -6 l 221 23 q 270 49 255 28 q 286 118 285 70 q 287 185 288 149 q 285 265 287 221 l 313 265 q 315 185 315 221 q 314 118 315 149 q 292 30 311 59 q 221 -6 272 0 m 136 406 l 136 433 l 286 433 q 288 549 288 495 q 288 645 288 603 q 286 714 288 688 q 268 782 283 759 q 221 811 253 805 l 221 839 q 290 803 268 833 q 314 714 311 774 q 315 646 315 689 q 316 542 316 603 q 313 406 315 482 l 136 406 m 100 889 l 18 1025 l 51 1025 l 133 889 l 100 889 m 211 889 l 129 1025 l 163 1025 l 244 889 l 211 889 z "},"ë":{"ha":376,"x_min":67,"x_max":316,"o":"m 69 118 q 67 267 68 192 q 67 416 67 342 q 67 565 67 490 q 69 714 68 640 q 93 803 71 774 q 165 839 115 833 l 165 810 q 114 782 130 805 q 97 714 99 759 q 95 555 96 626 q 94 417 94 483 q 95 279 94 351 q 97 118 96 207 q 114 48 99 69 q 165 22 130 26 l 165 -6 q 92 30 114 0 q 69 118 71 59 m 221 -6 l 221 23 q 270 49 255 28 q 286 118 285 70 q 287 185 288 149 q 285 265 287 221 l 313 265 q 315 185 315 221 q 314 118 315 149 q 292 30 311 59 q 221 -6 272 0 m 136 406 l 136 433 l 286 433 q 288 549 288 495 q 288 645 288 603 q 286 714 288 688 q 268 782 283 759 q 221 811 253 805 l 221 839 q 290 803 268 833 q 314 714 311 774 q 315 646 315 689 q 316 542 316 603 q 313 406 315 482 l 136 406 m 213 889 l 213 931 l 254 931 l 254 889 l 213 889 m 129 889 l 129 931 l 171 931 l 171 889 l 129 889 z "},"ė":{"ha":376,"x_min":67,"x_max":316,"o":"m 69 118 q 67 267 68 192 q 67 416 67 342 q 67 565 67 490 q 69 714 68 640 q 93 803 71 774 q 165 839 115 833 l 165 810 q 114 782 130 805 q 97 714 99 759 q 95 555 96 626 q 94 417 94 483 q 95 279 94 351 q 97 118 96 207 q 114 48 99 69 q 165 22 130 26 l 165 -6 q 92 30 114 0 q 69 118 71 59 m 221 -6 l 221 23 q 270 49 255 28 q 286 118 285 70 q 287 185 288 149 q 285 265 287 221 l 313 265 q 315 185 315 221 q 314 118 315 149 q 292 30 311 59 q 221 -6 272 0 m 136 406 l 136 433 l 286 433 q 288 549 288 495 q 288 645 288 603 q 286 714 288 688 q 268 782 283 759 q 221 811 253 805 l 221 839 q 290 803 268 833 q 314 714 311 774 q 315 646 315 689 q 316 542 316 603 q 313 406 315 482 l 136 406 m 171 889 l 171 931 l 213 931 l 213 889 l 171 889 z "},"ẹ":{"ha":376,"x_min":67,"x_max":316,"o":"m 69 118 q 67 267 68 192 q 67 416 67 342 q 67 565 67 490 q 69 714 68 640 q 93 803 71 774 q 165 839 115 833 l 165 810 q 114 782 130 805 q 97 714 99 759 q 95 555 96 626 q 94 417 94 483 q 95 279 94 351 q 97 118 96 207 q 114 48 99 69 q 165 22 130 26 l 165 -6 q 92 30 114 0 q 69 118 71 59 m 221 -6 l 221 23 q 270 49 255 28 q 286 118 285 70 q 287 185 288 149 q 285 265 287 221 l 313 265 q 315 185 315 221 q 314 118 315 149 q 292 30 311 59 q 221 -6 272 0 m 136 406 l 136 433 l 286 433 q 288 549 288 495 q 288 645 288 603 q 286 714 288 688 q 268 782 283 759 q 221 811 253 805 l 221 839 q 290 803 268 833 q 314 714 311 774 q 315 646 315 689 q 316 542 316 603 q 313 406 315 482 l 136 406 m 171 -97 l 171 -56 l 213 -56 l 213 -97 l 171 -97 z "},"è":{"ha":376,"x_min":67,"x_max":316,"o":"m 69 118 q 67 267 68 192 q 67 416 67 342 q 67 565 67 490 q 69 714 68 640 q 93 803 71 774 q 165 839 115 833 l 165 810 q 114 782 130 805 q 97 714 99 759 q 95 555 96 626 q 94 417 94 483 q 95 279 94 351 q 97 118 96 207 q 114 48 99 69 q 165 22 130 26 l 165 -6 q 92 30 114 0 q 69 118 71 59 m 221 -6 l 221 23 q 270 49 255 28 q 286 118 285 70 q 287 185 288 149 q 285 265 287 221 l 313 265 q 315 185 315 221 q 314 118 315 149 q 292 30 311 59 q 221 -6 272 0 m 136 406 l 136 433 l 286 433 q 288 549 288 495 q 288 645 288 603 q 286 714 288 688 q 268 782 283 759 q 221 811 253 805 l 221 839 q 290 803 268 833 q 314 714 311 774 q 315 646 315 689 q 316 542 316 603 q 313 406 315 482 l 136 406 m 176 889 l 100 1026 l 129 1026 l 206 889 l 176 889 z "},"ẻ":{"ha":376,"x_min":67,"x_max":316,"o":"m 69 118 q 67 267 68 192 q 67 416 67 342 q 67 565 67 490 q 69 714 68 640 q 93 803 71 774 q 165 839 115 833 l 165 810 q 114 782 130 805 q 97 714 99 759 q 95 555 96 626 q 94 417 94 483 q 95 279 94 351 q 97 118 96 207 q 114 48 99 69 q 165 22 130 26 l 165 -6 q 92 30 114 0 q 69 118 71 59 m 221 -6 l 221 23 q 270 49 255 28 q 286 118 285 70 q 287 185 288 149 q 285 265 287 221 l 313 265 q 315 185 315 221 q 314 118 315 149 q 292 30 311 59 q 221 -6 272 0 m 136 406 l 136 433 l 286 433 q 288 549 288 495 q 288 645 288 603 q 286 714 288 688 q 268 782 283 759 q 221 811 253 805 l 221 839 q 290 803 268 833 q 314 714 311 774 q 315 646 315 689 q 316 542 316 603 q 313 406 315 482 l 136 406 m 198 917 l 207 961 q 204 982 210 976 q 181 988 197 988 l 153 988 l 153 1010 l 181 1010 q 225 999 212 1010 q 232 961 238 988 l 223 917 l 198 917 z "},"ȇ":{"ha":376,"x_min":67,"x_max":316,"o":"m 69 118 q 67 267 68 192 q 67 416 67 342 q 67 565 67 490 q 69 714 68 640 q 93 803 71 774 q 165 839 115 833 l 165 810 q 114 782 130 805 q 97 714 99 759 q 95 555 96 626 q 94 417 94 483 q 95 279 94 351 q 97 118 96 207 q 114 48 99 69 q 165 22 130 26 l 165 -6 q 92 30 114 0 q 69 118 71 59 m 221 -6 l 221 23 q 270 49 255 28 q 286 118 285 70 q 287 185 288 149 q 285 265 287 221 l 313 265 q 315 185 315 221 q 314 118 315 149 q 292 30 311 59 q 221 -6 272 0 m 136 406 l 136 433 l 286 433 q 288 549 288 495 q 288 645 288 603 q 286 714 288 688 q 268 782 283 759 q 221 811 253 805 l 221 839 q 290 803 268 833 q 314 714 311 774 q 315 646 315 689 q 316 542 316 603 q 313 406 315 482 l 136 406 m 192 985 q 276 959 250 985 q 303 872 302 933 l 275 872 q 257 939 274 920 q 192 958 239 958 q 127 939 145 958 q 108 872 110 920 l 81 872 q 108 959 82 933 q 192 985 133 985 z "},"ē":{"ha":376,"x_min":67,"x_max":316,"o":"m 69 118 q 67 267 68 192 q 67 416 67 342 q 67 565 67 490 q 69 714 68 640 q 93 803 71 774 q 165 839 115 833 l 165 810 q 114 782 130 805 q 97 714 99 759 q 95 555 96 626 q 94 417 94 483 q 95 279 94 351 q 97 118 96 207 q 114 48 99 69 q 165 22 130 26 l 165 -6 q 92 30 114 0 q 69 118 71 59 m 221 -6 l 221 23 q 270 49 255 28 q 286 118 285 70 q 287 185 288 149 q 285 265 287 221 l 313 265 q 315 185 315 221 q 314 118 315 149 q 292 30 311 59 q 221 -6 272 0 m 136 406 l 136 433 l 286 433 q 288 549 288 495 q 288 645 288 603 q 286 714 288 688 q 268 782 283 759 q 221 811 253 805 l 221 839 q 290 803 268 833 q 314 714 311 774 q 315 646 315 689 q 316 542 316 603 q 313 406 315 482 l 136 406 m 90 917 l 293 917 l 293 889 l 90 889 l 90 917 z "},"ḗ":{"ha":376,"x_min":67,"x_max":316,"o":"m 69 118 q 67 267 68 192 q 67 416 67 342 q 67 565 67 490 q 69 714 68 640 q 93 803 71 774 q 165 839 115 833 l 165 810 q 114 782 130 805 q 97 714 99 759 q 95 555 96 626 q 94 417 94 483 q 95 279 94 351 q 97 118 96 207 q 114 48 99 69 q 165 22 130 26 l 165 -6 q 92 30 114 0 q 69 118 71 59 m 221 -6 l 221 23 q 270 49 255 28 q 286 118 285 70 q 287 185 288 149 q 285 265 287 221 l 313 265 q 315 185 315 221 q 314 118 315 149 q 292 30 311 59 q 221 -6 272 0 m 136 406 l 136 433 l 286 433 q 288 549 288 495 q 288 645 288 603 q 286 714 288 688 q 268 782 283 759 q 221 811 253 805 l 221 839 q 290 803 268 833 q 314 714 311 774 q 315 646 315 689 q 316 542 316 603 q 313 406 315 482 l 136 406 m 90 917 l 293 917 l 293 889 l 90 889 l 90 917 m 176 972 l 253 1110 l 282 1110 l 206 972 l 176 972 z "},"ḕ":{"ha":376,"x_min":67,"x_max":316,"o":"m 69 118 q 67 267 68 192 q 67 416 67 342 q 67 565 67 490 q 69 714 68 640 q 93 803 71 774 q 165 839 115 833 l 165 810 q 114 782 130 805 q 97 714 99 759 q 95 555 96 626 q 94 417 94 483 q 95 279 94 351 q 97 118 96 207 q 114 48 99 69 q 165 22 130 26 l 165 -6 q 92 30 114 0 q 69 118 71 59 m 221 -6 l 221 23 q 270 49 255 28 q 286 118 285 70 q 287 185 288 149 q 285 265 287 221 l 313 265 q 315 185 315 221 q 314 118 315 149 q 292 30 311 59 q 221 -6 272 0 m 136 406 l 136 433 l 286 433 q 288 549 288 495 q 288 645 288 603 q 286 714 288 688 q 268 782 283 759 q 221 811 253 805 l 221 839 q 290 803 268 833 q 314 714 311 774 q 315 646 315 689 q 316 542 316 603 q 313 406 315 482 l 136 406 m 90 917 l 293 917 l 293 889 l 90 889 l 90 917 m 176 972 l 100 1110 l 129 1110 l 206 972 l 176 972 z "},"ę":{"ha":376,"x_min":67,"x_max":317,"o":"m 69 118 q 67 267 68 192 q 67 416 67 342 q 67 565 67 490 q 69 714 68 640 q 93 803 71 774 q 165 839 115 833 l 165 810 q 114 782 130 805 q 97 714 99 759 q 95 555 96 626 q 94 417 94 483 q 95 279 94 351 q 97 118 96 207 q 114 48 99 69 q 165 22 130 26 l 165 -6 q 92 30 114 0 q 69 118 71 59 m 221 -6 l 221 23 q 270 49 255 28 q 286 118 285 70 q 287 185 288 149 q 285 265 287 221 l 313 265 q 315 185 315 221 q 314 118 315 149 q 292 30 311 59 q 221 -6 272 0 m 136 406 l 136 433 l 286 433 q 288 549 288 495 q 288 645 288 603 q 286 714 288 688 q 268 782 283 759 q 221 811 253 805 l 221 839 q 290 803 268 833 q 314 714 311 774 q 315 646 315 689 q 316 542 316 603 q 313 406 315 482 l 136 406 m 317 -211 l 279 -211 q 223 -191 240 -211 q 214 -135 207 -171 l 231 -56 l 258 -56 l 242 -135 q 245 -173 237 -160 q 279 -186 254 -186 l 317 -186 l 317 -211 z "},"ẽ":{"ha":376,"x_min":67,"x_max":317,"o":"m 69 118 q 67 267 68 192 q 67 416 67 342 q 67 565 67 490 q 69 714 68 640 q 93 803 71 774 q 165 839 115 833 l 165 810 q 114 782 130 805 q 97 714 99 759 q 95 555 96 626 q 94 417 94 483 q 95 279 94 351 q 97 118 96 207 q 114 48 99 69 q 165 22 130 26 l 165 -6 q 92 30 114 0 q 69 118 71 59 m 221 -6 l 221 23 q 270 49 255 28 q 286 118 285 70 q 287 185 288 149 q 285 265 287 221 l 313 265 q 315 185 315 221 q 314 118 315 149 q 292 30 311 59 q 221 -6 272 0 m 136 406 l 136 433 l 286 433 q 288 549 288 495 q 288 645 288 603 q 286 714 288 688 q 268 782 283 759 q 221 811 253 805 l 221 839 q 290 803 268 833 q 314 714 311 774 q 315 646 315 689 q 316 542 316 603 q 313 406 315 482 l 136 406 m 289 940 l 315 940 q 293 884 317 906 q 234 867 269 863 q 202 880 213 869 q 181 900 191 890 q 154 915 172 910 q 118 911 139 919 q 94 871 98 903 l 68 871 q 102 934 72 918 q 163 942 133 949 q 189 931 178 938 q 207 915 199 923 q 222 900 214 906 q 240 892 229 893 q 277 904 263 889 q 289 940 290 919 z "},"ǝ":{"ha":376,"x_min":60,"x_max":310,"o":"m 306 715 q 309 566 308 641 q 310 417 310 492 q 309 268 310 343 q 306 119 308 194 q 283 31 306 60 q 210 -6 260 1 l 210 23 q 262 52 246 28 q 278 119 278 75 q 281 279 280 208 q 282 416 282 350 q 281 555 282 483 q 278 715 280 626 q 262 786 278 765 q 210 811 246 807 l 210 839 q 284 804 262 833 q 306 715 306 774 m 155 839 l 155 810 q 106 784 121 806 q 90 715 91 763 q 89 649 89 684 q 91 568 89 613 l 63 568 q 61 649 61 613 q 62 715 61 685 q 84 805 65 775 q 155 839 104 834 m 240 428 l 240 400 l 90 400 q 88 284 88 338 q 88 188 88 231 q 90 119 88 146 q 108 52 93 75 q 155 22 123 28 l 155 -6 q 87 30 108 1 q 62 119 65 59 q 60 188 61 144 q 60 291 60 231 q 63 428 60 351 l 240 428 z "},"ə":{"ha":376,"x_min":60,"x_max":310,"o":"m 306 715 q 309 566 308 641 q 310 417 310 492 q 309 268 310 343 q 306 119 308 194 q 283 31 306 60 q 210 -6 260 1 l 210 23 q 262 52 246 28 q 278 119 278 75 q 281 279 280 208 q 282 416 282 350 q 281 555 282 483 q 278 715 280 626 q 262 786 278 765 q 210 811 246 807 l 210 839 q 284 804 262 833 q 306 715 306 774 m 155 839 l 155 810 q 106 784 121 806 q 90 715 91 763 q 89 649 89 684 q 91 568 89 613 l 63 568 q 61 649 61 613 q 62 715 61 685 q 84 805 65 775 q 155 839 104 834 m 240 428 l 240 400 l 90 400 q 88 284 88 338 q 88 188 88 231 q 90 119 88 146 q 108 52 93 75 q 155 22 123 28 l 155 -6 q 87 30 108 1 q 62 119 65 59 q 60 188 61 144 q 60 291 60 231 q 63 428 60 351 l 240 428 z "},"f":{"ha":250,"x_min":40,"x_max":271,"o":"m 40 806 l 40 833 l 85 833 l 85 994 q 110 1090 85 1061 q 197 1119 135 1119 q 235 1117 213 1119 q 271 1111 258 1115 l 271 1085 q 239 1090 256 1088 q 200 1092 222 1092 q 131 1072 150 1092 q 113 994 113 1052 l 114 0 l 86 0 l 85 806 l 40 806 m 154 806 l 154 833 l 257 833 l 257 806 l 154 806 z "},"g":{"ha":415,"x_min":49,"x_max":399,"o":"m 172 -194 q 83 -167 117 -191 q 49 -83 49 -142 q 49 -73 49 -78 q 49 -64 49 -69 q 76 1 49 -20 q 127 28 102 23 l 127 39 q 78 106 78 63 q 78 111 78 109 q 78 117 78 114 q 94 162 78 144 q 124 183 109 181 l 124 196 q 90 236 101 210 q 77 306 78 263 q 75 410 76 365 q 74 499 74 456 q 75 594 74 543 q 77 714 76 644 q 100 803 78 774 q 172 839 122 833 l 172 811 q 121 785 136 806 q 105 714 106 763 q 102 575 103 645 q 102 437 101 505 q 105 306 103 369 q 122 236 106 257 q 172 210 138 215 l 172 179 q 124 158 142 174 q 106 117 106 142 q 106 111 106 114 q 106 106 106 109 q 122 67 106 80 q 172 50 138 55 l 172 22 q 104 5 131 22 q 77 -64 77 -12 q 77 -74 77 -69 q 77 -85 77 -79 q 104 -149 77 -133 q 172 -167 131 -165 l 172 -194 m 227 -194 l 227 -167 q 294 -149 267 -165 q 322 -85 322 -133 q 322 -74 322 -79 q 322 -64 322 -69 q 295 1 322 -12 q 227 19 268 15 l 227 45 q 317 18 284 40 q 349 -64 349 -3 q 349 -73 349 -69 q 349 -83 349 -78 q 316 -166 349 -142 q 227 -194 282 -190 m 227 182 l 227 210 q 277 236 262 215 q 294 306 292 257 q 297 437 296 369 q 297 575 297 505 q 294 714 296 645 q 277 785 292 763 q 227 811 263 806 l 227 839 q 316 768 301 831 l 327 768 q 349 815 327 797 q 399 833 372 833 l 399 806 l 390 806 q 342 774 360 806 q 323 682 323 742 l 323 650 q 324 529 323 581 q 324 426 324 477 q 322 306 324 374 q 298 217 319 247 q 227 182 277 188 z "},"ğ":{"ha":415,"x_min":49,"x_max":399,"o":"m 172 -194 q 83 -167 117 -191 q 49 -83 49 -142 q 49 -73 49 -78 q 49 -64 49 -69 q 76 1 49 -20 q 127 28 102 23 l 127 39 q 78 106 78 63 q 78 111 78 109 q 78 117 78 114 q 94 162 78 144 q 124 183 109 181 l 124 196 q 90 236 101 210 q 77 306 78 263 q 75 410 76 365 q 74 499 74 456 q 75 594 74 543 q 77 714 76 644 q 100 803 78 774 q 172 839 122 833 l 172 811 q 121 785 136 806 q 105 714 106 763 q 102 575 103 645 q 102 437 101 505 q 105 306 103 369 q 122 236 106 257 q 172 210 138 215 l 172 179 q 124 158 142 174 q 106 117 106 142 q 106 111 106 114 q 106 106 106 109 q 122 67 106 80 q 172 50 138 55 l 172 22 q 104 5 131 22 q 77 -64 77 -12 q 77 -74 77 -69 q 77 -85 77 -79 q 104 -149 77 -133 q 172 -167 131 -165 l 172 -194 m 227 -194 l 227 -167 q 294 -149 267 -165 q 322 -85 322 -133 q 322 -74 322 -79 q 322 -64 322 -69 q 295 1 322 -12 q 227 19 268 15 l 227 45 q 317 18 284 40 q 349 -64 349 -3 q 349 -73 349 -69 q 349 -83 349 -78 q 316 -166 349 -142 q 227 -194 282 -190 m 227 182 l 227 210 q 277 236 262 215 q 294 306 292 257 q 297 437 296 369 q 297 575 297 505 q 294 714 296 645 q 277 785 292 763 q 227 811 263 806 l 227 839 q 316 768 301 831 l 327 768 q 349 815 327 797 q 399 833 372 833 l 399 806 l 390 806 q 342 774 360 806 q 323 682 323 742 l 323 650 q 324 529 323 581 q 324 426 324 477 q 322 306 324 374 q 298 217 319 247 q 227 182 277 188 m 199 886 q 115 912 141 886 q 88 999 90 938 l 116 999 q 135 932 117 951 q 199 913 153 913 q 264 932 247 913 q 283 999 282 951 l 310 999 q 284 912 310 938 q 199 886 258 886 z "},"ǧ":{"ha":415,"x_min":49,"x_max":399,"o":"m 172 -194 q 83 -167 117 -191 q 49 -83 49 -142 q 49 -73 49 -78 q 49 -64 49 -69 q 76 1 49 -20 q 127 28 102 23 l 127 39 q 78 106 78 63 q 78 111 78 109 q 78 117 78 114 q 94 162 78 144 q 124 183 109 181 l 124 196 q 90 236 101 210 q 77 306 78 263 q 75 410 76 365 q 74 499 74 456 q 75 594 74 543 q 77 714 76 644 q 100 803 78 774 q 172 839 122 833 l 172 811 q 121 785 136 806 q 105 714 106 763 q 102 575 103 645 q 102 437 101 505 q 105 306 103 369 q 122 236 106 257 q 172 210 138 215 l 172 179 q 124 158 142 174 q 106 117 106 142 q 106 111 106 114 q 106 106 106 109 q 122 67 106 80 q 172 50 138 55 l 172 22 q 104 5 131 22 q 77 -64 77 -12 q 77 -74 77 -69 q 77 -85 77 -79 q 104 -149 77 -133 q 172 -167 131 -165 l 172 -194 m 227 -194 l 227 -167 q 294 -149 267 -165 q 322 -85 322 -133 q 322 -74 322 -79 q 322 -64 322 -69 q 295 1 322 -12 q 227 19 268 15 l 227 45 q 317 18 284 40 q 349 -64 349 -3 q 349 -73 349 -69 q 349 -83 349 -78 q 316 -166 349 -142 q 227 -194 282 -190 m 227 182 l 227 210 q 277 236 262 215 q 294 306 292 257 q 297 437 296 369 q 297 575 297 505 q 294 714 296 645 q 277 785 292 763 q 227 811 263 806 l 227 839 q 316 768 301 831 l 327 768 q 349 815 327 797 q 399 833 372 833 l 399 806 l 390 806 q 342 774 360 806 q 323 682 323 742 l 323 650 q 324 529 323 581 q 324 426 324 477 q 322 306 324 374 q 298 217 319 247 q 227 182 277 188 m 185 889 l 109 1026 l 138 1026 l 201 915 l 262 1026 l 291 1026 l 215 889 l 185 889 z "},"ĝ":{"ha":415,"x_min":49,"x_max":399,"o":"m 172 -194 q 83 -167 117 -191 q 49 -83 49 -142 q 49 -73 49 -78 q 49 -64 49 -69 q 76 1 49 -20 q 127 28 102 23 l 127 39 q 78 106 78 63 q 78 111 78 109 q 78 117 78 114 q 94 162 78 144 q 124 183 109 181 l 124 196 q 90 236 101 210 q 77 306 78 263 q 75 410 76 365 q 74 499 74 456 q 75 594 74 543 q 77 714 76 644 q 100 803 78 774 q 172 839 122 833 l 172 811 q 121 785 136 806 q 105 714 106 763 q 102 575 103 645 q 102 437 101 505 q 105 306 103 369 q 122 236 106 257 q 172 210 138 215 l 172 179 q 124 158 142 174 q 106 117 106 142 q 106 111 106 114 q 106 106 106 109 q 122 67 106 80 q 172 50 138 55 l 172 22 q 104 5 131 22 q 77 -64 77 -12 q 77 -74 77 -69 q 77 -85 77 -79 q 104 -149 77 -133 q 172 -167 131 -165 l 172 -194 m 227 -194 l 227 -167 q 294 -149 267 -165 q 322 -85 322 -133 q 322 -74 322 -79 q 322 -64 322 -69 q 295 1 322 -12 q 227 19 268 15 l 227 45 q 317 18 284 40 q 349 -64 349 -3 q 349 -73 349 -69 q 349 -83 349 -78 q 316 -166 349 -142 q 227 -194 282 -190 m 227 182 l 227 210 q 277 236 262 215 q 294 306 292 257 q 297 437 296 369 q 297 575 297 505 q 294 714 296 645 q 277 785 292 763 q 227 811 263 806 l 227 839 q 316 768 301 831 l 327 768 q 349 815 327 797 q 399 833 372 833 l 399 806 l 390 806 q 342 774 360 806 q 323 682 323 742 l 323 650 q 324 529 323 581 q 324 426 324 477 q 322 306 324 374 q 298 217 319 247 q 227 182 277 188 m 109 889 l 185 1026 l 215 1026 l 291 889 l 259 889 l 201 997 l 141 889 l 109 889 z "},"ģ":{"ha":415,"x_min":49,"x_max":399,"o":"m 172 -194 q 83 -167 117 -191 q 49 -83 49 -142 q 49 -73 49 -78 q 49 -64 49 -69 q 76 1 49 -20 q 127 28 102 23 l 127 39 q 78 106 78 63 q 78 111 78 109 q 78 117 78 114 q 94 162 78 144 q 124 183 109 181 l 124 196 q 90 236 101 210 q 77 306 78 263 q 75 410 76 365 q 74 499 74 456 q 75 594 74 543 q 77 714 76 644 q 100 803 78 774 q 172 839 122 833 l 172 811 q 121 785 136 806 q 105 714 106 763 q 102 575 103 645 q 102 437 101 505 q 105 306 103 369 q 122 236 106 257 q 172 210 138 215 l 172 179 q 124 158 142 174 q 106 117 106 142 q 106 111 106 114 q 106 106 106 109 q 122 67 106 80 q 172 50 138 55 l 172 22 q 104 5 131 22 q 77 -64 77 -12 q 77 -74 77 -69 q 77 -85 77 -79 q 104 -149 77 -133 q 172 -167 131 -165 l 172 -194 m 227 -194 l 227 -167 q 294 -149 267 -165 q 322 -85 322 -133 q 322 -74 322 -79 q 322 -64 322 -69 q 295 1 322 -12 q 227 19 268 15 l 227 45 q 317 18 284 40 q 349 -64 349 -3 q 349 -73 349 -69 q 349 -83 349 -78 q 316 -166 349 -142 q 227 -194 282 -190 m 227 182 l 227 210 q 277 236 262 215 q 294 306 292 257 q 297 437 296 369 q 297 575 297 505 q 294 714 296 645 q 277 785 292 763 q 227 811 263 806 l 227 839 q 316 768 301 831 l 327 768 q 349 815 327 797 q 399 833 372 833 l 399 806 l 390 806 q 342 774 360 806 q 323 682 323 742 l 323 650 q 324 529 323 581 q 324 426 324 477 q 322 306 324 374 q 298 217 319 247 q 227 182 277 188 m 224 1067 l 197 992 l 234 992 l 234 922 l 165 922 l 165 983 l 194 1067 l 224 1067 z "},"ġ":{"ha":415,"x_min":49,"x_max":399,"o":"m 172 -194 q 83 -167 117 -191 q 49 -83 49 -142 q 49 -73 49 -78 q 49 -64 49 -69 q 76 1 49 -20 q 127 28 102 23 l 127 39 q 78 106 78 63 q 78 111 78 109 q 78 117 78 114 q 94 162 78 144 q 124 183 109 181 l 124 196 q 90 236 101 210 q 77 306 78 263 q 75 410 76 365 q 74 499 74 456 q 75 594 74 543 q 77 714 76 644 q 100 803 78 774 q 172 839 122 833 l 172 811 q 121 785 136 806 q 105 714 106 763 q 102 575 103 645 q 102 437 101 505 q 105 306 103 369 q 122 236 106 257 q 172 210 138 215 l 172 179 q 124 158 142 174 q 106 117 106 142 q 106 111 106 114 q 106 106 106 109 q 122 67 106 80 q 172 50 138 55 l 172 22 q 104 5 131 22 q 77 -64 77 -12 q 77 -74 77 -69 q 77 -85 77 -79 q 104 -149 77 -133 q 172 -167 131 -165 l 172 -194 m 227 -194 l 227 -167 q 294 -149 267 -165 q 322 -85 322 -133 q 322 -74 322 -79 q 322 -64 322 -69 q 295 1 322 -12 q 227 19 268 15 l 227 45 q 317 18 284 40 q 349 -64 349 -3 q 349 -73 349 -69 q 349 -83 349 -78 q 316 -166 349 -142 q 227 -194 282 -190 m 227 182 l 227 210 q 277 236 262 215 q 294 306 292 257 q 297 437 296 369 q 297 575 297 505 q 294 714 296 645 q 277 785 292 763 q 227 811 263 806 l 227 839 q 316 768 301 831 l 327 768 q 349 815 327 797 q 399 833 372 833 l 399 806 l 390 806 q 342 774 360 806 q 323 682 323 742 l 323 650 q 324 529 323 581 q 324 426 324 477 q 322 306 324 374 q 298 217 319 247 q 227 182 277 188 m 178 889 l 178 931 l 220 931 l 220 889 l 178 889 z "},"ḡ":{"ha":415,"x_min":49,"x_max":399,"o":"m 172 -194 q 83 -167 117 -191 q 49 -83 49 -142 q 49 -73 49 -78 q 49 -64 49 -69 q 76 1 49 -20 q 127 28 102 23 l 127 39 q 78 106 78 63 q 78 111 78 109 q 78 117 78 114 q 94 162 78 144 q 124 183 109 181 l 124 196 q 90 236 101 210 q 77 306 78 263 q 75 410 76 365 q 74 499 74 456 q 75 594 74 543 q 77 714 76 644 q 100 803 78 774 q 172 839 122 833 l 172 811 q 121 785 136 806 q 105 714 106 763 q 102 575 103 645 q 102 437 101 505 q 105 306 103 369 q 122 236 106 257 q 172 210 138 215 l 172 179 q 124 158 142 174 q 106 117 106 142 q 106 111 106 114 q 106 106 106 109 q 122 67 106 80 q 172 50 138 55 l 172 22 q 104 5 131 22 q 77 -64 77 -12 q 77 -74 77 -69 q 77 -85 77 -79 q 104 -149 77 -133 q 172 -167 131 -165 l 172 -194 m 227 -194 l 227 -167 q 294 -149 267 -165 q 322 -85 322 -133 q 322 -74 322 -79 q 322 -64 322 -69 q 295 1 322 -12 q 227 19 268 15 l 227 45 q 317 18 284 40 q 349 -64 349 -3 q 349 -73 349 -69 q 349 -83 349 -78 q 316 -166 349 -142 q 227 -194 282 -190 m 227 182 l 227 210 q 277 236 262 215 q 294 306 292 257 q 297 437 296 369 q 297 575 297 505 q 294 714 296 645 q 277 785 292 763 q 227 811 263 806 l 227 839 q 316 768 301 831 l 327 768 q 349 815 327 797 q 399 833 372 833 l 399 806 l 390 806 q 342 774 360 806 q 323 682 323 742 l 323 650 q 324 529 323 581 q 324 426 324 477 q 322 306 324 374 q 298 217 319 247 q 227 182 277 188 m 98 917 l 301 917 l 301 889 l 98 889 l 98 917 z "},"h":{"ha":407,"x_min":83,"x_max":326,"o":"m 83 0 l 83 1111 l 111 1111 l 111 0 l 83 0 m 299 0 l 299 714 q 281 790 299 767 q 224 813 263 813 q 167 800 190 813 l 167 827 q 192 837 178 834 q 224 840 206 840 q 302 811 278 840 q 326 714 326 782 l 326 0 l 299 0 z "},"ħ":{"ha":424,"x_min":31,"x_max":343,"o":"m 31 976 l 111 976 l 111 949 l 31 949 l 31 976 m 169 976 l 236 976 l 236 949 l 169 949 l 169 976 m 100 0 l 100 1111 l 128 1111 l 128 0 l 100 0 m 315 0 l 315 714 q 298 790 315 767 q 240 813 280 813 q 183 800 206 813 l 183 827 q 209 837 195 834 q 240 840 223 840 q 319 811 294 840 q 343 714 343 782 l 343 0 l 315 0 z "},"ḫ":{"ha":407,"x_min":83,"x_max":326,"o":"m 83 0 l 83 1111 l 111 1111 l 111 0 l 83 0 m 299 0 l 299 714 q 281 790 299 767 q 224 813 263 813 q 167 800 190 813 l 167 827 q 192 837 178 834 q 224 840 206 840 q 302 811 278 840 q 326 714 326 782 l 326 0 l 299 0 m 207 -169 q 123 -143 149 -169 q 96 -57 97 -117 l 124 -57 q 143 -124 125 -105 q 207 -143 160 -143 q 272 -124 254 -143 q 290 -57 290 -105 l 318 -57 q 291 -143 317 -117 q 207 -169 265 -169 z "},"ĥ":{"ha":407,"x_min":83,"x_max":326,"o":"m 83 0 l 83 1111 l 111 1111 l 111 0 l 83 0 m 299 0 l 299 714 q 281 790 299 767 q 224 813 263 813 q 167 800 190 813 l 167 827 q 192 837 178 834 q 224 840 206 840 q 302 811 278 840 q 326 714 326 782 l 326 0 l 299 0 m 117 1167 l 193 1304 l 222 1304 l 299 1167 l 267 1167 l 208 1275 l 149 1167 l 117 1167 z "},"ḥ":{"ha":407,"x_min":83,"x_max":326,"o":"m 83 0 l 83 1111 l 111 1111 l 111 0 l 83 0 m 299 0 l 299 714 q 281 790 299 767 q 224 813 263 813 q 167 800 190 813 l 167 827 q 192 837 178 834 q 224 840 206 840 q 302 811 278 840 q 326 714 326 782 l 326 0 l 299 0 m 186 -97 l 186 -56 l 228 -56 l 228 -97 l 186 -97 z "},"i":{"ha":194,"x_min":42,"x_max":153,"o":"m 42 1025 l 42 1111 l 153 1111 l 153 1025 l 42 1025 m 83 0 l 83 833 l 111 833 l 111 0 l 83 0 z "},"ı":{"ha":194,"x_min":83,"x_max":111,"o":"m 83 0 l 83 833 l 111 833 l 111 0 l 83 0 z "},"í":{"ha":194,"x_min":82,"x_max":188,"o":"m 83 0 l 83 833 l 111 833 l 111 0 l 83 0 m 82 889 l 158 1026 l 188 1026 l 111 889 l 82 889 z "},"ĭ":{"ha":194,"x_min":-14,"x_max":208,"o":"m 83 0 l 83 833 l 111 833 l 111 0 l 83 0 m 97 886 q 13 912 39 886 q -14 999 -12 938 l 14 999 q 33 932 15 951 q 97 913 51 913 q 162 932 144 913 q 181 999 180 951 l 208 999 q 182 912 208 938 q 97 886 156 886 z "},"ǐ":{"ha":194,"x_min":7,"x_max":189,"o":"m 83 0 l 83 833 l 111 833 l 111 0 l 83 0 m 83 889 l 7 1026 l 36 1026 l 99 915 l 160 1026 l 189 1026 l 113 889 l 83 889 z "},"î":{"ha":194,"x_min":7,"x_max":189,"o":"m 83 0 l 83 833 l 111 833 l 111 0 l 83 0 m 7 889 l 83 1026 l 113 1026 l 189 889 l 157 889 l 99 997 l 39 889 l 7 889 z "},"ȉ":{"ha":194,"x_min":-76,"x_max":150,"o":"m 83 0 l 83 833 l 111 833 l 111 0 l 83 0 m 6 889 l -76 1025 l -43 1025 l 39 889 l 6 889 m 117 889 l 35 1025 l 68 1025 l 150 889 l 117 889 z "}}}
